<?xml version="1.0" encoding="utf-8" standalone="no"?>
<!DOCTYPE svg PUBLIC "-//W3C//DTD SVG 1.1//EN"
  "http://www.w3.org/Graphics/SVG/1.1/DTD/svg11.dtd">
<!-- Created with matplotlib (https://matplotlib.org/) -->
<svg height="396pt" version="1.1" viewBox="0 0 576 396" width="576pt" xmlns="http://www.w3.org/2000/svg" xmlns:xlink="http://www.w3.org/1999/xlink">
 <defs>
  <style type="text/css">
*{stroke-linecap:butt;stroke-linejoin:round;}
  </style>
 </defs>
 <g id="figure_1">
  <g id="patch_1">
   <path d="M 0 396 
L 576 396 
L 576 0 
L 0 0 
z
" style="fill:#ffffff;"/>
  </g>
  <g id="axes_1">
   <g id="patch_2">
    <path d="M 59.78 355.48 
L 563.001818 355.48 
L 563.001818 25.49625 
L 59.78 25.49625 
z
" style="fill:#eaeaf2;"/>
   </g>
   <g id="matplotlib.axis_1">
    <g id="xtick_1">
     <g id="line2d_1">
      <path clip-path="url(#pa1a91a5278)" d="M 82.653719 355.48 
L 82.653719 25.49625 
" style="fill:none;stroke:#ffffff;stroke-linecap:round;"/>
     </g>
     <g id="line2d_2"/>
     <g id="text_1">
      <!-- 0 -->
      <defs>
       <path d="M 4.15625 35.296875 
Q 4.15625 48 6.765625 55.734375 
Q 9.375 63.484375 14.515625 67.671875 
Q 19.671875 71.875 27.484375 71.875 
Q 33.25 71.875 37.59375 69.546875 
Q 41.9375 67.234375 44.765625 62.859375 
Q 47.609375 58.5 49.21875 52.21875 
Q 50.828125 45.953125 50.828125 35.296875 
Q 50.828125 22.703125 48.234375 14.96875 
Q 45.65625 7.234375 40.5 3 
Q 35.359375 -1.21875 27.484375 -1.21875 
Q 17.140625 -1.21875 11.234375 6.203125 
Q 4.15625 15.140625 4.15625 35.296875 
z
M 13.1875 35.296875 
Q 13.1875 17.671875 17.3125 11.828125 
Q 21.4375 6 27.484375 6 
Q 33.546875 6 37.671875 11.859375 
Q 41.796875 17.71875 41.796875 35.296875 
Q 41.796875 52.984375 37.671875 58.78125 
Q 33.546875 64.59375 27.390625 64.59375 
Q 21.34375 64.59375 17.71875 59.46875 
Q 13.1875 52.9375 13.1875 35.296875 
z
" id="ArialMT-48"/>
      </defs>
      <g style="fill:#262626;" transform="translate(79.87325 369.637812)scale(0.1 -0.1)">
       <use xlink:href="#ArialMT-48"/>
      </g>
     </g>
    </g>
    <g id="xtick_2">
     <g id="line2d_3">
      <path clip-path="url(#pa1a91a5278)" d="M 177.960882 355.48 
L 177.960882 25.49625 
" style="fill:none;stroke:#ffffff;stroke-linecap:round;"/>
     </g>
     <g id="line2d_4"/>
     <g id="text_2">
      <!-- 5 -->
      <defs>
       <path d="M 4.15625 18.75 
L 13.375 19.53125 
Q 14.40625 12.796875 18.140625 9.390625 
Q 21.875 6 27.15625 6 
Q 33.5 6 37.890625 10.78125 
Q 42.28125 15.578125 42.28125 23.484375 
Q 42.28125 31 38.0625 35.34375 
Q 33.84375 39.703125 27 39.703125 
Q 22.75 39.703125 19.328125 37.765625 
Q 15.921875 35.84375 13.96875 32.765625 
L 5.71875 33.84375 
L 12.640625 70.609375 
L 48.25 70.609375 
L 48.25 62.203125 
L 19.671875 62.203125 
L 15.828125 42.96875 
Q 22.265625 47.46875 29.34375 47.46875 
Q 38.71875 47.46875 45.15625 40.96875 
Q 51.609375 34.46875 51.609375 24.265625 
Q 51.609375 14.546875 45.953125 7.46875 
Q 39.0625 -1.21875 27.15625 -1.21875 
Q 17.390625 -1.21875 11.203125 4.25 
Q 5.03125 9.71875 4.15625 18.75 
z
" id="ArialMT-53"/>
      </defs>
      <g style="fill:#262626;" transform="translate(175.180413 369.637812)scale(0.1 -0.1)">
       <use xlink:href="#ArialMT-53"/>
      </g>
     </g>
    </g>
    <g id="xtick_3">
     <g id="line2d_5">
      <path clip-path="url(#pa1a91a5278)" d="M 273.268044 355.48 
L 273.268044 25.49625 
" style="fill:none;stroke:#ffffff;stroke-linecap:round;"/>
     </g>
     <g id="line2d_6"/>
     <g id="text_3">
      <!-- 10 -->
      <defs>
       <path d="M 37.25 0 
L 28.46875 0 
L 28.46875 56 
Q 25.296875 52.984375 20.140625 49.953125 
Q 14.984375 46.921875 10.890625 45.40625 
L 10.890625 53.90625 
Q 18.265625 57.375 23.78125 62.296875 
Q 29.296875 67.234375 31.59375 71.875 
L 37.25 71.875 
z
" id="ArialMT-49"/>
      </defs>
      <g style="fill:#262626;" transform="translate(267.707107 369.637812)scale(0.1 -0.1)">
       <use xlink:href="#ArialMT-49"/>
       <use x="55.615234" xlink:href="#ArialMT-48"/>
      </g>
     </g>
    </g>
    <g id="xtick_4">
     <g id="line2d_7">
      <path clip-path="url(#pa1a91a5278)" d="M 368.575207 355.48 
L 368.575207 25.49625 
" style="fill:none;stroke:#ffffff;stroke-linecap:round;"/>
     </g>
     <g id="line2d_8"/>
     <g id="text_4">
      <!-- 15 -->
      <g style="fill:#262626;" transform="translate(363.014269 369.637812)scale(0.1 -0.1)">
       <use xlink:href="#ArialMT-49"/>
       <use x="55.615234" xlink:href="#ArialMT-53"/>
      </g>
     </g>
    </g>
    <g id="xtick_5">
     <g id="line2d_9">
      <path clip-path="url(#pa1a91a5278)" d="M 463.882369 355.48 
L 463.882369 25.49625 
" style="fill:none;stroke:#ffffff;stroke-linecap:round;"/>
     </g>
     <g id="line2d_10"/>
     <g id="text_5">
      <!-- 20 -->
      <defs>
       <path d="M 50.34375 8.453125 
L 50.34375 0 
L 3.03125 0 
Q 2.9375 3.171875 4.046875 6.109375 
Q 5.859375 10.9375 9.828125 15.625 
Q 13.8125 20.3125 21.34375 26.46875 
Q 33.015625 36.03125 37.109375 41.625 
Q 41.21875 47.21875 41.21875 52.203125 
Q 41.21875 57.421875 37.46875 61 
Q 33.734375 64.59375 27.734375 64.59375 
Q 21.390625 64.59375 17.578125 60.78125 
Q 13.765625 56.984375 13.71875 50.25 
L 4.6875 51.171875 
Q 5.609375 61.28125 11.65625 66.578125 
Q 17.71875 71.875 27.9375 71.875 
Q 38.234375 71.875 44.234375 66.15625 
Q 50.25 60.453125 50.25 52 
Q 50.25 47.703125 48.484375 43.546875 
Q 46.734375 39.40625 42.65625 34.8125 
Q 38.578125 30.21875 29.109375 22.21875 
Q 21.1875 15.578125 18.9375 13.203125 
Q 16.703125 10.84375 15.234375 8.453125 
z
" id="ArialMT-50"/>
      </defs>
      <g style="fill:#262626;" transform="translate(458.321432 369.637812)scale(0.1 -0.1)">
       <use xlink:href="#ArialMT-50"/>
       <use x="55.615234" xlink:href="#ArialMT-48"/>
      </g>
     </g>
    </g>
    <g id="xtick_6">
     <g id="line2d_11">
      <path clip-path="url(#pa1a91a5278)" d="M 559.189532 355.48 
L 559.189532 25.49625 
" style="fill:none;stroke:#ffffff;stroke-linecap:round;"/>
     </g>
     <g id="line2d_12"/>
     <g id="text_6">
      <!-- 25 -->
      <g style="fill:#262626;" transform="translate(553.628594 369.637812)scale(0.1 -0.1)">
       <use xlink:href="#ArialMT-50"/>
       <use x="55.615234" xlink:href="#ArialMT-53"/>
      </g>
     </g>
    </g>
    <g id="text_7">
     <!-- Time after Solar Noon [hours] -->
     <defs>
      <path d="M 25.921875 0 
L 25.921875 63.140625 
L 2.34375 63.140625 
L 2.34375 71.578125 
L 59.078125 71.578125 
L 59.078125 63.140625 
L 35.40625 63.140625 
L 35.40625 0 
z
" id="ArialMT-84"/>
      <path d="M 6.640625 61.46875 
L 6.640625 71.578125 
L 15.4375 71.578125 
L 15.4375 61.46875 
z
M 6.640625 0 
L 6.640625 51.859375 
L 15.4375 51.859375 
L 15.4375 0 
z
" id="ArialMT-105"/>
      <path d="M 6.59375 0 
L 6.59375 51.859375 
L 14.453125 51.859375 
L 14.453125 44.578125 
Q 16.890625 48.390625 20.9375 50.703125 
Q 25 53.03125 30.171875 53.03125 
Q 35.9375 53.03125 39.625 50.640625 
Q 43.3125 48.25 44.828125 43.953125 
Q 50.984375 53.03125 60.84375 53.03125 
Q 68.5625 53.03125 72.703125 48.75 
Q 76.859375 44.484375 76.859375 35.59375 
L 76.859375 0 
L 68.109375 0 
L 68.109375 32.671875 
Q 68.109375 37.9375 67.25 40.25 
Q 66.40625 42.578125 64.15625 43.984375 
Q 61.921875 45.40625 58.890625 45.40625 
Q 53.421875 45.40625 49.796875 41.765625 
Q 46.1875 38.140625 46.1875 30.125 
L 46.1875 0 
L 37.40625 0 
L 37.40625 33.6875 
Q 37.40625 39.546875 35.25 42.46875 
Q 33.109375 45.40625 28.21875 45.40625 
Q 24.515625 45.40625 21.359375 43.453125 
Q 18.21875 41.5 16.796875 37.734375 
Q 15.375 33.984375 15.375 26.90625 
L 15.375 0 
z
" id="ArialMT-109"/>
      <path d="M 42.09375 16.703125 
L 51.171875 15.578125 
Q 49.03125 7.625 43.21875 3.21875 
Q 37.40625 -1.171875 28.375 -1.171875 
Q 17 -1.171875 10.328125 5.828125 
Q 3.65625 12.84375 3.65625 25.484375 
Q 3.65625 38.578125 10.390625 45.796875 
Q 17.140625 53.03125 27.875 53.03125 
Q 38.28125 53.03125 44.875 45.953125 
Q 51.46875 38.875 51.46875 26.03125 
Q 51.46875 25.25 51.421875 23.6875 
L 12.75 23.6875 
Q 13.234375 15.140625 17.578125 10.59375 
Q 21.921875 6.0625 28.421875 6.0625 
Q 33.25 6.0625 36.671875 8.59375 
Q 40.09375 11.140625 42.09375 16.703125 
z
M 13.234375 30.90625 
L 42.1875 30.90625 
Q 41.609375 37.453125 38.875 40.71875 
Q 34.671875 45.796875 27.984375 45.796875 
Q 21.921875 45.796875 17.796875 41.75 
Q 13.671875 37.703125 13.234375 30.90625 
z
" id="ArialMT-101"/>
      <path id="ArialMT-32"/>
      <path d="M 40.4375 6.390625 
Q 35.546875 2.25 31.03125 0.53125 
Q 26.515625 -1.171875 21.34375 -1.171875 
Q 12.796875 -1.171875 8.203125 3 
Q 3.609375 7.171875 3.609375 13.671875 
Q 3.609375 17.484375 5.34375 20.625 
Q 7.078125 23.78125 9.890625 25.6875 
Q 12.703125 27.59375 16.21875 28.5625 
Q 18.796875 29.25 24.03125 29.890625 
Q 34.671875 31.15625 39.703125 32.90625 
Q 39.75 34.71875 39.75 35.203125 
Q 39.75 40.578125 37.25 42.78125 
Q 33.890625 45.75 27.25 45.75 
Q 21.046875 45.75 18.09375 43.578125 
Q 15.140625 41.40625 13.71875 35.890625 
L 5.125 37.0625 
Q 6.296875 42.578125 8.984375 45.96875 
Q 11.671875 49.359375 16.75 51.1875 
Q 21.828125 53.03125 28.515625 53.03125 
Q 35.15625 53.03125 39.296875 51.46875 
Q 43.453125 49.90625 45.40625 47.53125 
Q 47.359375 45.171875 48.140625 41.546875 
Q 48.578125 39.3125 48.578125 33.453125 
L 48.578125 21.734375 
Q 48.578125 9.46875 49.140625 6.21875 
Q 49.703125 2.984375 51.375 0 
L 42.1875 0 
Q 40.828125 2.734375 40.4375 6.390625 
z
M 39.703125 26.03125 
Q 34.90625 24.078125 25.34375 22.703125 
Q 19.921875 21.921875 17.671875 20.9375 
Q 15.4375 19.96875 14.203125 18.09375 
Q 12.984375 16.21875 12.984375 13.921875 
Q 12.984375 10.40625 15.640625 8.0625 
Q 18.3125 5.71875 23.4375 5.71875 
Q 28.515625 5.71875 32.46875 7.9375 
Q 36.421875 10.15625 38.28125 14.015625 
Q 39.703125 17 39.703125 22.796875 
z
" id="ArialMT-97"/>
      <path d="M 8.6875 0 
L 8.6875 45.015625 
L 0.921875 45.015625 
L 0.921875 51.859375 
L 8.6875 51.859375 
L 8.6875 57.375 
Q 8.6875 62.59375 9.625 65.140625 
Q 10.890625 68.5625 14.078125 70.671875 
Q 17.28125 72.796875 23.046875 72.796875 
Q 26.765625 72.796875 31.25 71.921875 
L 29.9375 64.265625 
Q 27.203125 64.75 24.75 64.75 
Q 20.75 64.75 19.09375 63.03125 
Q 17.4375 61.328125 17.4375 56.640625 
L 17.4375 51.859375 
L 27.546875 51.859375 
L 27.546875 45.015625 
L 17.4375 45.015625 
L 17.4375 0 
z
" id="ArialMT-102"/>
      <path d="M 25.78125 7.859375 
L 27.046875 0.09375 
Q 23.34375 -0.6875 20.40625 -0.6875 
Q 15.625 -0.6875 12.984375 0.828125 
Q 10.359375 2.34375 9.28125 4.8125 
Q 8.203125 7.28125 8.203125 15.1875 
L 8.203125 45.015625 
L 1.765625 45.015625 
L 1.765625 51.859375 
L 8.203125 51.859375 
L 8.203125 64.703125 
L 16.9375 69.96875 
L 16.9375 51.859375 
L 25.78125 51.859375 
L 25.78125 45.015625 
L 16.9375 45.015625 
L 16.9375 14.703125 
Q 16.9375 10.9375 17.40625 9.859375 
Q 17.875 8.796875 18.921875 8.15625 
Q 19.96875 7.515625 21.921875 7.515625 
Q 23.390625 7.515625 25.78125 7.859375 
z
" id="ArialMT-116"/>
      <path d="M 6.5 0 
L 6.5 51.859375 
L 14.40625 51.859375 
L 14.40625 44 
Q 17.4375 49.515625 20 51.265625 
Q 22.5625 53.03125 25.640625 53.03125 
Q 30.078125 53.03125 34.671875 50.203125 
L 31.640625 42.046875 
Q 28.421875 43.953125 25.203125 43.953125 
Q 22.3125 43.953125 20.015625 42.21875 
Q 17.71875 40.484375 16.75 37.40625 
Q 15.28125 32.71875 15.28125 27.15625 
L 15.28125 0 
z
" id="ArialMT-114"/>
      <path d="M 4.5 23 
L 13.421875 23.78125 
Q 14.0625 18.40625 16.375 14.96875 
Q 18.703125 11.53125 23.578125 9.40625 
Q 28.46875 7.28125 34.578125 7.28125 
Q 39.984375 7.28125 44.140625 8.890625 
Q 48.296875 10.5 50.3125 13.296875 
Q 52.34375 16.109375 52.34375 19.4375 
Q 52.34375 22.796875 50.390625 25.3125 
Q 48.4375 27.828125 43.953125 29.546875 
Q 41.0625 30.671875 31.203125 33.03125 
Q 21.34375 35.40625 17.390625 37.5 
Q 12.25 40.1875 9.734375 44.15625 
Q 7.234375 48.140625 7.234375 53.078125 
Q 7.234375 58.5 10.296875 63.203125 
Q 13.375 67.921875 19.28125 70.359375 
Q 25.203125 72.796875 32.421875 72.796875 
Q 40.375 72.796875 46.453125 70.234375 
Q 52.546875 67.671875 55.8125 62.6875 
Q 59.078125 57.71875 59.328125 51.421875 
L 50.25 50.734375 
Q 49.515625 57.515625 45.28125 60.984375 
Q 41.0625 64.453125 32.8125 64.453125 
Q 24.21875 64.453125 20.28125 61.296875 
Q 16.359375 58.15625 16.359375 53.71875 
Q 16.359375 49.859375 19.140625 47.359375 
Q 21.875 44.875 33.421875 42.265625 
Q 44.96875 39.65625 49.265625 37.703125 
Q 55.515625 34.8125 58.484375 30.390625 
Q 61.46875 25.984375 61.46875 20.21875 
Q 61.46875 14.5 58.203125 9.4375 
Q 54.9375 4.390625 48.796875 1.578125 
Q 42.671875 -1.21875 35.015625 -1.21875 
Q 25.296875 -1.21875 18.71875 1.609375 
Q 12.15625 4.4375 8.421875 10.125 
Q 4.6875 15.828125 4.5 23 
z
" id="ArialMT-83"/>
      <path d="M 3.328125 25.921875 
Q 3.328125 40.328125 11.328125 47.265625 
Q 18.015625 53.03125 27.640625 53.03125 
Q 38.328125 53.03125 45.109375 46.015625 
Q 51.90625 39.015625 51.90625 26.65625 
Q 51.90625 16.65625 48.90625 10.90625 
Q 45.90625 5.171875 40.15625 2 
Q 34.421875 -1.171875 27.640625 -1.171875 
Q 16.75 -1.171875 10.03125 5.8125 
Q 3.328125 12.796875 3.328125 25.921875 
z
M 12.359375 25.921875 
Q 12.359375 15.96875 16.703125 11.015625 
Q 21.046875 6.0625 27.640625 6.0625 
Q 34.1875 6.0625 38.53125 11.03125 
Q 42.875 16.015625 42.875 26.21875 
Q 42.875 35.84375 38.5 40.796875 
Q 34.125 45.75 27.640625 45.75 
Q 21.046875 45.75 16.703125 40.8125 
Q 12.359375 35.890625 12.359375 25.921875 
z
" id="ArialMT-111"/>
      <path d="M 6.390625 0 
L 6.390625 71.578125 
L 15.1875 71.578125 
L 15.1875 0 
z
" id="ArialMT-108"/>
      <path d="M 7.625 0 
L 7.625 71.578125 
L 17.328125 71.578125 
L 54.9375 15.375 
L 54.9375 71.578125 
L 64.015625 71.578125 
L 64.015625 0 
L 54.296875 0 
L 16.703125 56.25 
L 16.703125 0 
z
" id="ArialMT-78"/>
      <path d="M 6.59375 0 
L 6.59375 51.859375 
L 14.5 51.859375 
L 14.5 44.484375 
Q 20.21875 53.03125 31 53.03125 
Q 35.6875 53.03125 39.625 51.34375 
Q 43.5625 49.65625 45.515625 46.921875 
Q 47.46875 44.1875 48.25 40.4375 
Q 48.734375 37.984375 48.734375 31.890625 
L 48.734375 0 
L 39.9375 0 
L 39.9375 31.546875 
Q 39.9375 36.921875 38.90625 39.578125 
Q 37.890625 42.234375 35.28125 43.8125 
Q 32.671875 45.40625 29.15625 45.40625 
Q 23.53125 45.40625 19.453125 41.84375 
Q 15.375 38.28125 15.375 28.328125 
L 15.375 0 
z
" id="ArialMT-110"/>
      <path d="M 6.78125 -19.875 
L 6.78125 71.578125 
L 26.171875 71.578125 
L 26.171875 64.3125 
L 15.578125 64.3125 
L 15.578125 -12.59375 
L 26.171875 -12.59375 
L 26.171875 -19.875 
z
" id="ArialMT-91"/>
      <path d="M 6.59375 0 
L 6.59375 71.578125 
L 15.375 71.578125 
L 15.375 45.90625 
Q 21.53125 53.03125 30.90625 53.03125 
Q 36.671875 53.03125 40.921875 50.75 
Q 45.171875 48.484375 47 44.484375 
Q 48.828125 40.484375 48.828125 32.859375 
L 48.828125 0 
L 40.046875 0 
L 40.046875 32.859375 
Q 40.046875 39.453125 37.1875 42.453125 
Q 34.328125 45.453125 29.109375 45.453125 
Q 25.203125 45.453125 21.75 43.421875 
Q 18.3125 41.40625 16.84375 37.9375 
Q 15.375 34.46875 15.375 28.375 
L 15.375 0 
z
" id="ArialMT-104"/>
      <path d="M 40.578125 0 
L 40.578125 7.625 
Q 34.515625 -1.171875 24.125 -1.171875 
Q 19.53125 -1.171875 15.546875 0.578125 
Q 11.578125 2.34375 9.640625 5 
Q 7.71875 7.671875 6.9375 11.53125 
Q 6.390625 14.109375 6.390625 19.734375 
L 6.390625 51.859375 
L 15.1875 51.859375 
L 15.1875 23.09375 
Q 15.1875 16.21875 15.71875 13.8125 
Q 16.546875 10.359375 19.234375 8.375 
Q 21.921875 6.390625 25.875 6.390625 
Q 29.828125 6.390625 33.296875 8.421875 
Q 36.765625 10.453125 38.203125 13.9375 
Q 39.65625 17.4375 39.65625 24.078125 
L 39.65625 51.859375 
L 48.4375 51.859375 
L 48.4375 0 
z
" id="ArialMT-117"/>
      <path d="M 3.078125 15.484375 
L 11.765625 16.84375 
Q 12.5 11.625 15.84375 8.84375 
Q 19.1875 6.0625 25.203125 6.0625 
Q 31.25 6.0625 34.171875 8.515625 
Q 37.109375 10.984375 37.109375 14.3125 
Q 37.109375 17.28125 34.515625 19 
Q 32.71875 20.171875 25.53125 21.96875 
Q 15.875 24.421875 12.140625 26.203125 
Q 8.40625 27.984375 6.46875 31.125 
Q 4.546875 34.28125 4.546875 38.09375 
Q 4.546875 41.546875 6.125 44.5 
Q 7.71875 47.46875 10.453125 49.421875 
Q 12.5 50.921875 16.03125 51.96875 
Q 19.578125 53.03125 23.640625 53.03125 
Q 29.734375 53.03125 34.34375 51.265625 
Q 38.96875 49.515625 41.15625 46.5 
Q 43.359375 43.5 44.1875 38.484375 
L 35.59375 37.3125 
Q 35.015625 41.3125 32.203125 43.546875 
Q 29.390625 45.796875 24.265625 45.796875 
Q 18.21875 45.796875 15.625 43.796875 
Q 13.03125 41.796875 13.03125 39.109375 
Q 13.03125 37.40625 14.109375 36.03125 
Q 15.1875 34.625 17.484375 33.6875 
Q 18.796875 33.203125 25.25 31.453125 
Q 34.578125 28.953125 38.25 27.359375 
Q 41.9375 25.78125 44.03125 22.75 
Q 46.140625 19.734375 46.140625 15.234375 
Q 46.140625 10.84375 43.578125 6.953125 
Q 41.015625 3.078125 36.171875 0.953125 
Q 31.34375 -1.171875 25.25 -1.171875 
Q 15.140625 -1.171875 9.84375 3.03125 
Q 4.546875 7.234375 3.078125 15.484375 
z
" id="ArialMT-115"/>
      <path d="M 21.296875 -19.875 
L 1.90625 -19.875 
L 1.90625 -12.59375 
L 12.5 -12.59375 
L 12.5 64.3125 
L 1.90625 64.3125 
L 1.90625 71.578125 
L 21.296875 71.578125 
z
" id="ArialMT-93"/>
     </defs>
     <g style="fill:#262626;" transform="translate(239.25669 383.632969)scale(0.11 -0.11)">
      <use xlink:href="#ArialMT-84"/>
      <use x="61.037109" xlink:href="#ArialMT-105"/>
      <use x="83.253906" xlink:href="#ArialMT-109"/>
      <use x="166.554688" xlink:href="#ArialMT-101"/>
      <use x="222.169922" xlink:href="#ArialMT-32"/>
      <use x="249.953125" xlink:href="#ArialMT-97"/>
      <use x="305.568359" xlink:href="#ArialMT-102"/>
      <use x="333.351562" xlink:href="#ArialMT-116"/>
      <use x="361.134766" xlink:href="#ArialMT-101"/>
      <use x="416.75" xlink:href="#ArialMT-114"/>
      <use x="450.050781" xlink:href="#ArialMT-32"/>
      <use x="477.833984" xlink:href="#ArialMT-83"/>
      <use x="544.533203" xlink:href="#ArialMT-111"/>
      <use x="600.148438" xlink:href="#ArialMT-108"/>
      <use x="622.365234" xlink:href="#ArialMT-97"/>
      <use x="677.980469" xlink:href="#ArialMT-114"/>
      <use x="711.28125" xlink:href="#ArialMT-32"/>
      <use x="739.064453" xlink:href="#ArialMT-78"/>
      <use x="811.28125" xlink:href="#ArialMT-111"/>
      <use x="866.896484" xlink:href="#ArialMT-111"/>
      <use x="922.511719" xlink:href="#ArialMT-110"/>
      <use x="978.126953" xlink:href="#ArialMT-32"/>
      <use x="1005.910156" xlink:href="#ArialMT-91"/>
      <use x="1033.693359" xlink:href="#ArialMT-104"/>
      <use x="1089.308594" xlink:href="#ArialMT-111"/>
      <use x="1144.923828" xlink:href="#ArialMT-117"/>
      <use x="1200.539062" xlink:href="#ArialMT-114"/>
      <use x="1233.839844" xlink:href="#ArialMT-115"/>
      <use x="1283.839844" xlink:href="#ArialMT-93"/>
     </g>
    </g>
   </g>
   <g id="matplotlib.axis_2">
    <g id="ytick_1">
     <g id="line2d_13">
      <path clip-path="url(#pa1a91a5278)" d="M 59.78 337.145249 
L 563.001818 337.145249 
" style="fill:none;stroke:#ffffff;stroke-linecap:round;"/>
     </g>
     <g id="line2d_14"/>
     <g id="text_8">
      <!-- 20000 -->
      <g style="fill:#262626;" transform="translate(24.975313 340.724155)scale(0.1 -0.1)">
       <use xlink:href="#ArialMT-50"/>
       <use x="55.615234" xlink:href="#ArialMT-48"/>
       <use x="111.230469" xlink:href="#ArialMT-48"/>
       <use x="166.845703" xlink:href="#ArialMT-48"/>
       <use x="222.460938" xlink:href="#ArialMT-48"/>
      </g>
     </g>
    </g>
    <g id="ytick_2">
     <g id="line2d_15">
      <path clip-path="url(#pa1a91a5278)" d="M 59.78 292.790381 
L 563.001818 292.790381 
" style="fill:none;stroke:#ffffff;stroke-linecap:round;"/>
     </g>
     <g id="line2d_16"/>
     <g id="text_9">
      <!-- 22500 -->
      <g style="fill:#262626;" transform="translate(24.975313 296.369288)scale(0.1 -0.1)">
       <use xlink:href="#ArialMT-50"/>
       <use x="55.615234" xlink:href="#ArialMT-50"/>
       <use x="111.230469" xlink:href="#ArialMT-53"/>
       <use x="166.845703" xlink:href="#ArialMT-48"/>
       <use x="222.460938" xlink:href="#ArialMT-48"/>
      </g>
     </g>
    </g>
    <g id="ytick_3">
     <g id="line2d_17">
      <path clip-path="url(#pa1a91a5278)" d="M 59.78 248.435514 
L 563.001818 248.435514 
" style="fill:none;stroke:#ffffff;stroke-linecap:round;"/>
     </g>
     <g id="line2d_18"/>
     <g id="text_10">
      <!-- 25000 -->
      <g style="fill:#262626;" transform="translate(24.975313 252.01442)scale(0.1 -0.1)">
       <use xlink:href="#ArialMT-50"/>
       <use x="55.615234" xlink:href="#ArialMT-53"/>
       <use x="111.230469" xlink:href="#ArialMT-48"/>
       <use x="166.845703" xlink:href="#ArialMT-48"/>
       <use x="222.460938" xlink:href="#ArialMT-48"/>
      </g>
     </g>
    </g>
    <g id="ytick_4">
     <g id="line2d_19">
      <path clip-path="url(#pa1a91a5278)" d="M 59.78 204.080646 
L 563.001818 204.080646 
" style="fill:none;stroke:#ffffff;stroke-linecap:round;"/>
     </g>
     <g id="line2d_20"/>
     <g id="text_11">
      <!-- 27500 -->
      <defs>
       <path d="M 4.734375 62.203125 
L 4.734375 70.65625 
L 51.078125 70.65625 
L 51.078125 63.8125 
Q 44.234375 56.546875 37.515625 44.484375 
Q 30.8125 32.421875 27.15625 19.671875 
Q 24.515625 10.6875 23.78125 0 
L 14.75 0 
Q 14.890625 8.453125 18.0625 20.40625 
Q 21.234375 32.375 27.171875 43.484375 
Q 33.109375 54.59375 39.796875 62.203125 
z
" id="ArialMT-55"/>
      </defs>
      <g style="fill:#262626;" transform="translate(24.975313 207.659553)scale(0.1 -0.1)">
       <use xlink:href="#ArialMT-50"/>
       <use x="55.615234" xlink:href="#ArialMT-55"/>
       <use x="111.230469" xlink:href="#ArialMT-53"/>
       <use x="166.845703" xlink:href="#ArialMT-48"/>
       <use x="222.460938" xlink:href="#ArialMT-48"/>
      </g>
     </g>
    </g>
    <g id="ytick_5">
     <g id="line2d_21">
      <path clip-path="url(#pa1a91a5278)" d="M 59.78 159.725779 
L 563.001818 159.725779 
" style="fill:none;stroke:#ffffff;stroke-linecap:round;"/>
     </g>
     <g id="line2d_22"/>
     <g id="text_12">
      <!-- 30000 -->
      <defs>
       <path d="M 4.203125 18.890625 
L 12.984375 20.0625 
Q 14.5 12.59375 18.140625 9.296875 
Q 21.78125 6 27 6 
Q 33.203125 6 37.46875 10.296875 
Q 41.75 14.59375 41.75 20.953125 
Q 41.75 27 37.796875 30.921875 
Q 33.84375 34.859375 27.734375 34.859375 
Q 25.25 34.859375 21.53125 33.890625 
L 22.515625 41.609375 
Q 23.390625 41.5 23.921875 41.5 
Q 29.546875 41.5 34.03125 44.421875 
Q 38.53125 47.359375 38.53125 53.46875 
Q 38.53125 58.296875 35.25 61.46875 
Q 31.984375 64.65625 26.8125 64.65625 
Q 21.6875 64.65625 18.265625 61.421875 
Q 14.84375 58.203125 13.875 51.765625 
L 5.078125 53.328125 
Q 6.6875 62.15625 12.390625 67.015625 
Q 18.109375 71.875 26.609375 71.875 
Q 32.46875 71.875 37.390625 69.359375 
Q 42.328125 66.84375 44.9375 62.5 
Q 47.5625 58.15625 47.5625 53.265625 
Q 47.5625 48.640625 45.0625 44.828125 
Q 42.578125 41.015625 37.703125 38.765625 
Q 44.046875 37.3125 47.5625 32.6875 
Q 51.078125 28.078125 51.078125 21.140625 
Q 51.078125 11.765625 44.234375 5.25 
Q 37.40625 -1.265625 26.953125 -1.265625 
Q 17.53125 -1.265625 11.296875 4.34375 
Q 5.078125 9.96875 4.203125 18.890625 
z
" id="ArialMT-51"/>
      </defs>
      <g style="fill:#262626;" transform="translate(24.975313 163.304685)scale(0.1 -0.1)">
       <use xlink:href="#ArialMT-51"/>
       <use x="55.615234" xlink:href="#ArialMT-48"/>
       <use x="111.230469" xlink:href="#ArialMT-48"/>
       <use x="166.845703" xlink:href="#ArialMT-48"/>
       <use x="222.460938" xlink:href="#ArialMT-48"/>
      </g>
     </g>
    </g>
    <g id="ytick_6">
     <g id="line2d_23">
      <path clip-path="url(#pa1a91a5278)" d="M 59.78 115.370911 
L 563.001818 115.370911 
" style="fill:none;stroke:#ffffff;stroke-linecap:round;"/>
     </g>
     <g id="line2d_24"/>
     <g id="text_13">
      <!-- 32500 -->
      <g style="fill:#262626;" transform="translate(24.975313 118.949817)scale(0.1 -0.1)">
       <use xlink:href="#ArialMT-51"/>
       <use x="55.615234" xlink:href="#ArialMT-50"/>
       <use x="111.230469" xlink:href="#ArialMT-53"/>
       <use x="166.845703" xlink:href="#ArialMT-48"/>
       <use x="222.460938" xlink:href="#ArialMT-48"/>
      </g>
     </g>
    </g>
    <g id="ytick_7">
     <g id="line2d_25">
      <path clip-path="url(#pa1a91a5278)" d="M 59.78 71.016044 
L 563.001818 71.016044 
" style="fill:none;stroke:#ffffff;stroke-linecap:round;"/>
     </g>
     <g id="line2d_26"/>
     <g id="text_14">
      <!-- 35000 -->
      <g style="fill:#262626;" transform="translate(24.975313 74.59495)scale(0.1 -0.1)">
       <use xlink:href="#ArialMT-51"/>
       <use x="55.615234" xlink:href="#ArialMT-53"/>
       <use x="111.230469" xlink:href="#ArialMT-48"/>
       <use x="166.845703" xlink:href="#ArialMT-48"/>
       <use x="222.460938" xlink:href="#ArialMT-48"/>
      </g>
     </g>
    </g>
    <g id="ytick_8">
     <g id="line2d_27">
      <path clip-path="url(#pa1a91a5278)" d="M 59.78 26.661176 
L 563.001818 26.661176 
" style="fill:none;stroke:#ffffff;stroke-linecap:round;"/>
     </g>
     <g id="line2d_28"/>
     <g id="text_15">
      <!-- 37500 -->
      <g style="fill:#262626;" transform="translate(24.975313 30.240082)scale(0.1 -0.1)">
       <use xlink:href="#ArialMT-51"/>
       <use x="55.615234" xlink:href="#ArialMT-55"/>
       <use x="111.230469" xlink:href="#ArialMT-53"/>
       <use x="166.845703" xlink:href="#ArialMT-48"/>
       <use x="222.460938" xlink:href="#ArialMT-48"/>
      </g>
     </g>
    </g>
    <g id="text_16">
     <!-- Altitude [m] -->
     <defs>
      <path d="M -0.140625 0 
L 27.34375 71.578125 
L 37.546875 71.578125 
L 66.84375 0 
L 56.0625 0 
L 47.703125 21.6875 
L 17.78125 21.6875 
L 9.90625 0 
z
M 20.515625 29.390625 
L 44.78125 29.390625 
L 37.3125 49.21875 
Q 33.890625 58.25 32.234375 64.0625 
Q 30.859375 57.171875 28.375 50.390625 
z
" id="ArialMT-65"/>
      <path d="M 40.234375 0 
L 40.234375 6.546875 
Q 35.296875 -1.171875 25.734375 -1.171875 
Q 19.53125 -1.171875 14.328125 2.25 
Q 9.125 5.671875 6.265625 11.796875 
Q 3.421875 17.921875 3.421875 25.875 
Q 3.421875 33.640625 6 39.96875 
Q 8.59375 46.296875 13.765625 49.65625 
Q 18.953125 53.03125 25.34375 53.03125 
Q 30.03125 53.03125 33.6875 51.046875 
Q 37.359375 49.078125 39.65625 45.90625 
L 39.65625 71.578125 
L 48.390625 71.578125 
L 48.390625 0 
z
M 12.453125 25.875 
Q 12.453125 15.921875 16.640625 10.984375 
Q 20.84375 6.0625 26.5625 6.0625 
Q 32.328125 6.0625 36.34375 10.765625 
Q 40.375 15.484375 40.375 25.140625 
Q 40.375 35.796875 36.265625 40.765625 
Q 32.171875 45.75 26.171875 45.75 
Q 20.3125 45.75 16.375 40.96875 
Q 12.453125 36.1875 12.453125 25.875 
z
" id="ArialMT-100"/>
     </defs>
     <g style="fill:#262626;" transform="translate(18.789063 217.997578)rotate(-90)scale(0.11 -0.11)">
      <use xlink:href="#ArialMT-65"/>
      <use x="66.699219" xlink:href="#ArialMT-108"/>
      <use x="88.916016" xlink:href="#ArialMT-116"/>
      <use x="116.699219" xlink:href="#ArialMT-105"/>
      <use x="138.916016" xlink:href="#ArialMT-116"/>
      <use x="166.699219" xlink:href="#ArialMT-117"/>
      <use x="222.314453" xlink:href="#ArialMT-100"/>
      <use x="277.929688" xlink:href="#ArialMT-101"/>
      <use x="333.544922" xlink:href="#ArialMT-32"/>
      <use x="361.328125" xlink:href="#ArialMT-91"/>
      <use x="389.111328" xlink:href="#ArialMT-109"/>
      <use x="472.412109" xlink:href="#ArialMT-93"/>
     </g>
    </g>
   </g>
   <g id="line2d_29">
    <path clip-path="url(#pa1a91a5278)" d="M 82.653719 81.064179 
L 87.243763 77.834185 
L 93.363822 73.84808 
L 108.663968 64.075411 
L 116.314041 58.807136 
L 131.614188 48.020918 
L 136.204232 45.086668 
L 140.794276 42.438021 
L 142.32429 41.626243 
L 143.854305 41.01339 
L 145.38432 40.662801 
L 146.914334 40.495511 
L 148.444349 40.525165 
L 149.974364 40.743573 
L 151.504378 41.141439 
L 153.034393 41.711153 
L 154.564408 42.444466 
L 156.094422 43.334728 
L 157.624437 44.374674 
L 159.154451 45.701062 
L 162.214481 49.020426 
L 165.27451 52.790024 
L 168.334539 56.997279 
L 171.394569 61.635672 
L 174.454598 66.704308 
L 177.514627 72.207457 
L 180.574657 78.154147 
L 183.634686 84.557828 
L 186.694715 91.436122 
L 189.754744 98.810684 
L 192.814774 106.707194 
L 195.874803 115.155533 
L 198.934832 124.19021 
L 201.994862 133.85118 
L 205.054891 144.186692 
L 209.644935 160.168302 
L 212.704964 170.102855 
L 215.764994 179.500632 
L 220.355037 192.720871 
L 224.945081 205.030566 
L 229.535125 216.556639 
L 234.125169 227.398923 
L 238.715213 237.638973 
L 243.305257 247.343255 
L 247.895301 256.567886 
L 252.485345 265.359768 
L 257.075389 273.759496 
L 263.195448 284.408309 
L 269.315506 294.491393 
L 275.435565 304.06786 
L 281.555623 313.187951 
L 287.675682 321.89477 
L 290.735711 325.990903 
L 293.795741 329.60728 
L 296.85577 332.715632 
L 299.915799 335.316746 
L 302.975829 337.405354 
L 304.505843 338.254019 
L 306.035858 338.969673 
L 307.565872 339.549542 
L 309.095887 339.990656 
L 310.625902 340.289176 
L 312.155916 340.442078 
L 316.74596 340.480739 
L 428.43703 340.385943 
L 429.967044 340.103274 
L 431.497059 339.511878 
L 433.027074 338.64439 
L 434.557088 337.503888 
L 436.087103 336.086818 
L 437.617118 334.408266 
L 439.147132 332.468215 
L 440.677147 330.278618 
L 442.207162 327.841631 
L 443.737176 325.167365 
L 446.797206 319.126905 
L 449.857235 312.210699 
L 452.917264 304.474419 
L 455.977293 295.976391 
L 459.037323 286.778265 
L 462.097352 276.945925 
L 465.157381 266.410617 
L 469.747425 249.09106 
L 475.867484 224.824002 
L 485.047572 187.847503 
L 488.107601 176.593781 
L 491.16763 166.092687 
L 494.22766 156.342781 
L 497.287689 147.335269 
L 500.347718 139.054059 
L 503.407748 131.476084 
L 506.467777 124.571892 
L 509.527806 118.306453 
L 512.587835 112.640115 
L 515.647865 107.529662 
L 518.707894 102.929375 
L 521.767923 98.792054 
L 524.827953 95.069937 
L 527.887982 91.715497 
L 530.948011 88.682081 
L 534.008041 85.924412 
L 537.06807 83.398955 
L 540.128099 81.064179 
L 540.128099 81.064179 
" style="fill:none;stroke:#4c72b0;stroke-linecap:round;stroke-width:1.75;"/>
    <defs>
     <path d="M 0 1.75 
C 0.464105 1.75 0.909265 1.565609 1.237437 1.237437 
C 1.565609 0.909265 1.75 0.464105 1.75 0 
C 1.75 -0.464105 1.565609 -0.909265 1.237437 -1.237437 
C 0.909265 -1.565609 0.464105 -1.75 0 -1.75 
C -0.464105 -1.75 -0.909265 -1.565609 -1.237437 -1.237437 
C -1.565609 -0.909265 -1.75 -0.464105 -1.75 0 
C -1.75 0.464105 -1.565609 0.909265 -1.237437 1.237437 
C -0.909265 1.565609 -0.464105 1.75 0 1.75 
z
" id="m7a603bde73"/>
    </defs>
    <g clip-path="url(#pa1a91a5278)">
     <use style="fill:#4c72b0;" x="82.653719" xlink:href="#m7a603bde73" y="81.064179"/>
     <use style="fill:#4c72b0;" x="84.183734" xlink:href="#m7a603bde73" y="79.955948"/>
     <use style="fill:#4c72b0;" x="85.713748" xlink:href="#m7a603bde73" y="78.880753"/>
     <use style="fill:#4c72b0;" x="87.243763" xlink:href="#m7a603bde73" y="77.834185"/>
     <use style="fill:#4c72b0;" x="88.773778" xlink:href="#m7a603bde73" y="76.811707"/>
     <use style="fill:#4c72b0;" x="90.303792" xlink:href="#m7a603bde73" y="75.809254"/>
     <use style="fill:#4c72b0;" x="91.833807" xlink:href="#m7a603bde73" y="74.82261"/>
     <use style="fill:#4c72b0;" x="93.363822" xlink:href="#m7a603bde73" y="73.84808"/>
     <use style="fill:#4c72b0;" x="94.893836" xlink:href="#m7a603bde73" y="72.881814"/>
     <use style="fill:#4c72b0;" x="96.423851" xlink:href="#m7a603bde73" y="71.920534"/>
     <use style="fill:#4c72b0;" x="97.953866" xlink:href="#m7a603bde73" y="70.960811"/>
     <use style="fill:#4c72b0;" x="99.48388" xlink:href="#m7a603bde73" y="69.999856"/>
     <use style="fill:#4c72b0;" x="101.013895" xlink:href="#m7a603bde73" y="69.034736"/>
     <use style="fill:#4c72b0;" x="102.543909" xlink:href="#m7a603bde73" y="68.063243"/>
     <use style="fill:#4c72b0;" x="104.073924" xlink:href="#m7a603bde73" y="67.083036"/>
     <use style="fill:#4c72b0;" x="105.603939" xlink:href="#m7a603bde73" y="66.092599"/>
     <use style="fill:#4c72b0;" x="107.133953" xlink:href="#m7a603bde73" y="65.090291"/>
     <use style="fill:#4c72b0;" x="108.663968" xlink:href="#m7a603bde73" y="64.075411"/>
     <use style="fill:#4c72b0;" x="110.193983" xlink:href="#m7a603bde73" y="63.047127"/>
     <use style="fill:#4c72b0;" x="111.723997" xlink:href="#m7a603bde73" y="62.00566"/>
     <use style="fill:#4c72b0;" x="113.254012" xlink:href="#m7a603bde73" y="60.951067"/>
     <use style="fill:#4c72b0;" x="114.784027" xlink:href="#m7a603bde73" y="59.884569"/>
     <use style="fill:#4c72b0;" x="116.314041" xlink:href="#m7a603bde73" y="58.807136"/>
     <use style="fill:#4c72b0;" x="117.844056" xlink:href="#m7a603bde73" y="57.720991"/>
     <use style="fill:#4c72b0;" x="119.374071" xlink:href="#m7a603bde73" y="56.627959"/>
     <use style="fill:#4c72b0;" x="120.904085" xlink:href="#m7a603bde73" y="55.53117"/>
     <use style="fill:#4c72b0;" x="122.4341" xlink:href="#m7a603bde73" y="54.433148"/>
     <use style="fill:#4c72b0;" x="123.964115" xlink:href="#m7a603bde73" y="53.337723"/>
     <use style="fill:#4c72b0;" x="125.494129" xlink:href="#m7a603bde73" y="52.247871"/>
     <use style="fill:#4c72b0;" x="127.024144" xlink:href="#m7a603bde73" y="51.16782"/>
     <use style="fill:#4c72b0;" x="128.554158" xlink:href="#m7a603bde73" y="50.100686"/>
     <use style="fill:#4c72b0;" x="130.084173" xlink:href="#m7a603bde73" y="49.050736"/>
     <use style="fill:#4c72b0;" x="131.614188" xlink:href="#m7a603bde73" y="48.020918"/>
     <use style="fill:#4c72b0;" x="133.144202" xlink:href="#m7a603bde73" y="47.015157"/>
     <use style="fill:#4c72b0;" x="134.674217" xlink:href="#m7a603bde73" y="46.03599"/>
     <use style="fill:#4c72b0;" x="136.204232" xlink:href="#m7a603bde73" y="45.086668"/>
     <use style="fill:#4c72b0;" x="137.734246" xlink:href="#m7a603bde73" y="44.169175"/>
     <use style="fill:#4c72b0;" x="139.264261" xlink:href="#m7a603bde73" y="43.285831"/>
     <use style="fill:#4c72b0;" x="140.794276" xlink:href="#m7a603bde73" y="42.438021"/>
     <use style="fill:#4c72b0;" x="142.32429" xlink:href="#m7a603bde73" y="41.626243"/>
     <use style="fill:#4c72b0;" x="143.854305" xlink:href="#m7a603bde73" y="41.01339"/>
     <use style="fill:#4c72b0;" x="145.38432" xlink:href="#m7a603bde73" y="40.662801"/>
     <use style="fill:#4c72b0;" x="146.914334" xlink:href="#m7a603bde73" y="40.495511"/>
     <use style="fill:#4c72b0;" x="148.444349" xlink:href="#m7a603bde73" y="40.525165"/>
     <use style="fill:#4c72b0;" x="149.974364" xlink:href="#m7a603bde73" y="40.743573"/>
     <use style="fill:#4c72b0;" x="151.504378" xlink:href="#m7a603bde73" y="41.141439"/>
     <use style="fill:#4c72b0;" x="153.034393" xlink:href="#m7a603bde73" y="41.711153"/>
     <use style="fill:#4c72b0;" x="154.564408" xlink:href="#m7a603bde73" y="42.444466"/>
     <use style="fill:#4c72b0;" x="156.094422" xlink:href="#m7a603bde73" y="43.334728"/>
     <use style="fill:#4c72b0;" x="157.624437" xlink:href="#m7a603bde73" y="44.374674"/>
     <use style="fill:#4c72b0;" x="159.154451" xlink:href="#m7a603bde73" y="45.701062"/>
     <use style="fill:#4c72b0;" x="160.684466" xlink:href="#m7a603bde73" y="47.303204"/>
     <use style="fill:#4c72b0;" x="162.214481" xlink:href="#m7a603bde73" y="49.020426"/>
     <use style="fill:#4c72b0;" x="163.744495" xlink:href="#m7a603bde73" y="50.849692"/>
     <use style="fill:#4c72b0;" x="165.27451" xlink:href="#m7a603bde73" y="52.790024"/>
     <use style="fill:#4c72b0;" x="166.804525" xlink:href="#m7a603bde73" y="54.839334"/>
     <use style="fill:#4c72b0;" x="168.334539" xlink:href="#m7a603bde73" y="56.997279"/>
     <use style="fill:#4c72b0;" x="169.864554" xlink:href="#m7a603bde73" y="59.262631"/>
     <use style="fill:#4c72b0;" x="171.394569" xlink:href="#m7a603bde73" y="61.635672"/>
     <use style="fill:#4c72b0;" x="172.924583" xlink:href="#m7a603bde73" y="64.115936"/>
     <use style="fill:#4c72b0;" x="174.454598" xlink:href="#m7a603bde73" y="66.704308"/>
     <use style="fill:#4c72b0;" x="175.984613" xlink:href="#m7a603bde73" y="69.400994"/>
     <use style="fill:#4c72b0;" x="177.514627" xlink:href="#m7a603bde73" y="72.207457"/>
     <use style="fill:#4c72b0;" x="179.044642" xlink:href="#m7a603bde73" y="75.124502"/>
     <use style="fill:#4c72b0;" x="180.574657" xlink:href="#m7a603bde73" y="78.154147"/>
     <use style="fill:#4c72b0;" x="182.104671" xlink:href="#m7a603bde73" y="81.297737"/>
     <use style="fill:#4c72b0;" x="183.634686" xlink:href="#m7a603bde73" y="84.557828"/>
     <use style="fill:#4c72b0;" x="185.164701" xlink:href="#m7a603bde73" y="87.936261"/>
     <use style="fill:#4c72b0;" x="186.694715" xlink:href="#m7a603bde73" y="91.436122"/>
     <use style="fill:#4c72b0;" x="188.22473" xlink:href="#m7a603bde73" y="95.059722"/>
     <use style="fill:#4c72b0;" x="189.754744" xlink:href="#m7a603bde73" y="98.810684"/>
     <use style="fill:#4c72b0;" x="191.284759" xlink:href="#m7a603bde73" y="102.691779"/>
     <use style="fill:#4c72b0;" x="192.814774" xlink:href="#m7a603bde73" y="106.707194"/>
     <use style="fill:#4c72b0;" x="194.344788" xlink:href="#m7a603bde73" y="110.860177"/>
     <use style="fill:#4c72b0;" x="195.874803" xlink:href="#m7a603bde73" y="115.155533"/>
     <use style="fill:#4c72b0;" x="197.404818" xlink:href="#m7a603bde73" y="119.597035"/>
     <use style="fill:#4c72b0;" x="198.934832" xlink:href="#m7a603bde73" y="124.19021"/>
     <use style="fill:#4c72b0;" x="200.464847" xlink:href="#m7a603bde73" y="128.939447"/>
     <use style="fill:#4c72b0;" x="201.994862" xlink:href="#m7a603bde73" y="133.85118"/>
     <use style="fill:#4c72b0;" x="203.524876" xlink:href="#m7a603bde73" y="138.912053"/>
     <use style="fill:#4c72b0;" x="205.054891" xlink:href="#m7a603bde73" y="144.186692"/>
     <use style="fill:#4c72b0;" x="206.584906" xlink:href="#m7a603bde73" y="149.622481"/>
     <use style="fill:#4c72b0;" x="208.11492" xlink:href="#m7a603bde73" y="154.977298"/>
     <use style="fill:#4c72b0;" x="209.644935" xlink:href="#m7a603bde73" y="160.168302"/>
     <use style="fill:#4c72b0;" x="211.17495" xlink:href="#m7a603bde73" y="165.207133"/>
     <use style="fill:#4c72b0;" x="212.704964" xlink:href="#m7a603bde73" y="170.102855"/>
     <use style="fill:#4c72b0;" x="214.234979" xlink:href="#m7a603bde73" y="174.864926"/>
     <use style="fill:#4c72b0;" x="215.764994" xlink:href="#m7a603bde73" y="179.500632"/>
     <use style="fill:#4c72b0;" x="217.295008" xlink:href="#m7a603bde73" y="184.01779"/>
     <use style="fill:#4c72b0;" x="218.825023" xlink:href="#m7a603bde73" y="188.422353"/>
     <use style="fill:#4c72b0;" x="220.355037" xlink:href="#m7a603bde73" y="192.720871"/>
     <use style="fill:#4c72b0;" x="221.885052" xlink:href="#m7a603bde73" y="196.918278"/>
     <use style="fill:#4c72b0;" x="223.415067" xlink:href="#m7a603bde73" y="201.02013"/>
     <use style="fill:#4c72b0;" x="224.945081" xlink:href="#m7a603bde73" y="205.030566"/>
     <use style="fill:#4c72b0;" x="226.475096" xlink:href="#m7a603bde73" y="208.954354"/>
     <use style="fill:#4c72b0;" x="228.005111" xlink:href="#m7a603bde73" y="212.795002"/>
     <use style="fill:#4c72b0;" x="229.535125" xlink:href="#m7a603bde73" y="216.556639"/>
     <use style="fill:#4c72b0;" x="231.06514" xlink:href="#m7a603bde73" y="220.24227"/>
     <use style="fill:#4c72b0;" x="232.595155" xlink:href="#m7a603bde73" y="223.855499"/>
     <use style="fill:#4c72b0;" x="234.125169" xlink:href="#m7a603bde73" y="227.398923"/>
     <use style="fill:#4c72b0;" x="235.655184" xlink:href="#m7a603bde73" y="230.875712"/>
     <use style="fill:#4c72b0;" x="237.185199" xlink:href="#m7a603bde73" y="234.288126"/>
     <use style="fill:#4c72b0;" x="238.715213" xlink:href="#m7a603bde73" y="237.638973"/>
     <use style="fill:#4c72b0;" x="240.245228" xlink:href="#m7a603bde73" y="240.930235"/>
     <use style="fill:#4c72b0;" x="241.775243" xlink:href="#m7a603bde73" y="244.164414"/>
     <use style="fill:#4c72b0;" x="243.305257" xlink:href="#m7a603bde73" y="247.343255"/>
     <use style="fill:#4c72b0;" x="244.835272" xlink:href="#m7a603bde73" y="250.469004"/>
     <use style="fill:#4c72b0;" x="246.365286" xlink:href="#m7a603bde73" y="253.543206"/>
     <use style="fill:#4c72b0;" x="247.895301" xlink:href="#m7a603bde73" y="256.567886"/>
     <use style="fill:#4c72b0;" x="249.425316" xlink:href="#m7a603bde73" y="259.544417"/>
     <use style="fill:#4c72b0;" x="250.95533" xlink:href="#m7a603bde73" y="262.474636"/>
     <use style="fill:#4c72b0;" x="252.485345" xlink:href="#m7a603bde73" y="265.359768"/>
     <use style="fill:#4c72b0;" x="254.01536" xlink:href="#m7a603bde73" y="268.201485"/>
     <use style="fill:#4c72b0;" x="255.545374" xlink:href="#m7a603bde73" y="271.000884"/>
     <use style="fill:#4c72b0;" x="257.075389" xlink:href="#m7a603bde73" y="273.759496"/>
     <use style="fill:#4c72b0;" x="258.605404" xlink:href="#m7a603bde73" y="276.478306"/>
     <use style="fill:#4c72b0;" x="260.135418" xlink:href="#m7a603bde73" y="279.158719"/>
     <use style="fill:#4c72b0;" x="261.665433" xlink:href="#m7a603bde73" y="281.80162"/>
     <use style="fill:#4c72b0;" x="263.195448" xlink:href="#m7a603bde73" y="284.408309"/>
     <use style="fill:#4c72b0;" x="264.725462" xlink:href="#m7a603bde73" y="286.979581"/>
     <use style="fill:#4c72b0;" x="266.255477" xlink:href="#m7a603bde73" y="289.51664"/>
     <use style="fill:#4c72b0;" x="267.785492" xlink:href="#m7a603bde73" y="292.020204"/>
     <use style="fill:#4c72b0;" x="269.315506" xlink:href="#m7a603bde73" y="294.491393"/>
     <use style="fill:#4c72b0;" x="270.845521" xlink:href="#m7a603bde73" y="296.930852"/>
     <use style="fill:#4c72b0;" x="272.375536" xlink:href="#m7a603bde73" y="299.339628"/>
     <use style="fill:#4c72b0;" x="273.90555" xlink:href="#m7a603bde73" y="301.718304"/>
     <use style="fill:#4c72b0;" x="275.435565" xlink:href="#m7a603bde73" y="304.06786"/>
     <use style="fill:#4c72b0;" x="276.965579" xlink:href="#m7a603bde73" y="306.388821"/>
     <use style="fill:#4c72b0;" x="278.495594" xlink:href="#m7a603bde73" y="308.682109"/>
     <use style="fill:#4c72b0;" x="280.025609" xlink:href="#m7a603bde73" y="310.948195"/>
     <use style="fill:#4c72b0;" x="281.555623" xlink:href="#m7a603bde73" y="313.187951"/>
     <use style="fill:#4c72b0;" x="283.085638" xlink:href="#m7a603bde73" y="315.401799"/>
     <use style="fill:#4c72b0;" x="284.615653" xlink:href="#m7a603bde73" y="317.590565"/>
     <use style="fill:#4c72b0;" x="286.145667" xlink:href="#m7a603bde73" y="319.754627"/>
     <use style="fill:#4c72b0;" x="287.675682" xlink:href="#m7a603bde73" y="321.89477"/>
     <use style="fill:#4c72b0;" x="289.205697" xlink:href="#m7a603bde73" y="323.990919"/>
     <use style="fill:#4c72b0;" x="290.735711" xlink:href="#m7a603bde73" y="325.990903"/>
     <use style="fill:#4c72b0;" x="292.265726" xlink:href="#m7a603bde73" y="327.862833"/>
     <use style="fill:#4c72b0;" x="293.795741" xlink:href="#m7a603bde73" y="329.60728"/>
     <use style="fill:#4c72b0;" x="295.325755" xlink:href="#m7a603bde73" y="331.224734"/>
     <use style="fill:#4c72b0;" x="296.85577" xlink:href="#m7a603bde73" y="332.715632"/>
     <use style="fill:#4c72b0;" x="298.385785" xlink:href="#m7a603bde73" y="334.079739"/>
     <use style="fill:#4c72b0;" x="299.915799" xlink:href="#m7a603bde73" y="335.316746"/>
     <use style="fill:#4c72b0;" x="301.445814" xlink:href="#m7a603bde73" y="336.425651"/>
     <use style="fill:#4c72b0;" x="302.975829" xlink:href="#m7a603bde73" y="337.405354"/>
     <use style="fill:#4c72b0;" x="304.505843" xlink:href="#m7a603bde73" y="338.254019"/>
     <use style="fill:#4c72b0;" x="306.035858" xlink:href="#m7a603bde73" y="338.969673"/>
     <use style="fill:#4c72b0;" x="307.565872" xlink:href="#m7a603bde73" y="339.549542"/>
     <use style="fill:#4c72b0;" x="309.095887" xlink:href="#m7a603bde73" y="339.990656"/>
     <use style="fill:#4c72b0;" x="310.625902" xlink:href="#m7a603bde73" y="340.289176"/>
     <use style="fill:#4c72b0;" x="312.155916" xlink:href="#m7a603bde73" y="340.442078"/>
     <use style="fill:#4c72b0;" x="313.685931" xlink:href="#m7a603bde73" y="340.480739"/>
     <use style="fill:#4c72b0;" x="315.215946" xlink:href="#m7a603bde73" y="340.480739"/>
     <use style="fill:#4c72b0;" x="316.74596" xlink:href="#m7a603bde73" y="340.480739"/>
     <use style="fill:#4c72b0;" x="318.275975" xlink:href="#m7a603bde73" y="340.480739"/>
     <use style="fill:#4c72b0;" x="319.80599" xlink:href="#m7a603bde73" y="340.480739"/>
     <use style="fill:#4c72b0;" x="321.336004" xlink:href="#m7a603bde73" y="340.480739"/>
     <use style="fill:#4c72b0;" x="322.866019" xlink:href="#m7a603bde73" y="340.480739"/>
     <use style="fill:#4c72b0;" x="324.396034" xlink:href="#m7a603bde73" y="340.480739"/>
     <use style="fill:#4c72b0;" x="325.926048" xlink:href="#m7a603bde73" y="340.480739"/>
     <use style="fill:#4c72b0;" x="327.456063" xlink:href="#m7a603bde73" y="340.480739"/>
     <use style="fill:#4c72b0;" x="328.986078" xlink:href="#m7a603bde73" y="340.480739"/>
     <use style="fill:#4c72b0;" x="330.516092" xlink:href="#m7a603bde73" y="340.480739"/>
     <use style="fill:#4c72b0;" x="332.046107" xlink:href="#m7a603bde73" y="340.480739"/>
     <use style="fill:#4c72b0;" x="333.576122" xlink:href="#m7a603bde73" y="340.480739"/>
     <use style="fill:#4c72b0;" x="335.106136" xlink:href="#m7a603bde73" y="340.480739"/>
     <use style="fill:#4c72b0;" x="336.636151" xlink:href="#m7a603bde73" y="340.480739"/>
     <use style="fill:#4c72b0;" x="338.166165" xlink:href="#m7a603bde73" y="340.480739"/>
     <use style="fill:#4c72b0;" x="339.69618" xlink:href="#m7a603bde73" y="340.480739"/>
     <use style="fill:#4c72b0;" x="341.226195" xlink:href="#m7a603bde73" y="340.480739"/>
     <use style="fill:#4c72b0;" x="342.756209" xlink:href="#m7a603bde73" y="340.480739"/>
     <use style="fill:#4c72b0;" x="344.286224" xlink:href="#m7a603bde73" y="340.480739"/>
     <use style="fill:#4c72b0;" x="345.816239" xlink:href="#m7a603bde73" y="340.480739"/>
     <use style="fill:#4c72b0;" x="347.346253" xlink:href="#m7a603bde73" y="340.480739"/>
     <use style="fill:#4c72b0;" x="348.876268" xlink:href="#m7a603bde73" y="340.480739"/>
     <use style="fill:#4c72b0;" x="350.406283" xlink:href="#m7a603bde73" y="340.480738"/>
     <use style="fill:#4c72b0;" x="351.936297" xlink:href="#m7a603bde73" y="340.480739"/>
     <use style="fill:#4c72b0;" x="353.466312" xlink:href="#m7a603bde73" y="340.480738"/>
     <use style="fill:#4c72b0;" x="354.996327" xlink:href="#m7a603bde73" y="340.480739"/>
     <use style="fill:#4c72b0;" x="356.526341" xlink:href="#m7a603bde73" y="340.480738"/>
     <use style="fill:#4c72b0;" x="358.056356" xlink:href="#m7a603bde73" y="340.480739"/>
     <use style="fill:#4c72b0;" x="359.586371" xlink:href="#m7a603bde73" y="340.480738"/>
     <use style="fill:#4c72b0;" x="361.116385" xlink:href="#m7a603bde73" y="340.480739"/>
     <use style="fill:#4c72b0;" x="362.6464" xlink:href="#m7a603bde73" y="340.480736"/>
     <use style="fill:#4c72b0;" x="364.176414" xlink:href="#m7a603bde73" y="340.480739"/>
     <use style="fill:#4c72b0;" x="365.706429" xlink:href="#m7a603bde73" y="340.480724"/>
     <use style="fill:#4c72b0;" x="367.236444" xlink:href="#m7a603bde73" y="340.480739"/>
     <use style="fill:#4c72b0;" x="368.766458" xlink:href="#m7a603bde73" y="340.480681"/>
     <use style="fill:#4c72b0;" x="370.296473" xlink:href="#m7a603bde73" y="340.480739"/>
     <use style="fill:#4c72b0;" x="371.826488" xlink:href="#m7a603bde73" y="340.48067"/>
     <use style="fill:#4c72b0;" x="373.356502" xlink:href="#m7a603bde73" y="340.480739"/>
     <use style="fill:#4c72b0;" x="374.886517" xlink:href="#m7a603bde73" y="340.480659"/>
     <use style="fill:#4c72b0;" x="376.416532" xlink:href="#m7a603bde73" y="340.480739"/>
     <use style="fill:#4c72b0;" x="377.946546" xlink:href="#m7a603bde73" y="340.480648"/>
     <use style="fill:#4c72b0;" x="379.476561" xlink:href="#m7a603bde73" y="340.480739"/>
     <use style="fill:#4c72b0;" x="381.006576" xlink:href="#m7a603bde73" y="340.480636"/>
     <use style="fill:#4c72b0;" x="382.53659" xlink:href="#m7a603bde73" y="340.480739"/>
     <use style="fill:#4c72b0;" x="384.066605" xlink:href="#m7a603bde73" y="340.480624"/>
     <use style="fill:#4c72b0;" x="385.59662" xlink:href="#m7a603bde73" y="340.480739"/>
     <use style="fill:#4c72b0;" x="387.126634" xlink:href="#m7a603bde73" y="340.480611"/>
     <use style="fill:#4c72b0;" x="388.656649" xlink:href="#m7a603bde73" y="340.480739"/>
     <use style="fill:#4c72b0;" x="390.186664" xlink:href="#m7a603bde73" y="340.480597"/>
     <use style="fill:#4c72b0;" x="391.716678" xlink:href="#m7a603bde73" y="340.480739"/>
     <use style="fill:#4c72b0;" x="393.246693" xlink:href="#m7a603bde73" y="340.480583"/>
     <use style="fill:#4c72b0;" x="394.776707" xlink:href="#m7a603bde73" y="340.480739"/>
     <use style="fill:#4c72b0;" x="396.306722" xlink:href="#m7a603bde73" y="340.480567"/>
     <use style="fill:#4c72b0;" x="397.836737" xlink:href="#m7a603bde73" y="340.480739"/>
     <use style="fill:#4c72b0;" x="399.366751" xlink:href="#m7a603bde73" y="340.480551"/>
     <use style="fill:#4c72b0;" x="400.896766" xlink:href="#m7a603bde73" y="340.480739"/>
     <use style="fill:#4c72b0;" x="402.426781" xlink:href="#m7a603bde73" y="340.480534"/>
     <use style="fill:#4c72b0;" x="403.956795" xlink:href="#m7a603bde73" y="340.480739"/>
     <use style="fill:#4c72b0;" x="405.48681" xlink:href="#m7a603bde73" y="340.480517"/>
     <use style="fill:#4c72b0;" x="407.016825" xlink:href="#m7a603bde73" y="340.480739"/>
     <use style="fill:#4c72b0;" x="408.546839" xlink:href="#m7a603bde73" y="340.480495"/>
     <use style="fill:#4c72b0;" x="410.076854" xlink:href="#m7a603bde73" y="340.480739"/>
     <use style="fill:#4c72b0;" x="411.606869" xlink:href="#m7a603bde73" y="340.48049"/>
     <use style="fill:#4c72b0;" x="413.136883" xlink:href="#m7a603bde73" y="340.480739"/>
     <use style="fill:#4c72b0;" x="414.666898" xlink:href="#m7a603bde73" y="340.480712"/>
     <use style="fill:#4c72b0;" x="416.196913" xlink:href="#m7a603bde73" y="340.480739"/>
     <use style="fill:#4c72b0;" x="417.726927" xlink:href="#m7a603bde73" y="340.480507"/>
     <use style="fill:#4c72b0;" x="419.256942" xlink:href="#m7a603bde73" y="340.480739"/>
     <use style="fill:#4c72b0;" x="420.786957" xlink:href="#m7a603bde73" y="340.480738"/>
     <use style="fill:#4c72b0;" x="422.316971" xlink:href="#m7a603bde73" y="340.480739"/>
     <use style="fill:#4c72b0;" x="423.846986" xlink:href="#m7a603bde73" y="340.47268"/>
     <use style="fill:#4c72b0;" x="425.377" xlink:href="#m7a603bde73" y="340.480739"/>
     <use style="fill:#4c72b0;" x="426.907015" xlink:href="#m7a603bde73" y="340.480739"/>
     <use style="fill:#4c72b0;" x="428.43703" xlink:href="#m7a603bde73" y="340.385943"/>
     <use style="fill:#4c72b0;" x="429.967044" xlink:href="#m7a603bde73" y="340.103274"/>
     <use style="fill:#4c72b0;" x="431.497059" xlink:href="#m7a603bde73" y="339.511878"/>
     <use style="fill:#4c72b0;" x="433.027074" xlink:href="#m7a603bde73" y="338.64439"/>
     <use style="fill:#4c72b0;" x="434.557088" xlink:href="#m7a603bde73" y="337.503888"/>
     <use style="fill:#4c72b0;" x="436.087103" xlink:href="#m7a603bde73" y="336.086818"/>
     <use style="fill:#4c72b0;" x="437.617118" xlink:href="#m7a603bde73" y="334.408266"/>
     <use style="fill:#4c72b0;" x="439.147132" xlink:href="#m7a603bde73" y="332.468215"/>
     <use style="fill:#4c72b0;" x="440.677147" xlink:href="#m7a603bde73" y="330.278618"/>
     <use style="fill:#4c72b0;" x="442.207162" xlink:href="#m7a603bde73" y="327.841631"/>
     <use style="fill:#4c72b0;" x="443.737176" xlink:href="#m7a603bde73" y="325.167365"/>
     <use style="fill:#4c72b0;" x="445.267191" xlink:href="#m7a603bde73" y="322.259399"/>
     <use style="fill:#4c72b0;" x="446.797206" xlink:href="#m7a603bde73" y="319.126905"/>
     <use style="fill:#4c72b0;" x="448.32722" xlink:href="#m7a603bde73" y="315.774422"/>
     <use style="fill:#4c72b0;" x="449.857235" xlink:href="#m7a603bde73" y="312.210699"/>
     <use style="fill:#4c72b0;" x="451.38725" xlink:href="#m7a603bde73" y="308.441201"/>
     <use style="fill:#4c72b0;" x="452.917264" xlink:href="#m7a603bde73" y="304.474419"/>
     <use style="fill:#4c72b0;" x="454.447279" xlink:href="#m7a603bde73" y="300.316655"/>
     <use style="fill:#4c72b0;" x="455.977293" xlink:href="#m7a603bde73" y="295.976391"/>
     <use style="fill:#4c72b0;" x="457.507308" xlink:href="#m7a603bde73" y="291.46075"/>
     <use style="fill:#4c72b0;" x="459.037323" xlink:href="#m7a603bde73" y="286.778265"/>
     <use style="fill:#4c72b0;" x="460.567337" xlink:href="#m7a603bde73" y="281.936967"/>
     <use style="fill:#4c72b0;" x="462.097352" xlink:href="#m7a603bde73" y="276.945925"/>
     <use style="fill:#4c72b0;" x="463.627367" xlink:href="#m7a603bde73" y="271.812435"/>
     <use style="fill:#4c72b0;" x="465.157381" xlink:href="#m7a603bde73" y="266.410617"/>
     <use style="fill:#4c72b0;" x="466.687396" xlink:href="#m7a603bde73" y="260.74309"/>
     <use style="fill:#4c72b0;" x="468.217411" xlink:href="#m7a603bde73" y="254.965439"/>
     <use style="fill:#4c72b0;" x="469.747425" xlink:href="#m7a603bde73" y="249.09106"/>
     <use style="fill:#4c72b0;" x="471.27744" xlink:href="#m7a603bde73" y="243.128489"/>
     <use style="fill:#4c72b0;" x="472.807455" xlink:href="#m7a603bde73" y="237.089729"/>
     <use style="fill:#4c72b0;" x="474.337469" xlink:href="#m7a603bde73" y="230.984271"/>
     <use style="fill:#4c72b0;" x="475.867484" xlink:href="#m7a603bde73" y="224.824002"/>
     <use style="fill:#4c72b0;" x="477.397499" xlink:href="#m7a603bde73" y="218.627002"/>
     <use style="fill:#4c72b0;" x="478.927513" xlink:href="#m7a603bde73" y="212.412975"/>
     <use style="fill:#4c72b0;" x="480.457528" xlink:href="#m7a603bde73" y="206.123017"/>
     <use style="fill:#4c72b0;" x="481.987542" xlink:href="#m7a603bde73" y="199.848006"/>
     <use style="fill:#4c72b0;" x="483.517557" xlink:href="#m7a603bde73" y="193.754543"/>
     <use style="fill:#4c72b0;" x="485.047572" xlink:href="#m7a603bde73" y="187.847503"/>
     <use style="fill:#4c72b0;" x="486.577586" xlink:href="#m7a603bde73" y="182.126461"/>
     <use style="fill:#4c72b0;" x="488.107601" xlink:href="#m7a603bde73" y="176.593781"/>
     <use style="fill:#4c72b0;" x="489.637616" xlink:href="#m7a603bde73" y="171.248916"/>
     <use style="fill:#4c72b0;" x="491.16763" xlink:href="#m7a603bde73" y="166.092687"/>
     <use style="fill:#4c72b0;" x="492.697645" xlink:href="#m7a603bde73" y="161.124134"/>
     <use style="fill:#4c72b0;" x="494.22766" xlink:href="#m7a603bde73" y="156.342781"/>
     <use style="fill:#4c72b0;" x="495.757674" xlink:href="#m7a603bde73" y="151.747032"/>
     <use style="fill:#4c72b0;" x="497.287689" xlink:href="#m7a603bde73" y="147.335269"/>
     <use style="fill:#4c72b0;" x="498.817704" xlink:href="#m7a603bde73" y="143.105155"/>
     <use style="fill:#4c72b0;" x="500.347718" xlink:href="#m7a603bde73" y="139.054059"/>
     <use style="fill:#4c72b0;" x="501.877733" xlink:href="#m7a603bde73" y="135.178875"/>
     <use style="fill:#4c72b0;" x="503.407748" xlink:href="#m7a603bde73" y="131.476084"/>
     <use style="fill:#4c72b0;" x="504.937762" xlink:href="#m7a603bde73" y="127.941851"/>
     <use style="fill:#4c72b0;" x="506.467777" xlink:href="#m7a603bde73" y="124.571892"/>
     <use style="fill:#4c72b0;" x="507.997792" xlink:href="#m7a603bde73" y="121.36173"/>
     <use style="fill:#4c72b0;" x="509.527806" xlink:href="#m7a603bde73" y="118.306453"/>
     <use style="fill:#4c72b0;" x="511.057821" xlink:href="#m7a603bde73" y="115.401048"/>
     <use style="fill:#4c72b0;" x="512.587835" xlink:href="#m7a603bde73" y="112.640115"/>
     <use style="fill:#4c72b0;" x="514.11785" xlink:href="#m7a603bde73" y="110.018236"/>
     <use style="fill:#4c72b0;" x="515.647865" xlink:href="#m7a603bde73" y="107.529662"/>
     <use style="fill:#4c72b0;" x="517.177879" xlink:href="#m7a603bde73" y="105.168696"/>
     <use style="fill:#4c72b0;" x="518.707894" xlink:href="#m7a603bde73" y="102.929375"/>
     <use style="fill:#4c72b0;" x="520.237909" xlink:href="#m7a603bde73" y="100.805847"/>
     <use style="fill:#4c72b0;" x="521.767923" xlink:href="#m7a603bde73" y="98.792054"/>
     <use style="fill:#4c72b0;" x="523.297938" xlink:href="#m7a603bde73" y="96.8821"/>
     <use style="fill:#4c72b0;" x="524.827953" xlink:href="#m7a603bde73" y="95.069937"/>
     <use style="fill:#4c72b0;" x="526.357967" xlink:href="#m7a603bde73" y="93.349721"/>
     <use style="fill:#4c72b0;" x="527.887982" xlink:href="#m7a603bde73" y="91.715497"/>
     <use style="fill:#4c72b0;" x="529.417997" xlink:href="#m7a603bde73" y="90.161548"/>
     <use style="fill:#4c72b0;" x="530.948011" xlink:href="#m7a603bde73" y="88.682081"/>
     <use style="fill:#4c72b0;" x="532.478026" xlink:href="#m7a603bde73" y="87.271564"/>
     <use style="fill:#4c72b0;" x="534.008041" xlink:href="#m7a603bde73" y="85.924412"/>
     <use style="fill:#4c72b0;" x="535.538055" xlink:href="#m7a603bde73" y="84.635324"/>
     <use style="fill:#4c72b0;" x="537.06807" xlink:href="#m7a603bde73" y="83.398955"/>
     <use style="fill:#4c72b0;" x="538.598085" xlink:href="#m7a603bde73" y="82.210269"/>
     <use style="fill:#4c72b0;" x="540.128099" xlink:href="#m7a603bde73" y="81.064179"/>
    </g>
   </g>
   <g id="patch_3">
    <path d="M 59.78 355.48 
L 59.78 25.49625 
" style="fill:none;"/>
   </g>
   <g id="patch_4">
    <path d="M 563.001818 355.48 
L 563.001818 25.49625 
" style="fill:none;"/>
   </g>
   <g id="patch_5">
    <path d="M 59.78 355.48 
L 563.001818 355.48 
" style="fill:none;"/>
   </g>
   <g id="patch_6">
    <path d="M 59.78 25.49625 
L 563.001818 25.49625 
" style="fill:none;"/>
   </g>
   <g id="text_17">
    <!-- Altitude over a Day -->
    <defs>
     <path d="M 21 0 
L 1.265625 51.859375 
L 10.546875 51.859375 
L 21.6875 20.796875 
Q 23.484375 15.765625 25 10.359375 
Q 26.171875 14.453125 28.265625 20.21875 
L 39.796875 51.859375 
L 48.828125 51.859375 
L 29.203125 0 
z
" id="ArialMT-118"/>
     <path d="M 7.71875 0 
L 7.71875 71.578125 
L 32.375 71.578125 
Q 40.71875 71.578125 45.125 70.5625 
Q 51.265625 69.140625 55.609375 65.4375 
Q 61.28125 60.640625 64.078125 53.1875 
Q 66.890625 45.75 66.890625 36.1875 
Q 66.890625 28.03125 64.984375 21.734375 
Q 63.09375 15.4375 60.109375 11.296875 
Q 57.125 7.171875 53.578125 4.796875 
Q 50.046875 2.4375 45.046875 1.21875 
Q 40.046875 0 33.546875 0 
z
M 17.1875 8.453125 
L 32.46875 8.453125 
Q 39.546875 8.453125 43.578125 9.765625 
Q 47.609375 11.078125 50 13.484375 
Q 53.375 16.84375 55.25 22.53125 
Q 57.125 28.21875 57.125 36.328125 
Q 57.125 47.5625 53.4375 53.59375 
Q 49.75 59.625 44.484375 61.671875 
Q 40.671875 63.140625 32.234375 63.140625 
L 17.1875 63.140625 
z
" id="ArialMT-68"/>
     <path d="M 6.203125 -19.96875 
L 5.21875 -11.71875 
Q 8.109375 -12.5 10.25 -12.5 
Q 13.1875 -12.5 14.9375 -11.515625 
Q 16.703125 -10.546875 17.828125 -8.796875 
Q 18.65625 -7.46875 20.515625 -2.25 
Q 20.75 -1.515625 21.296875 -0.09375 
L 1.609375 51.859375 
L 11.078125 51.859375 
L 21.875 21.828125 
Q 23.96875 16.109375 25.640625 9.8125 
Q 27.15625 15.875 29.25 21.625 
L 40.328125 51.859375 
L 49.125 51.859375 
L 29.390625 -0.875 
Q 26.21875 -9.421875 24.46875 -12.640625 
Q 22.125 -17 19.09375 -19.015625 
Q 16.0625 -21.046875 11.859375 -21.046875 
Q 9.328125 -21.046875 6.203125 -19.96875 
z
" id="ArialMT-121"/>
    </defs>
    <g style="fill:#262626;" transform="translate(260.701222 19.49625)scale(0.12 -0.12)">
     <use xlink:href="#ArialMT-65"/>
     <use x="66.699219" xlink:href="#ArialMT-108"/>
     <use x="88.916016" xlink:href="#ArialMT-116"/>
     <use x="116.699219" xlink:href="#ArialMT-105"/>
     <use x="138.916016" xlink:href="#ArialMT-116"/>
     <use x="166.699219" xlink:href="#ArialMT-117"/>
     <use x="222.314453" xlink:href="#ArialMT-100"/>
     <use x="277.929688" xlink:href="#ArialMT-101"/>
     <use x="333.544922" xlink:href="#ArialMT-32"/>
     <use x="361.328125" xlink:href="#ArialMT-111"/>
     <use x="416.943359" xlink:href="#ArialMT-118"/>
     <use x="466.943359" xlink:href="#ArialMT-101"/>
     <use x="522.558594" xlink:href="#ArialMT-114"/>
     <use x="555.859375" xlink:href="#ArialMT-32"/>
     <use x="583.642578" xlink:href="#ArialMT-97"/>
     <use x="639.257812" xlink:href="#ArialMT-32"/>
     <use x="667.041016" xlink:href="#ArialMT-68"/>
     <use x="739.257812" xlink:href="#ArialMT-97"/>
     <use x="794.873047" xlink:href="#ArialMT-121"/>
    </g>
   </g>
  </g>
 </g>
 <defs>
  <clipPath id="pa1a91a5278">
   <rect height="329.98375" width="503.221818" x="59.78" y="25.49625"/>
  </clipPath>
 </defs>
</svg>
