<?xml version="1.0" encoding="utf-8" standalone="no"?>
<!DOCTYPE svg PUBLIC "-//W3C//DTD SVG 1.1//EN"
  "http://www.w3.org/Graphics/SVG/1.1/DTD/svg11.dtd">
<!-- Created with matplotlib (https://matplotlib.org/) -->
<svg height="396pt" version="1.1" viewBox="0 0 576 396" width="576pt" xmlns="http://www.w3.org/2000/svg" xmlns:xlink="http://www.w3.org/1999/xlink">
 <defs>
  <style type="text/css">
*{stroke-linecap:butt;stroke-linejoin:round;}
  </style>
 </defs>
 <g id="figure_1">
  <g id="patch_1">
   <path d="M 0 396 
L 576 396 
L 576 0 
L 0 0 
z
" style="fill:#ffffff;"/>
  </g>
  <g id="axes_1">
   <g id="patch_2">
    <path d="M 48.62 355.48 
L 563.001818 355.48 
L 563.001818 25.49625 
L 48.62 25.49625 
z
" style="fill:#eaeaf2;"/>
   </g>
   <g id="matplotlib.axis_1">
    <g id="xtick_1">
     <g id="line2d_1">
      <path clip-path="url(#p98fcedbc3f)" d="M 72.000992 355.48 
L 72.000992 25.49625 
" style="fill:none;stroke:#ffffff;stroke-linecap:round;"/>
     </g>
     <g id="line2d_2"/>
     <g id="text_1">
      <!-- 0 -->
      <defs>
       <path d="M 4.15625 35.296875 
Q 4.15625 48 6.765625 55.734375 
Q 9.375 63.484375 14.515625 67.671875 
Q 19.671875 71.875 27.484375 71.875 
Q 33.25 71.875 37.59375 69.546875 
Q 41.9375 67.234375 44.765625 62.859375 
Q 47.609375 58.5 49.21875 52.21875 
Q 50.828125 45.953125 50.828125 35.296875 
Q 50.828125 22.703125 48.234375 14.96875 
Q 45.65625 7.234375 40.5 3 
Q 35.359375 -1.21875 27.484375 -1.21875 
Q 17.140625 -1.21875 11.234375 6.203125 
Q 4.15625 15.140625 4.15625 35.296875 
z
M 13.1875 35.296875 
Q 13.1875 17.671875 17.3125 11.828125 
Q 21.4375 6 27.484375 6 
Q 33.546875 6 37.671875 11.859375 
Q 41.796875 17.71875 41.796875 35.296875 
Q 41.796875 52.984375 37.671875 58.78125 
Q 33.546875 64.59375 27.390625 64.59375 
Q 21.34375 64.59375 17.71875 59.46875 
Q 13.1875 52.9375 13.1875 35.296875 
z
" id="ArialMT-48"/>
      </defs>
      <g style="fill:#262626;" transform="translate(69.220523 369.637812)scale(0.1 -0.1)">
       <use xlink:href="#ArialMT-48"/>
      </g>
     </g>
    </g>
    <g id="xtick_2">
     <g id="line2d_3">
      <path clip-path="url(#p98fcedbc3f)" d="M 169.421791 355.48 
L 169.421791 25.49625 
" style="fill:none;stroke:#ffffff;stroke-linecap:round;"/>
     </g>
     <g id="line2d_4"/>
     <g id="text_2">
      <!-- 5 -->
      <defs>
       <path d="M 4.15625 18.75 
L 13.375 19.53125 
Q 14.40625 12.796875 18.140625 9.390625 
Q 21.875 6 27.15625 6 
Q 33.5 6 37.890625 10.78125 
Q 42.28125 15.578125 42.28125 23.484375 
Q 42.28125 31 38.0625 35.34375 
Q 33.84375 39.703125 27 39.703125 
Q 22.75 39.703125 19.328125 37.765625 
Q 15.921875 35.84375 13.96875 32.765625 
L 5.71875 33.84375 
L 12.640625 70.609375 
L 48.25 70.609375 
L 48.25 62.203125 
L 19.671875 62.203125 
L 15.828125 42.96875 
Q 22.265625 47.46875 29.34375 47.46875 
Q 38.71875 47.46875 45.15625 40.96875 
Q 51.609375 34.46875 51.609375 24.265625 
Q 51.609375 14.546875 45.953125 7.46875 
Q 39.0625 -1.21875 27.15625 -1.21875 
Q 17.390625 -1.21875 11.203125 4.25 
Q 5.03125 9.71875 4.15625 18.75 
z
" id="ArialMT-53"/>
      </defs>
      <g style="fill:#262626;" transform="translate(166.641322 369.637812)scale(0.1 -0.1)">
       <use xlink:href="#ArialMT-53"/>
      </g>
     </g>
    </g>
    <g id="xtick_3">
     <g id="line2d_5">
      <path clip-path="url(#p98fcedbc3f)" d="M 266.84259 355.48 
L 266.84259 25.49625 
" style="fill:none;stroke:#ffffff;stroke-linecap:round;"/>
     </g>
     <g id="line2d_6"/>
     <g id="text_3">
      <!-- 10 -->
      <defs>
       <path d="M 37.25 0 
L 28.46875 0 
L 28.46875 56 
Q 25.296875 52.984375 20.140625 49.953125 
Q 14.984375 46.921875 10.890625 45.40625 
L 10.890625 53.90625 
Q 18.265625 57.375 23.78125 62.296875 
Q 29.296875 67.234375 31.59375 71.875 
L 37.25 71.875 
z
" id="ArialMT-49"/>
      </defs>
      <g style="fill:#262626;" transform="translate(261.281652 369.637812)scale(0.1 -0.1)">
       <use xlink:href="#ArialMT-49"/>
       <use x="55.615234" xlink:href="#ArialMT-48"/>
      </g>
     </g>
    </g>
    <g id="xtick_4">
     <g id="line2d_7">
      <path clip-path="url(#p98fcedbc3f)" d="M 364.263388 355.48 
L 364.263388 25.49625 
" style="fill:none;stroke:#ffffff;stroke-linecap:round;"/>
     </g>
     <g id="line2d_8"/>
     <g id="text_4">
      <!-- 15 -->
      <g style="fill:#262626;" transform="translate(358.702451 369.637812)scale(0.1 -0.1)">
       <use xlink:href="#ArialMT-49"/>
       <use x="55.615234" xlink:href="#ArialMT-53"/>
      </g>
     </g>
    </g>
    <g id="xtick_5">
     <g id="line2d_9">
      <path clip-path="url(#p98fcedbc3f)" d="M 461.684187 355.48 
L 461.684187 25.49625 
" style="fill:none;stroke:#ffffff;stroke-linecap:round;"/>
     </g>
     <g id="line2d_10"/>
     <g id="text_5">
      <!-- 20 -->
      <defs>
       <path d="M 50.34375 8.453125 
L 50.34375 0 
L 3.03125 0 
Q 2.9375 3.171875 4.046875 6.109375 
Q 5.859375 10.9375 9.828125 15.625 
Q 13.8125 20.3125 21.34375 26.46875 
Q 33.015625 36.03125 37.109375 41.625 
Q 41.21875 47.21875 41.21875 52.203125 
Q 41.21875 57.421875 37.46875 61 
Q 33.734375 64.59375 27.734375 64.59375 
Q 21.390625 64.59375 17.578125 60.78125 
Q 13.765625 56.984375 13.71875 50.25 
L 4.6875 51.171875 
Q 5.609375 61.28125 11.65625 66.578125 
Q 17.71875 71.875 27.9375 71.875 
Q 38.234375 71.875 44.234375 66.15625 
Q 50.25 60.453125 50.25 52 
Q 50.25 47.703125 48.484375 43.546875 
Q 46.734375 39.40625 42.65625 34.8125 
Q 38.578125 30.21875 29.109375 22.21875 
Q 21.1875 15.578125 18.9375 13.203125 
Q 16.703125 10.84375 15.234375 8.453125 
z
" id="ArialMT-50"/>
      </defs>
      <g style="fill:#262626;" transform="translate(456.12325 369.637812)scale(0.1 -0.1)">
       <use xlink:href="#ArialMT-50"/>
       <use x="55.615234" xlink:href="#ArialMT-48"/>
      </g>
     </g>
    </g>
    <g id="xtick_6">
     <g id="line2d_11">
      <path clip-path="url(#p98fcedbc3f)" d="M 559.104986 355.48 
L 559.104986 25.49625 
" style="fill:none;stroke:#ffffff;stroke-linecap:round;"/>
     </g>
     <g id="line2d_12"/>
     <g id="text_6">
      <!-- 25 -->
      <g style="fill:#262626;" transform="translate(553.544049 369.637812)scale(0.1 -0.1)">
       <use xlink:href="#ArialMT-50"/>
       <use x="55.615234" xlink:href="#ArialMT-53"/>
      </g>
     </g>
    </g>
    <g id="text_7">
     <!-- Time after Solar Noon [hours] -->
     <defs>
      <path d="M 25.921875 0 
L 25.921875 63.140625 
L 2.34375 63.140625 
L 2.34375 71.578125 
L 59.078125 71.578125 
L 59.078125 63.140625 
L 35.40625 63.140625 
L 35.40625 0 
z
" id="ArialMT-84"/>
      <path d="M 6.640625 61.46875 
L 6.640625 71.578125 
L 15.4375 71.578125 
L 15.4375 61.46875 
z
M 6.640625 0 
L 6.640625 51.859375 
L 15.4375 51.859375 
L 15.4375 0 
z
" id="ArialMT-105"/>
      <path d="M 6.59375 0 
L 6.59375 51.859375 
L 14.453125 51.859375 
L 14.453125 44.578125 
Q 16.890625 48.390625 20.9375 50.703125 
Q 25 53.03125 30.171875 53.03125 
Q 35.9375 53.03125 39.625 50.640625 
Q 43.3125 48.25 44.828125 43.953125 
Q 50.984375 53.03125 60.84375 53.03125 
Q 68.5625 53.03125 72.703125 48.75 
Q 76.859375 44.484375 76.859375 35.59375 
L 76.859375 0 
L 68.109375 0 
L 68.109375 32.671875 
Q 68.109375 37.9375 67.25 40.25 
Q 66.40625 42.578125 64.15625 43.984375 
Q 61.921875 45.40625 58.890625 45.40625 
Q 53.421875 45.40625 49.796875 41.765625 
Q 46.1875 38.140625 46.1875 30.125 
L 46.1875 0 
L 37.40625 0 
L 37.40625 33.6875 
Q 37.40625 39.546875 35.25 42.46875 
Q 33.109375 45.40625 28.21875 45.40625 
Q 24.515625 45.40625 21.359375 43.453125 
Q 18.21875 41.5 16.796875 37.734375 
Q 15.375 33.984375 15.375 26.90625 
L 15.375 0 
z
" id="ArialMT-109"/>
      <path d="M 42.09375 16.703125 
L 51.171875 15.578125 
Q 49.03125 7.625 43.21875 3.21875 
Q 37.40625 -1.171875 28.375 -1.171875 
Q 17 -1.171875 10.328125 5.828125 
Q 3.65625 12.84375 3.65625 25.484375 
Q 3.65625 38.578125 10.390625 45.796875 
Q 17.140625 53.03125 27.875 53.03125 
Q 38.28125 53.03125 44.875 45.953125 
Q 51.46875 38.875 51.46875 26.03125 
Q 51.46875 25.25 51.421875 23.6875 
L 12.75 23.6875 
Q 13.234375 15.140625 17.578125 10.59375 
Q 21.921875 6.0625 28.421875 6.0625 
Q 33.25 6.0625 36.671875 8.59375 
Q 40.09375 11.140625 42.09375 16.703125 
z
M 13.234375 30.90625 
L 42.1875 30.90625 
Q 41.609375 37.453125 38.875 40.71875 
Q 34.671875 45.796875 27.984375 45.796875 
Q 21.921875 45.796875 17.796875 41.75 
Q 13.671875 37.703125 13.234375 30.90625 
z
" id="ArialMT-101"/>
      <path id="ArialMT-32"/>
      <path d="M 40.4375 6.390625 
Q 35.546875 2.25 31.03125 0.53125 
Q 26.515625 -1.171875 21.34375 -1.171875 
Q 12.796875 -1.171875 8.203125 3 
Q 3.609375 7.171875 3.609375 13.671875 
Q 3.609375 17.484375 5.34375 20.625 
Q 7.078125 23.78125 9.890625 25.6875 
Q 12.703125 27.59375 16.21875 28.5625 
Q 18.796875 29.25 24.03125 29.890625 
Q 34.671875 31.15625 39.703125 32.90625 
Q 39.75 34.71875 39.75 35.203125 
Q 39.75 40.578125 37.25 42.78125 
Q 33.890625 45.75 27.25 45.75 
Q 21.046875 45.75 18.09375 43.578125 
Q 15.140625 41.40625 13.71875 35.890625 
L 5.125 37.0625 
Q 6.296875 42.578125 8.984375 45.96875 
Q 11.671875 49.359375 16.75 51.1875 
Q 21.828125 53.03125 28.515625 53.03125 
Q 35.15625 53.03125 39.296875 51.46875 
Q 43.453125 49.90625 45.40625 47.53125 
Q 47.359375 45.171875 48.140625 41.546875 
Q 48.578125 39.3125 48.578125 33.453125 
L 48.578125 21.734375 
Q 48.578125 9.46875 49.140625 6.21875 
Q 49.703125 2.984375 51.375 0 
L 42.1875 0 
Q 40.828125 2.734375 40.4375 6.390625 
z
M 39.703125 26.03125 
Q 34.90625 24.078125 25.34375 22.703125 
Q 19.921875 21.921875 17.671875 20.9375 
Q 15.4375 19.96875 14.203125 18.09375 
Q 12.984375 16.21875 12.984375 13.921875 
Q 12.984375 10.40625 15.640625 8.0625 
Q 18.3125 5.71875 23.4375 5.71875 
Q 28.515625 5.71875 32.46875 7.9375 
Q 36.421875 10.15625 38.28125 14.015625 
Q 39.703125 17 39.703125 22.796875 
z
" id="ArialMT-97"/>
      <path d="M 8.6875 0 
L 8.6875 45.015625 
L 0.921875 45.015625 
L 0.921875 51.859375 
L 8.6875 51.859375 
L 8.6875 57.375 
Q 8.6875 62.59375 9.625 65.140625 
Q 10.890625 68.5625 14.078125 70.671875 
Q 17.28125 72.796875 23.046875 72.796875 
Q 26.765625 72.796875 31.25 71.921875 
L 29.9375 64.265625 
Q 27.203125 64.75 24.75 64.75 
Q 20.75 64.75 19.09375 63.03125 
Q 17.4375 61.328125 17.4375 56.640625 
L 17.4375 51.859375 
L 27.546875 51.859375 
L 27.546875 45.015625 
L 17.4375 45.015625 
L 17.4375 0 
z
" id="ArialMT-102"/>
      <path d="M 25.78125 7.859375 
L 27.046875 0.09375 
Q 23.34375 -0.6875 20.40625 -0.6875 
Q 15.625 -0.6875 12.984375 0.828125 
Q 10.359375 2.34375 9.28125 4.8125 
Q 8.203125 7.28125 8.203125 15.1875 
L 8.203125 45.015625 
L 1.765625 45.015625 
L 1.765625 51.859375 
L 8.203125 51.859375 
L 8.203125 64.703125 
L 16.9375 69.96875 
L 16.9375 51.859375 
L 25.78125 51.859375 
L 25.78125 45.015625 
L 16.9375 45.015625 
L 16.9375 14.703125 
Q 16.9375 10.9375 17.40625 9.859375 
Q 17.875 8.796875 18.921875 8.15625 
Q 19.96875 7.515625 21.921875 7.515625 
Q 23.390625 7.515625 25.78125 7.859375 
z
" id="ArialMT-116"/>
      <path d="M 6.5 0 
L 6.5 51.859375 
L 14.40625 51.859375 
L 14.40625 44 
Q 17.4375 49.515625 20 51.265625 
Q 22.5625 53.03125 25.640625 53.03125 
Q 30.078125 53.03125 34.671875 50.203125 
L 31.640625 42.046875 
Q 28.421875 43.953125 25.203125 43.953125 
Q 22.3125 43.953125 20.015625 42.21875 
Q 17.71875 40.484375 16.75 37.40625 
Q 15.28125 32.71875 15.28125 27.15625 
L 15.28125 0 
z
" id="ArialMT-114"/>
      <path d="M 4.5 23 
L 13.421875 23.78125 
Q 14.0625 18.40625 16.375 14.96875 
Q 18.703125 11.53125 23.578125 9.40625 
Q 28.46875 7.28125 34.578125 7.28125 
Q 39.984375 7.28125 44.140625 8.890625 
Q 48.296875 10.5 50.3125 13.296875 
Q 52.34375 16.109375 52.34375 19.4375 
Q 52.34375 22.796875 50.390625 25.3125 
Q 48.4375 27.828125 43.953125 29.546875 
Q 41.0625 30.671875 31.203125 33.03125 
Q 21.34375 35.40625 17.390625 37.5 
Q 12.25 40.1875 9.734375 44.15625 
Q 7.234375 48.140625 7.234375 53.078125 
Q 7.234375 58.5 10.296875 63.203125 
Q 13.375 67.921875 19.28125 70.359375 
Q 25.203125 72.796875 32.421875 72.796875 
Q 40.375 72.796875 46.453125 70.234375 
Q 52.546875 67.671875 55.8125 62.6875 
Q 59.078125 57.71875 59.328125 51.421875 
L 50.25 50.734375 
Q 49.515625 57.515625 45.28125 60.984375 
Q 41.0625 64.453125 32.8125 64.453125 
Q 24.21875 64.453125 20.28125 61.296875 
Q 16.359375 58.15625 16.359375 53.71875 
Q 16.359375 49.859375 19.140625 47.359375 
Q 21.875 44.875 33.421875 42.265625 
Q 44.96875 39.65625 49.265625 37.703125 
Q 55.515625 34.8125 58.484375 30.390625 
Q 61.46875 25.984375 61.46875 20.21875 
Q 61.46875 14.5 58.203125 9.4375 
Q 54.9375 4.390625 48.796875 1.578125 
Q 42.671875 -1.21875 35.015625 -1.21875 
Q 25.296875 -1.21875 18.71875 1.609375 
Q 12.15625 4.4375 8.421875 10.125 
Q 4.6875 15.828125 4.5 23 
z
" id="ArialMT-83"/>
      <path d="M 3.328125 25.921875 
Q 3.328125 40.328125 11.328125 47.265625 
Q 18.015625 53.03125 27.640625 53.03125 
Q 38.328125 53.03125 45.109375 46.015625 
Q 51.90625 39.015625 51.90625 26.65625 
Q 51.90625 16.65625 48.90625 10.90625 
Q 45.90625 5.171875 40.15625 2 
Q 34.421875 -1.171875 27.640625 -1.171875 
Q 16.75 -1.171875 10.03125 5.8125 
Q 3.328125 12.796875 3.328125 25.921875 
z
M 12.359375 25.921875 
Q 12.359375 15.96875 16.703125 11.015625 
Q 21.046875 6.0625 27.640625 6.0625 
Q 34.1875 6.0625 38.53125 11.03125 
Q 42.875 16.015625 42.875 26.21875 
Q 42.875 35.84375 38.5 40.796875 
Q 34.125 45.75 27.640625 45.75 
Q 21.046875 45.75 16.703125 40.8125 
Q 12.359375 35.890625 12.359375 25.921875 
z
" id="ArialMT-111"/>
      <path d="M 6.390625 0 
L 6.390625 71.578125 
L 15.1875 71.578125 
L 15.1875 0 
z
" id="ArialMT-108"/>
      <path d="M 7.625 0 
L 7.625 71.578125 
L 17.328125 71.578125 
L 54.9375 15.375 
L 54.9375 71.578125 
L 64.015625 71.578125 
L 64.015625 0 
L 54.296875 0 
L 16.703125 56.25 
L 16.703125 0 
z
" id="ArialMT-78"/>
      <path d="M 6.59375 0 
L 6.59375 51.859375 
L 14.5 51.859375 
L 14.5 44.484375 
Q 20.21875 53.03125 31 53.03125 
Q 35.6875 53.03125 39.625 51.34375 
Q 43.5625 49.65625 45.515625 46.921875 
Q 47.46875 44.1875 48.25 40.4375 
Q 48.734375 37.984375 48.734375 31.890625 
L 48.734375 0 
L 39.9375 0 
L 39.9375 31.546875 
Q 39.9375 36.921875 38.90625 39.578125 
Q 37.890625 42.234375 35.28125 43.8125 
Q 32.671875 45.40625 29.15625 45.40625 
Q 23.53125 45.40625 19.453125 41.84375 
Q 15.375 38.28125 15.375 28.328125 
L 15.375 0 
z
" id="ArialMT-110"/>
      <path d="M 6.78125 -19.875 
L 6.78125 71.578125 
L 26.171875 71.578125 
L 26.171875 64.3125 
L 15.578125 64.3125 
L 15.578125 -12.59375 
L 26.171875 -12.59375 
L 26.171875 -19.875 
z
" id="ArialMT-91"/>
      <path d="M 6.59375 0 
L 6.59375 71.578125 
L 15.375 71.578125 
L 15.375 45.90625 
Q 21.53125 53.03125 30.90625 53.03125 
Q 36.671875 53.03125 40.921875 50.75 
Q 45.171875 48.484375 47 44.484375 
Q 48.828125 40.484375 48.828125 32.859375 
L 48.828125 0 
L 40.046875 0 
L 40.046875 32.859375 
Q 40.046875 39.453125 37.1875 42.453125 
Q 34.328125 45.453125 29.109375 45.453125 
Q 25.203125 45.453125 21.75 43.421875 
Q 18.3125 41.40625 16.84375 37.9375 
Q 15.375 34.46875 15.375 28.375 
L 15.375 0 
z
" id="ArialMT-104"/>
      <path d="M 40.578125 0 
L 40.578125 7.625 
Q 34.515625 -1.171875 24.125 -1.171875 
Q 19.53125 -1.171875 15.546875 0.578125 
Q 11.578125 2.34375 9.640625 5 
Q 7.71875 7.671875 6.9375 11.53125 
Q 6.390625 14.109375 6.390625 19.734375 
L 6.390625 51.859375 
L 15.1875 51.859375 
L 15.1875 23.09375 
Q 15.1875 16.21875 15.71875 13.8125 
Q 16.546875 10.359375 19.234375 8.375 
Q 21.921875 6.390625 25.875 6.390625 
Q 29.828125 6.390625 33.296875 8.421875 
Q 36.765625 10.453125 38.203125 13.9375 
Q 39.65625 17.4375 39.65625 24.078125 
L 39.65625 51.859375 
L 48.4375 51.859375 
L 48.4375 0 
z
" id="ArialMT-117"/>
      <path d="M 3.078125 15.484375 
L 11.765625 16.84375 
Q 12.5 11.625 15.84375 8.84375 
Q 19.1875 6.0625 25.203125 6.0625 
Q 31.25 6.0625 34.171875 8.515625 
Q 37.109375 10.984375 37.109375 14.3125 
Q 37.109375 17.28125 34.515625 19 
Q 32.71875 20.171875 25.53125 21.96875 
Q 15.875 24.421875 12.140625 26.203125 
Q 8.40625 27.984375 6.46875 31.125 
Q 4.546875 34.28125 4.546875 38.09375 
Q 4.546875 41.546875 6.125 44.5 
Q 7.71875 47.46875 10.453125 49.421875 
Q 12.5 50.921875 16.03125 51.96875 
Q 19.578125 53.03125 23.640625 53.03125 
Q 29.734375 53.03125 34.34375 51.265625 
Q 38.96875 49.515625 41.15625 46.5 
Q 43.359375 43.5 44.1875 38.484375 
L 35.59375 37.3125 
Q 35.015625 41.3125 32.203125 43.546875 
Q 29.390625 45.796875 24.265625 45.796875 
Q 18.21875 45.796875 15.625 43.796875 
Q 13.03125 41.796875 13.03125 39.109375 
Q 13.03125 37.40625 14.109375 36.03125 
Q 15.1875 34.625 17.484375 33.6875 
Q 18.796875 33.203125 25.25 31.453125 
Q 34.578125 28.953125 38.25 27.359375 
Q 41.9375 25.78125 44.03125 22.75 
Q 46.140625 19.734375 46.140625 15.234375 
Q 46.140625 10.84375 43.578125 6.953125 
Q 41.015625 3.078125 36.171875 0.953125 
Q 31.34375 -1.171875 25.25 -1.171875 
Q 15.140625 -1.171875 9.84375 3.03125 
Q 4.546875 7.234375 3.078125 15.484375 
z
" id="ArialMT-115"/>
      <path d="M 21.296875 -19.875 
L 1.90625 -19.875 
L 1.90625 -12.59375 
L 12.5 -12.59375 
L 12.5 64.3125 
L 1.90625 64.3125 
L 1.90625 71.578125 
L 21.296875 71.578125 
z
" id="ArialMT-93"/>
     </defs>
     <g style="fill:#262626;" transform="translate(233.67669 383.632969)scale(0.11 -0.11)">
      <use xlink:href="#ArialMT-84"/>
      <use x="61.037109" xlink:href="#ArialMT-105"/>
      <use x="83.253906" xlink:href="#ArialMT-109"/>
      <use x="166.554688" xlink:href="#ArialMT-101"/>
      <use x="222.169922" xlink:href="#ArialMT-32"/>
      <use x="249.953125" xlink:href="#ArialMT-97"/>
      <use x="305.568359" xlink:href="#ArialMT-102"/>
      <use x="333.351562" xlink:href="#ArialMT-116"/>
      <use x="361.134766" xlink:href="#ArialMT-101"/>
      <use x="416.75" xlink:href="#ArialMT-114"/>
      <use x="450.050781" xlink:href="#ArialMT-32"/>
      <use x="477.833984" xlink:href="#ArialMT-83"/>
      <use x="544.533203" xlink:href="#ArialMT-111"/>
      <use x="600.148438" xlink:href="#ArialMT-108"/>
      <use x="622.365234" xlink:href="#ArialMT-97"/>
      <use x="677.980469" xlink:href="#ArialMT-114"/>
      <use x="711.28125" xlink:href="#ArialMT-32"/>
      <use x="739.064453" xlink:href="#ArialMT-78"/>
      <use x="811.28125" xlink:href="#ArialMT-111"/>
      <use x="866.896484" xlink:href="#ArialMT-111"/>
      <use x="922.511719" xlink:href="#ArialMT-110"/>
      <use x="978.126953" xlink:href="#ArialMT-32"/>
      <use x="1005.910156" xlink:href="#ArialMT-91"/>
      <use x="1033.693359" xlink:href="#ArialMT-104"/>
      <use x="1089.308594" xlink:href="#ArialMT-111"/>
      <use x="1144.923828" xlink:href="#ArialMT-117"/>
      <use x="1200.539062" xlink:href="#ArialMT-114"/>
      <use x="1233.839844" xlink:href="#ArialMT-115"/>
      <use x="1283.839844" xlink:href="#ArialMT-93"/>
     </g>
    </g>
   </g>
   <g id="matplotlib.axis_2">
    <g id="ytick_1">
     <g id="line2d_13">
      <path clip-path="url(#p98fcedbc3f)" d="M 48.62 340.480736 
L 563.001818 340.480736 
" style="fill:none;stroke:#ffffff;stroke-linecap:round;"/>
     </g>
     <g id="line2d_14"/>
     <g id="text_8">
      <!-- 0 -->
      <g style="fill:#262626;" transform="translate(36.059063 344.059642)scale(0.1 -0.1)">
       <use xlink:href="#ArialMT-48"/>
      </g>
     </g>
    </g>
    <g id="ytick_2">
     <g id="line2d_15">
      <path clip-path="url(#p98fcedbc3f)" d="M 48.62 280.483691 
L 563.001818 280.483691 
" style="fill:none;stroke:#ffffff;stroke-linecap:round;"/>
     </g>
     <g id="line2d_16"/>
     <g id="text_9">
      <!-- 20 -->
      <g style="fill:#262626;" transform="translate(30.498125 284.062598)scale(0.1 -0.1)">
       <use xlink:href="#ArialMT-50"/>
       <use x="55.615234" xlink:href="#ArialMT-48"/>
      </g>
     </g>
    </g>
    <g id="ytick_3">
     <g id="line2d_17">
      <path clip-path="url(#p98fcedbc3f)" d="M 48.62 220.486647 
L 563.001818 220.486647 
" style="fill:none;stroke:#ffffff;stroke-linecap:round;"/>
     </g>
     <g id="line2d_18"/>
     <g id="text_10">
      <!-- 40 -->
      <defs>
       <path d="M 32.328125 0 
L 32.328125 17.140625 
L 1.265625 17.140625 
L 1.265625 25.203125 
L 33.9375 71.578125 
L 41.109375 71.578125 
L 41.109375 25.203125 
L 50.78125 25.203125 
L 50.78125 17.140625 
L 41.109375 17.140625 
L 41.109375 0 
z
M 32.328125 25.203125 
L 32.328125 57.46875 
L 9.90625 25.203125 
z
" id="ArialMT-52"/>
      </defs>
      <g style="fill:#262626;" transform="translate(30.498125 224.065553)scale(0.1 -0.1)">
       <use xlink:href="#ArialMT-52"/>
       <use x="55.615234" xlink:href="#ArialMT-48"/>
      </g>
     </g>
    </g>
    <g id="ytick_4">
     <g id="line2d_19">
      <path clip-path="url(#p98fcedbc3f)" d="M 48.62 160.489603 
L 563.001818 160.489603 
" style="fill:none;stroke:#ffffff;stroke-linecap:round;"/>
     </g>
     <g id="line2d_20"/>
     <g id="text_11">
      <!-- 60 -->
      <defs>
       <path d="M 49.75 54.046875 
L 41.015625 53.375 
Q 39.84375 58.546875 37.703125 60.890625 
Q 34.125 64.65625 28.90625 64.65625 
Q 24.703125 64.65625 21.53125 62.3125 
Q 17.390625 59.28125 14.984375 53.46875 
Q 12.59375 47.65625 12.5 36.921875 
Q 15.671875 41.75 20.265625 44.09375 
Q 24.859375 46.4375 29.890625 46.4375 
Q 38.671875 46.4375 44.84375 39.96875 
Q 51.03125 33.5 51.03125 23.25 
Q 51.03125 16.5 48.125 10.71875 
Q 45.21875 4.9375 40.140625 1.859375 
Q 35.0625 -1.21875 28.609375 -1.21875 
Q 17.625 -1.21875 10.6875 6.859375 
Q 3.765625 14.9375 3.765625 33.5 
Q 3.765625 54.25 11.421875 63.671875 
Q 18.109375 71.875 29.4375 71.875 
Q 37.890625 71.875 43.28125 67.140625 
Q 48.6875 62.40625 49.75 54.046875 
z
M 13.875 23.1875 
Q 13.875 18.65625 15.796875 14.5 
Q 17.71875 10.359375 21.1875 8.171875 
Q 24.65625 6 28.46875 6 
Q 34.03125 6 38.03125 10.484375 
Q 42.046875 14.984375 42.046875 22.703125 
Q 42.046875 30.125 38.078125 34.390625 
Q 34.125 38.671875 28.125 38.671875 
Q 22.171875 38.671875 18.015625 34.390625 
Q 13.875 30.125 13.875 23.1875 
z
" id="ArialMT-54"/>
      </defs>
      <g style="fill:#262626;" transform="translate(30.498125 164.068509)scale(0.1 -0.1)">
       <use xlink:href="#ArialMT-54"/>
       <use x="55.615234" xlink:href="#ArialMT-48"/>
      </g>
     </g>
    </g>
    <g id="ytick_5">
     <g id="line2d_21">
      <path clip-path="url(#p98fcedbc3f)" d="M 48.62 100.492559 
L 563.001818 100.492559 
" style="fill:none;stroke:#ffffff;stroke-linecap:round;"/>
     </g>
     <g id="line2d_22"/>
     <g id="text_12">
      <!-- 80 -->
      <defs>
       <path d="M 17.671875 38.8125 
Q 12.203125 40.828125 9.5625 44.53125 
Q 6.9375 48.25 6.9375 53.421875 
Q 6.9375 61.234375 12.546875 66.546875 
Q 18.171875 71.875 27.484375 71.875 
Q 36.859375 71.875 42.578125 66.421875 
Q 48.296875 60.984375 48.296875 53.171875 
Q 48.296875 48.1875 45.671875 44.5 
Q 43.0625 40.828125 37.75 38.8125 
Q 44.34375 36.671875 47.78125 31.875 
Q 51.21875 27.09375 51.21875 20.453125 
Q 51.21875 11.28125 44.71875 5.03125 
Q 38.234375 -1.21875 27.640625 -1.21875 
Q 17.046875 -1.21875 10.546875 5.046875 
Q 4.046875 11.328125 4.046875 20.703125 
Q 4.046875 27.6875 7.59375 32.390625 
Q 11.140625 37.109375 17.671875 38.8125 
z
M 15.921875 53.71875 
Q 15.921875 48.640625 19.1875 45.40625 
Q 22.46875 42.1875 27.6875 42.1875 
Q 32.765625 42.1875 36.015625 45.375 
Q 39.265625 48.578125 39.265625 53.21875 
Q 39.265625 58.0625 35.90625 61.359375 
Q 32.5625 64.65625 27.59375 64.65625 
Q 22.5625 64.65625 19.234375 61.421875 
Q 15.921875 58.203125 15.921875 53.71875 
z
M 13.09375 20.65625 
Q 13.09375 16.890625 14.875 13.375 
Q 16.65625 9.859375 20.171875 7.921875 
Q 23.6875 6 27.734375 6 
Q 34.03125 6 38.125 10.046875 
Q 42.234375 14.109375 42.234375 20.359375 
Q 42.234375 26.703125 38.015625 30.859375 
Q 33.796875 35.015625 27.4375 35.015625 
Q 21.234375 35.015625 17.15625 30.90625 
Q 13.09375 26.8125 13.09375 20.65625 
z
" id="ArialMT-56"/>
      </defs>
      <g style="fill:#262626;" transform="translate(30.498125 104.071465)scale(0.1 -0.1)">
       <use xlink:href="#ArialMT-56"/>
       <use x="55.615234" xlink:href="#ArialMT-48"/>
      </g>
     </g>
    </g>
    <g id="ytick_6">
     <g id="line2d_23">
      <path clip-path="url(#p98fcedbc3f)" d="M 48.62 40.495514 
L 563.001818 40.495514 
" style="fill:none;stroke:#ffffff;stroke-linecap:round;"/>
     </g>
     <g id="line2d_24"/>
     <g id="text_13">
      <!-- 100 -->
      <g style="fill:#262626;" transform="translate(24.937188 44.074421)scale(0.1 -0.1)">
       <use xlink:href="#ArialMT-49"/>
       <use x="55.615234" xlink:href="#ArialMT-48"/>
       <use x="111.230469" xlink:href="#ArialMT-48"/>
      </g>
     </g>
    </g>
    <g id="text_14">
     <!-- Battery Charge % -->
     <defs>
      <path d="M 7.328125 0 
L 7.328125 71.578125 
L 34.1875 71.578125 
Q 42.390625 71.578125 47.34375 69.40625 
Q 52.296875 67.234375 55.09375 62.71875 
Q 57.90625 58.203125 57.90625 53.265625 
Q 57.90625 48.6875 55.421875 44.625 
Q 52.9375 40.578125 47.90625 38.09375 
Q 54.390625 36.1875 57.875 31.59375 
Q 61.375 27 61.375 20.75 
Q 61.375 15.71875 59.25 11.390625 
Q 57.125 7.078125 54 4.734375 
Q 50.875 2.390625 46.15625 1.1875 
Q 41.453125 0 34.625 0 
z
M 16.796875 41.5 
L 32.28125 41.5 
Q 38.578125 41.5 41.3125 42.328125 
Q 44.921875 43.40625 46.75 45.890625 
Q 48.578125 48.390625 48.578125 52.15625 
Q 48.578125 55.71875 46.875 58.421875 
Q 45.171875 61.140625 41.984375 62.140625 
Q 38.8125 63.140625 31.109375 63.140625 
L 16.796875 63.140625 
z
M 16.796875 8.453125 
L 34.625 8.453125 
Q 39.203125 8.453125 41.0625 8.796875 
Q 44.34375 9.375 46.53125 10.734375 
Q 48.734375 12.109375 50.140625 14.71875 
Q 51.5625 17.328125 51.5625 20.75 
Q 51.5625 24.75 49.515625 27.703125 
Q 47.46875 30.671875 43.828125 31.859375 
Q 40.1875 33.0625 33.34375 33.0625 
L 16.796875 33.0625 
z
" id="ArialMT-66"/>
      <path d="M 6.203125 -19.96875 
L 5.21875 -11.71875 
Q 8.109375 -12.5 10.25 -12.5 
Q 13.1875 -12.5 14.9375 -11.515625 
Q 16.703125 -10.546875 17.828125 -8.796875 
Q 18.65625 -7.46875 20.515625 -2.25 
Q 20.75 -1.515625 21.296875 -0.09375 
L 1.609375 51.859375 
L 11.078125 51.859375 
L 21.875 21.828125 
Q 23.96875 16.109375 25.640625 9.8125 
Q 27.15625 15.875 29.25 21.625 
L 40.328125 51.859375 
L 49.125 51.859375 
L 29.390625 -0.875 
Q 26.21875 -9.421875 24.46875 -12.640625 
Q 22.125 -17 19.09375 -19.015625 
Q 16.0625 -21.046875 11.859375 -21.046875 
Q 9.328125 -21.046875 6.203125 -19.96875 
z
" id="ArialMT-121"/>
      <path d="M 58.796875 25.09375 
L 68.265625 22.703125 
Q 65.28125 11.03125 57.546875 4.90625 
Q 49.8125 -1.21875 38.625 -1.21875 
Q 27.046875 -1.21875 19.796875 3.484375 
Q 12.546875 8.203125 8.765625 17.140625 
Q 4.984375 26.078125 4.984375 36.328125 
Q 4.984375 47.515625 9.25 55.828125 
Q 13.53125 64.15625 21.40625 68.46875 
Q 29.296875 72.796875 38.765625 72.796875 
Q 49.515625 72.796875 56.828125 67.328125 
Q 64.15625 61.859375 67.046875 51.953125 
L 57.71875 49.75 
Q 55.21875 57.5625 50.484375 61.125 
Q 45.75 64.703125 38.578125 64.703125 
Q 30.328125 64.703125 24.78125 60.734375 
Q 19.234375 56.78125 16.984375 50.109375 
Q 14.75 43.453125 14.75 36.375 
Q 14.75 27.25 17.40625 20.4375 
Q 20.0625 13.625 25.671875 10.25 
Q 31.296875 6.890625 37.84375 6.890625 
Q 45.796875 6.890625 51.3125 11.46875 
Q 56.84375 16.0625 58.796875 25.09375 
z
" id="ArialMT-67"/>
      <path d="M 4.984375 -4.296875 
L 13.53125 -5.5625 
Q 14.0625 -9.515625 16.5 -11.328125 
Q 19.78125 -13.765625 25.4375 -13.765625 
Q 31.546875 -13.765625 34.859375 -11.328125 
Q 38.1875 -8.890625 39.359375 -4.5 
Q 40.046875 -1.8125 39.984375 6.78125 
Q 34.234375 0 25.640625 0 
Q 14.9375 0 9.078125 7.71875 
Q 3.21875 15.4375 3.21875 26.21875 
Q 3.21875 33.640625 5.90625 39.90625 
Q 8.59375 46.1875 13.6875 49.609375 
Q 18.796875 53.03125 25.6875 53.03125 
Q 34.859375 53.03125 40.828125 45.609375 
L 40.828125 51.859375 
L 48.921875 51.859375 
L 48.921875 7.03125 
Q 48.921875 -5.078125 46.453125 -10.125 
Q 44 -15.1875 38.640625 -18.109375 
Q 33.296875 -21.046875 25.484375 -21.046875 
Q 16.21875 -21.046875 10.5 -16.875 
Q 4.78125 -12.703125 4.984375 -4.296875 
z
M 12.25 26.859375 
Q 12.25 16.65625 16.296875 11.96875 
Q 20.359375 7.28125 26.46875 7.28125 
Q 32.515625 7.28125 36.609375 11.9375 
Q 40.71875 16.609375 40.71875 26.5625 
Q 40.71875 36.078125 36.5 40.90625 
Q 32.28125 45.75 26.3125 45.75 
Q 20.453125 45.75 16.34375 40.984375 
Q 12.25 36.234375 12.25 26.859375 
z
" id="ArialMT-103"/>
      <path d="M 5.8125 54.390625 
Q 5.8125 62.0625 9.671875 67.421875 
Q 13.53125 72.796875 20.84375 72.796875 
Q 27.59375 72.796875 32 67.984375 
Q 36.421875 63.1875 36.421875 53.859375 
Q 36.421875 44.78125 31.953125 39.875 
Q 27.484375 34.96875 20.953125 34.96875 
Q 14.453125 34.96875 10.125 39.796875 
Q 5.8125 44.625 5.8125 54.390625 
z
M 21.09375 66.75 
Q 17.828125 66.75 15.65625 63.90625 
Q 13.484375 61.078125 13.484375 53.515625 
Q 13.484375 46.625 15.671875 43.8125 
Q 17.875 41.015625 21.09375 41.015625 
Q 24.421875 41.015625 26.59375 43.84375 
Q 28.765625 46.6875 28.765625 54.203125 
Q 28.765625 61.140625 26.5625 63.9375 
Q 24.359375 66.75 21.09375 66.75 
z
M 21.140625 -2.640625 
L 60.296875 72.796875 
L 67.4375 72.796875 
L 28.421875 -2.640625 
z
M 52.09375 16.796875 
Q 52.09375 24.515625 55.953125 29.859375 
Q 59.8125 35.203125 67.1875 35.203125 
Q 73.921875 35.203125 78.34375 30.390625 
Q 82.765625 25.59375 82.765625 16.265625 
Q 82.765625 7.171875 78.296875 2.265625 
Q 73.828125 -2.640625 67.234375 -2.640625 
Q 60.75 -2.640625 56.421875 2.21875 
Q 52.09375 7.078125 52.09375 16.796875 
z
M 67.4375 29.15625 
Q 64.109375 29.15625 61.9375 26.3125 
Q 59.765625 23.484375 59.765625 15.921875 
Q 59.765625 9.078125 61.953125 6.25 
Q 64.15625 3.421875 67.390625 3.421875 
Q 70.75 3.421875 72.921875 6.25 
Q 75.09375 9.078125 75.09375 16.609375 
Q 75.09375 23.53125 72.890625 26.34375 
Q 70.703125 29.15625 67.4375 29.15625 
z
" id="ArialMT-37"/>
     </defs>
     <g style="fill:#262626;" transform="translate(18.622031 233.895156)rotate(-90)scale(0.11 -0.11)">
      <use xlink:href="#ArialMT-66"/>
      <use x="66.699219" xlink:href="#ArialMT-97"/>
      <use x="122.314453" xlink:href="#ArialMT-116"/>
      <use x="150.097656" xlink:href="#ArialMT-116"/>
      <use x="177.880859" xlink:href="#ArialMT-101"/>
      <use x="233.496094" xlink:href="#ArialMT-114"/>
      <use x="266.796875" xlink:href="#ArialMT-121"/>
      <use x="316.796875" xlink:href="#ArialMT-32"/>
      <use x="344.580078" xlink:href="#ArialMT-67"/>
      <use x="416.796875" xlink:href="#ArialMT-104"/>
      <use x="472.412109" xlink:href="#ArialMT-97"/>
      <use x="528.027344" xlink:href="#ArialMT-114"/>
      <use x="561.328125" xlink:href="#ArialMT-103"/>
      <use x="616.943359" xlink:href="#ArialMT-101"/>
      <use x="672.558594" xlink:href="#ArialMT-32"/>
      <use x="700.341797" xlink:href="#ArialMT-37"/>
     </g>
    </g>
   </g>
   <g id="line2d_25">
    <path clip-path="url(#p98fcedbc3f)" d="M 72.000992 190.488143 
L 81.384667 155.746116 
L 87.640451 133.42257 
L 92.332289 117.477135 
L 97.024127 102.450668 
L 100.152019 93.048286 
L 103.27991 84.211423 
L 106.407802 76.002912 
L 109.535694 68.485589 
L 112.663586 61.722287 
L 115.791478 55.77584 
L 117.355424 53.128572 
L 118.91937 50.709081 
L 120.483316 48.525219 
L 122.047262 46.584841 
L 123.611208 44.8958 
L 125.175154 43.465951 
L 126.739099 42.303145 
L 128.303045 41.415236 
L 129.866991 40.810075 
L 131.430937 40.495512 
L 198.680613 40.495511 
L 200.244558 40.837322 
L 203.37245 42.18414 
L 283.133693 78.299788 
L 284.697639 79.125732 
L 286.261585 80.086849 
L 287.825531 81.186118 
L 289.389477 82.426033 
L 292.517369 85.340553 
L 295.645261 88.860424 
L 298.773152 93.02435 
L 301.901044 97.881277 
L 305.028936 103.492465 
L 308.156828 109.874927 
L 411.37726 329.421939 
L 412.941206 332.384074 
L 414.505152 334.887184 
L 416.069098 336.931122 
L 417.633043 338.513727 
L 419.196989 339.636261 
L 420.760935 340.307545 
L 422.324881 340.480739 
L 480.190881 340.480738 
L 481.754827 340.166175 
L 483.318773 339.561014 
L 484.882719 338.673105 
L 486.446665 337.510299 
L 488.010611 336.08045 
L 489.574557 334.391409 
L 491.138502 332.451031 
L 492.702448 330.267169 
L 494.266394 327.847678 
L 495.83034 325.20041 
L 498.958232 319.253963 
L 502.086124 312.490661 
L 505.214016 304.973338 
L 508.341908 296.764827 
L 511.4698 287.927964 
L 514.597691 278.525583 
L 519.289529 263.499116 
L 523.981367 247.553681 
L 530.237151 225.230134 
L 538.056881 196.324263 
L 539.620826 190.488107 
L 539.620826 190.488107 
" style="fill:none;stroke:#4c72b0;stroke-linecap:round;stroke-width:1.75;"/>
    <defs>
     <path d="M 0 1.75 
C 0.464105 1.75 0.909265 1.565609 1.237437 1.237437 
C 1.565609 0.909265 1.75 0.464105 1.75 0 
C 1.75 -0.464105 1.565609 -0.909265 1.237437 -1.237437 
C 0.909265 -1.565609 0.464105 -1.75 0 -1.75 
C -0.464105 -1.75 -0.909265 -1.565609 -1.237437 -1.237437 
C -1.565609 -0.909265 -1.75 -0.464105 -1.75 0 
C -1.75 0.464105 -1.565609 0.909265 -1.237437 1.237437 
C -0.909265 1.565609 -0.464105 1.75 0 1.75 
z
" id="m48458eba3d"/>
    </defs>
    <g clip-path="url(#p98fcedbc3f)">
     <use style="fill:#4c72b0;" x="72.000992" xlink:href="#m48458eba3d" y="190.488143"/>
     <use style="fill:#4c72b0;" x="73.564938" xlink:href="#m48458eba3d" y="184.651988"/>
     <use style="fill:#4c72b0;" x="75.128884" xlink:href="#m48458eba3d" y="178.823687"/>
     <use style="fill:#4c72b0;" x="76.69283" xlink:href="#m48458eba3d" y="173.011095"/>
     <use style="fill:#4c72b0;" x="78.256775" xlink:href="#m48458eba3d" y="167.222066"/>
     <use style="fill:#4c72b0;" x="79.820721" xlink:href="#m48458eba3d" y="161.464455"/>
     <use style="fill:#4c72b0;" x="81.384667" xlink:href="#m48458eba3d" y="155.746116"/>
     <use style="fill:#4c72b0;" x="82.948613" xlink:href="#m48458eba3d" y="150.074903"/>
     <use style="fill:#4c72b0;" x="84.512559" xlink:href="#m48458eba3d" y="144.458672"/>
     <use style="fill:#4c72b0;" x="86.076505" xlink:href="#m48458eba3d" y="138.905276"/>
     <use style="fill:#4c72b0;" x="87.640451" xlink:href="#m48458eba3d" y="133.42257"/>
     <use style="fill:#4c72b0;" x="89.204397" xlink:href="#m48458eba3d" y="128.018408"/>
     <use style="fill:#4c72b0;" x="90.768343" xlink:href="#m48458eba3d" y="122.700645"/>
     <use style="fill:#4c72b0;" x="92.332289" xlink:href="#m48458eba3d" y="117.477135"/>
     <use style="fill:#4c72b0;" x="93.896235" xlink:href="#m48458eba3d" y="112.355732"/>
     <use style="fill:#4c72b0;" x="95.460181" xlink:href="#m48458eba3d" y="107.344292"/>
     <use style="fill:#4c72b0;" x="97.024127" xlink:href="#m48458eba3d" y="102.450668"/>
     <use style="fill:#4c72b0;" x="98.588073" xlink:href="#m48458eba3d" y="97.682714"/>
     <use style="fill:#4c72b0;" x="100.152019" xlink:href="#m48458eba3d" y="93.048286"/>
     <use style="fill:#4c72b0;" x="101.715965" xlink:href="#m48458eba3d" y="88.555237"/>
     <use style="fill:#4c72b0;" x="103.27991" xlink:href="#m48458eba3d" y="84.211423"/>
     <use style="fill:#4c72b0;" x="104.843856" xlink:href="#m48458eba3d" y="80.024696"/>
     <use style="fill:#4c72b0;" x="106.407802" xlink:href="#m48458eba3d" y="76.002912"/>
     <use style="fill:#4c72b0;" x="107.971748" xlink:href="#m48458eba3d" y="72.153925"/>
     <use style="fill:#4c72b0;" x="109.535694" xlink:href="#m48458eba3d" y="68.485589"/>
     <use style="fill:#4c72b0;" x="111.09964" xlink:href="#m48458eba3d" y="65.005758"/>
     <use style="fill:#4c72b0;" x="112.663586" xlink:href="#m48458eba3d" y="61.722287"/>
     <use style="fill:#4c72b0;" x="114.227532" xlink:href="#m48458eba3d" y="58.643029"/>
     <use style="fill:#4c72b0;" x="115.791478" xlink:href="#m48458eba3d" y="55.77584"/>
     <use style="fill:#4c72b0;" x="117.355424" xlink:href="#m48458eba3d" y="53.128572"/>
     <use style="fill:#4c72b0;" x="118.91937" xlink:href="#m48458eba3d" y="50.709081"/>
     <use style="fill:#4c72b0;" x="120.483316" xlink:href="#m48458eba3d" y="48.525219"/>
     <use style="fill:#4c72b0;" x="122.047262" xlink:href="#m48458eba3d" y="46.584841"/>
     <use style="fill:#4c72b0;" x="123.611208" xlink:href="#m48458eba3d" y="44.8958"/>
     <use style="fill:#4c72b0;" x="125.175154" xlink:href="#m48458eba3d" y="43.465951"/>
     <use style="fill:#4c72b0;" x="126.739099" xlink:href="#m48458eba3d" y="42.303145"/>
     <use style="fill:#4c72b0;" x="128.303045" xlink:href="#m48458eba3d" y="41.415236"/>
     <use style="fill:#4c72b0;" x="129.866991" xlink:href="#m48458eba3d" y="40.810075"/>
     <use style="fill:#4c72b0;" x="131.430937" xlink:href="#m48458eba3d" y="40.495512"/>
     <use style="fill:#4c72b0;" x="132.994883" xlink:href="#m48458eba3d" y="40.495511"/>
     <use style="fill:#4c72b0;" x="134.558829" xlink:href="#m48458eba3d" y="40.533639"/>
     <use style="fill:#4c72b0;" x="136.122775" xlink:href="#m48458eba3d" y="40.495511"/>
     <use style="fill:#4c72b0;" x="137.686721" xlink:href="#m48458eba3d" y="40.495512"/>
     <use style="fill:#4c72b0;" x="139.250667" xlink:href="#m48458eba3d" y="40.495511"/>
     <use style="fill:#4c72b0;" x="140.814613" xlink:href="#m48458eba3d" y="40.495511"/>
     <use style="fill:#4c72b0;" x="142.378559" xlink:href="#m48458eba3d" y="40.495511"/>
     <use style="fill:#4c72b0;" x="143.942505" xlink:href="#m48458eba3d" y="40.495511"/>
     <use style="fill:#4c72b0;" x="145.506451" xlink:href="#m48458eba3d" y="40.495511"/>
     <use style="fill:#4c72b0;" x="147.070397" xlink:href="#m48458eba3d" y="40.495511"/>
     <use style="fill:#4c72b0;" x="148.634343" xlink:href="#m48458eba3d" y="40.495511"/>
     <use style="fill:#4c72b0;" x="150.198289" xlink:href="#m48458eba3d" y="40.495511"/>
     <use style="fill:#4c72b0;" x="151.762234" xlink:href="#m48458eba3d" y="40.495511"/>
     <use style="fill:#4c72b0;" x="153.32618" xlink:href="#m48458eba3d" y="40.495511"/>
     <use style="fill:#4c72b0;" x="154.890126" xlink:href="#m48458eba3d" y="40.495511"/>
     <use style="fill:#4c72b0;" x="156.454072" xlink:href="#m48458eba3d" y="40.495511"/>
     <use style="fill:#4c72b0;" x="158.018018" xlink:href="#m48458eba3d" y="40.495511"/>
     <use style="fill:#4c72b0;" x="159.581964" xlink:href="#m48458eba3d" y="40.495511"/>
     <use style="fill:#4c72b0;" x="161.14591" xlink:href="#m48458eba3d" y="40.495511"/>
     <use style="fill:#4c72b0;" x="162.709856" xlink:href="#m48458eba3d" y="40.495511"/>
     <use style="fill:#4c72b0;" x="164.273802" xlink:href="#m48458eba3d" y="40.495511"/>
     <use style="fill:#4c72b0;" x="165.837748" xlink:href="#m48458eba3d" y="40.495511"/>
     <use style="fill:#4c72b0;" x="167.401694" xlink:href="#m48458eba3d" y="40.495511"/>
     <use style="fill:#4c72b0;" x="168.96564" xlink:href="#m48458eba3d" y="40.495511"/>
     <use style="fill:#4c72b0;" x="170.529586" xlink:href="#m48458eba3d" y="40.495511"/>
     <use style="fill:#4c72b0;" x="172.093532" xlink:href="#m48458eba3d" y="40.495511"/>
     <use style="fill:#4c72b0;" x="173.657478" xlink:href="#m48458eba3d" y="40.495511"/>
     <use style="fill:#4c72b0;" x="175.221423" xlink:href="#m48458eba3d" y="40.495511"/>
     <use style="fill:#4c72b0;" x="176.785369" xlink:href="#m48458eba3d" y="40.495511"/>
     <use style="fill:#4c72b0;" x="178.349315" xlink:href="#m48458eba3d" y="40.495511"/>
     <use style="fill:#4c72b0;" x="179.913261" xlink:href="#m48458eba3d" y="40.495511"/>
     <use style="fill:#4c72b0;" x="181.477207" xlink:href="#m48458eba3d" y="40.495511"/>
     <use style="fill:#4c72b0;" x="183.041153" xlink:href="#m48458eba3d" y="40.495511"/>
     <use style="fill:#4c72b0;" x="184.605099" xlink:href="#m48458eba3d" y="40.495511"/>
     <use style="fill:#4c72b0;" x="186.169045" xlink:href="#m48458eba3d" y="40.495511"/>
     <use style="fill:#4c72b0;" x="187.732991" xlink:href="#m48458eba3d" y="40.495511"/>
     <use style="fill:#4c72b0;" x="189.296937" xlink:href="#m48458eba3d" y="40.495511"/>
     <use style="fill:#4c72b0;" x="190.860883" xlink:href="#m48458eba3d" y="40.495511"/>
     <use style="fill:#4c72b0;" x="192.424829" xlink:href="#m48458eba3d" y="40.495511"/>
     <use style="fill:#4c72b0;" x="193.988775" xlink:href="#m48458eba3d" y="40.495511"/>
     <use style="fill:#4c72b0;" x="195.552721" xlink:href="#m48458eba3d" y="40.520045"/>
     <use style="fill:#4c72b0;" x="197.116667" xlink:href="#m48458eba3d" y="40.495511"/>
     <use style="fill:#4c72b0;" x="198.680613" xlink:href="#m48458eba3d" y="40.495511"/>
     <use style="fill:#4c72b0;" x="200.244558" xlink:href="#m48458eba3d" y="40.837322"/>
     <use style="fill:#4c72b0;" x="201.808504" xlink:href="#m48458eba3d" y="41.476492"/>
     <use style="fill:#4c72b0;" x="203.37245" xlink:href="#m48458eba3d" y="42.18414"/>
     <use style="fill:#4c72b0;" x="204.936396" xlink:href="#m48458eba3d" y="42.891788"/>
     <use style="fill:#4c72b0;" x="206.500342" xlink:href="#m48458eba3d" y="43.599436"/>
     <use style="fill:#4c72b0;" x="208.064288" xlink:href="#m48458eba3d" y="44.307084"/>
     <use style="fill:#4c72b0;" x="209.628234" xlink:href="#m48458eba3d" y="45.014732"/>
     <use style="fill:#4c72b0;" x="211.19218" xlink:href="#m48458eba3d" y="45.72238"/>
     <use style="fill:#4c72b0;" x="212.756126" xlink:href="#m48458eba3d" y="46.430028"/>
     <use style="fill:#4c72b0;" x="214.320072" xlink:href="#m48458eba3d" y="47.137676"/>
     <use style="fill:#4c72b0;" x="215.884018" xlink:href="#m48458eba3d" y="47.845325"/>
     <use style="fill:#4c72b0;" x="217.447964" xlink:href="#m48458eba3d" y="48.552973"/>
     <use style="fill:#4c72b0;" x="219.01191" xlink:href="#m48458eba3d" y="49.260621"/>
     <use style="fill:#4c72b0;" x="220.575856" xlink:href="#m48458eba3d" y="49.968269"/>
     <use style="fill:#4c72b0;" x="222.139802" xlink:href="#m48458eba3d" y="50.675917"/>
     <use style="fill:#4c72b0;" x="223.703747" xlink:href="#m48458eba3d" y="51.383565"/>
     <use style="fill:#4c72b0;" x="225.267693" xlink:href="#m48458eba3d" y="52.091213"/>
     <use style="fill:#4c72b0;" x="226.831639" xlink:href="#m48458eba3d" y="52.798861"/>
     <use style="fill:#4c72b0;" x="228.395585" xlink:href="#m48458eba3d" y="53.506509"/>
     <use style="fill:#4c72b0;" x="229.959531" xlink:href="#m48458eba3d" y="54.214158"/>
     <use style="fill:#4c72b0;" x="231.523477" xlink:href="#m48458eba3d" y="54.921806"/>
     <use style="fill:#4c72b0;" x="233.087423" xlink:href="#m48458eba3d" y="55.629454"/>
     <use style="fill:#4c72b0;" x="234.651369" xlink:href="#m48458eba3d" y="56.337102"/>
     <use style="fill:#4c72b0;" x="236.215315" xlink:href="#m48458eba3d" y="57.04475"/>
     <use style="fill:#4c72b0;" x="237.779261" xlink:href="#m48458eba3d" y="57.752398"/>
     <use style="fill:#4c72b0;" x="239.343207" xlink:href="#m48458eba3d" y="58.460046"/>
     <use style="fill:#4c72b0;" x="240.907153" xlink:href="#m48458eba3d" y="59.167694"/>
     <use style="fill:#4c72b0;" x="242.471099" xlink:href="#m48458eba3d" y="59.875342"/>
     <use style="fill:#4c72b0;" x="244.035045" xlink:href="#m48458eba3d" y="60.582991"/>
     <use style="fill:#4c72b0;" x="245.598991" xlink:href="#m48458eba3d" y="61.290639"/>
     <use style="fill:#4c72b0;" x="247.162937" xlink:href="#m48458eba3d" y="61.998287"/>
     <use style="fill:#4c72b0;" x="248.726882" xlink:href="#m48458eba3d" y="62.705935"/>
     <use style="fill:#4c72b0;" x="250.290828" xlink:href="#m48458eba3d" y="63.413583"/>
     <use style="fill:#4c72b0;" x="251.854774" xlink:href="#m48458eba3d" y="64.121231"/>
     <use style="fill:#4c72b0;" x="253.41872" xlink:href="#m48458eba3d" y="64.828879"/>
     <use style="fill:#4c72b0;" x="254.982666" xlink:href="#m48458eba3d" y="65.536527"/>
     <use style="fill:#4c72b0;" x="256.546612" xlink:href="#m48458eba3d" y="66.244175"/>
     <use style="fill:#4c72b0;" x="258.110558" xlink:href="#m48458eba3d" y="66.951824"/>
     <use style="fill:#4c72b0;" x="259.674504" xlink:href="#m48458eba3d" y="67.659472"/>
     <use style="fill:#4c72b0;" x="261.23845" xlink:href="#m48458eba3d" y="68.36712"/>
     <use style="fill:#4c72b0;" x="262.802396" xlink:href="#m48458eba3d" y="69.074768"/>
     <use style="fill:#4c72b0;" x="264.366342" xlink:href="#m48458eba3d" y="69.782416"/>
     <use style="fill:#4c72b0;" x="265.930288" xlink:href="#m48458eba3d" y="70.490064"/>
     <use style="fill:#4c72b0;" x="267.494234" xlink:href="#m48458eba3d" y="71.197712"/>
     <use style="fill:#4c72b0;" x="269.05818" xlink:href="#m48458eba3d" y="71.90536"/>
     <use style="fill:#4c72b0;" x="270.622126" xlink:href="#m48458eba3d" y="72.613008"/>
     <use style="fill:#4c72b0;" x="272.186071" xlink:href="#m48458eba3d" y="73.320657"/>
     <use style="fill:#4c72b0;" x="273.750017" xlink:href="#m48458eba3d" y="74.028305"/>
     <use style="fill:#4c72b0;" x="275.313963" xlink:href="#m48458eba3d" y="74.735953"/>
     <use style="fill:#4c72b0;" x="276.877909" xlink:href="#m48458eba3d" y="75.443601"/>
     <use style="fill:#4c72b0;" x="278.441855" xlink:href="#m48458eba3d" y="76.151249"/>
     <use style="fill:#4c72b0;" x="280.005801" xlink:href="#m48458eba3d" y="76.858897"/>
     <use style="fill:#4c72b0;" x="281.569747" xlink:href="#m48458eba3d" y="77.566545"/>
     <use style="fill:#4c72b0;" x="283.133693" xlink:href="#m48458eba3d" y="78.299788"/>
     <use style="fill:#4c72b0;" x="284.697639" xlink:href="#m48458eba3d" y="79.125732"/>
     <use style="fill:#4c72b0;" x="286.261585" xlink:href="#m48458eba3d" y="80.086849"/>
     <use style="fill:#4c72b0;" x="287.825531" xlink:href="#m48458eba3d" y="81.186118"/>
     <use style="fill:#4c72b0;" x="289.389477" xlink:href="#m48458eba3d" y="82.426033"/>
     <use style="fill:#4c72b0;" x="290.953423" xlink:href="#m48458eba3d" y="83.809716"/>
     <use style="fill:#4c72b0;" x="292.517369" xlink:href="#m48458eba3d" y="85.340553"/>
     <use style="fill:#4c72b0;" x="294.081315" xlink:href="#m48458eba3d" y="87.022652"/>
     <use style="fill:#4c72b0;" x="295.645261" xlink:href="#m48458eba3d" y="88.860424"/>
     <use style="fill:#4c72b0;" x="297.209206" xlink:href="#m48458eba3d" y="90.85912"/>
     <use style="fill:#4c72b0;" x="298.773152" xlink:href="#m48458eba3d" y="93.02435"/>
     <use style="fill:#4c72b0;" x="300.337098" xlink:href="#m48458eba3d" y="95.36272"/>
     <use style="fill:#4c72b0;" x="301.901044" xlink:href="#m48458eba3d" y="97.881277"/>
     <use style="fill:#4c72b0;" x="303.46499" xlink:href="#m48458eba3d" y="100.588271"/>
     <use style="fill:#4c72b0;" x="305.028936" xlink:href="#m48458eba3d" y="103.492465"/>
     <use style="fill:#4c72b0;" x="306.592882" xlink:href="#m48458eba3d" y="106.602485"/>
     <use style="fill:#4c72b0;" x="308.156828" xlink:href="#m48458eba3d" y="109.874927"/>
     <use style="fill:#4c72b0;" x="309.720774" xlink:href="#m48458eba3d" y="113.202495"/>
     <use style="fill:#4c72b0;" x="311.28472" xlink:href="#m48458eba3d" y="116.529951"/>
     <use style="fill:#4c72b0;" x="312.848666" xlink:href="#m48458eba3d" y="119.857506"/>
     <use style="fill:#4c72b0;" x="314.412612" xlink:href="#m48458eba3d" y="123.18497"/>
     <use style="fill:#4c72b0;" x="315.976558" xlink:href="#m48458eba3d" y="126.512518"/>
     <use style="fill:#4c72b0;" x="317.540504" xlink:href="#m48458eba3d" y="129.839989"/>
     <use style="fill:#4c72b0;" x="319.10445" xlink:href="#m48458eba3d" y="133.167531"/>
     <use style="fill:#4c72b0;" x="320.668395" xlink:href="#m48458eba3d" y="136.495007"/>
     <use style="fill:#4c72b0;" x="322.232341" xlink:href="#m48458eba3d" y="139.822545"/>
     <use style="fill:#4c72b0;" x="323.796287" xlink:href="#m48458eba3d" y="143.150024"/>
     <use style="fill:#4c72b0;" x="325.360233" xlink:href="#m48458eba3d" y="146.477559"/>
     <use style="fill:#4c72b0;" x="326.924179" xlink:href="#m48458eba3d" y="149.80504"/>
     <use style="fill:#4c72b0;" x="328.488125" xlink:href="#m48458eba3d" y="153.132573"/>
     <use style="fill:#4c72b0;" x="330.052071" xlink:href="#m48458eba3d" y="156.460056"/>
     <use style="fill:#4c72b0;" x="331.616017" xlink:href="#m48458eba3d" y="159.787589"/>
     <use style="fill:#4c72b0;" x="333.179963" xlink:href="#m48458eba3d" y="163.115071"/>
     <use style="fill:#4c72b0;" x="334.743909" xlink:href="#m48458eba3d" y="166.442605"/>
     <use style="fill:#4c72b0;" x="336.307855" xlink:href="#m48458eba3d" y="169.770086"/>
     <use style="fill:#4c72b0;" x="337.871801" xlink:href="#m48458eba3d" y="173.097621"/>
     <use style="fill:#4c72b0;" x="339.435747" xlink:href="#m48458eba3d" y="176.4251"/>
     <use style="fill:#4c72b0;" x="340.999693" xlink:href="#m48458eba3d" y="179.752638"/>
     <use style="fill:#4c72b0;" x="342.563639" xlink:href="#m48458eba3d" y="183.080113"/>
     <use style="fill:#4c72b0;" x="344.127585" xlink:href="#m48458eba3d" y="186.407656"/>
     <use style="fill:#4c72b0;" x="345.69153" xlink:href="#m48458eba3d" y="189.735126"/>
     <use style="fill:#4c72b0;" x="347.255476" xlink:href="#m48458eba3d" y="193.062674"/>
     <use style="fill:#4c72b0;" x="348.819422" xlink:href="#m48458eba3d" y="196.390138"/>
     <use style="fill:#4c72b0;" x="350.383368" xlink:href="#m48458eba3d" y="199.717694"/>
     <use style="fill:#4c72b0;" x="351.947314" xlink:href="#m48458eba3d" y="203.04515"/>
     <use style="fill:#4c72b0;" x="353.51126" xlink:href="#m48458eba3d" y="206.372714"/>
     <use style="fill:#4c72b0;" x="355.075206" xlink:href="#m48458eba3d" y="209.70016"/>
     <use style="fill:#4c72b0;" x="356.639152" xlink:href="#m48458eba3d" y="213.027736"/>
     <use style="fill:#4c72b0;" x="358.203098" xlink:href="#m48458eba3d" y="216.355172"/>
     <use style="fill:#4c72b0;" x="359.767044" xlink:href="#m48458eba3d" y="219.68276"/>
     <use style="fill:#4c72b0;" x="361.33099" xlink:href="#m48458eba3d" y="223.010197"/>
     <use style="fill:#4c72b0;" x="362.894936" xlink:href="#m48458eba3d" y="226.337785"/>
     <use style="fill:#4c72b0;" x="364.458882" xlink:href="#m48458eba3d" y="229.665268"/>
     <use style="fill:#4c72b0;" x="366.022828" xlink:href="#m48458eba3d" y="232.99281"/>
     <use style="fill:#4c72b0;" x="367.586774" xlink:href="#m48458eba3d" y="236.320293"/>
     <use style="fill:#4c72b0;" x="369.150719" xlink:href="#m48458eba3d" y="239.647837"/>
     <use style="fill:#4c72b0;" x="370.714665" xlink:href="#m48458eba3d" y="242.975319"/>
     <use style="fill:#4c72b0;" x="372.278611" xlink:href="#m48458eba3d" y="246.302864"/>
     <use style="fill:#4c72b0;" x="373.842557" xlink:href="#m48458eba3d" y="249.630345"/>
     <use style="fill:#4c72b0;" x="375.406503" xlink:href="#m48458eba3d" y="252.957892"/>
     <use style="fill:#4c72b0;" x="376.970449" xlink:href="#m48458eba3d" y="256.285372"/>
     <use style="fill:#4c72b0;" x="378.534395" xlink:href="#m48458eba3d" y="259.612921"/>
     <use style="fill:#4c72b0;" x="380.098341" xlink:href="#m48458eba3d" y="262.9404"/>
     <use style="fill:#4c72b0;" x="381.662287" xlink:href="#m48458eba3d" y="266.267952"/>
     <use style="fill:#4c72b0;" x="383.226233" xlink:href="#m48458eba3d" y="269.59543"/>
     <use style="fill:#4c72b0;" x="384.790179" xlink:href="#m48458eba3d" y="272.922984"/>
     <use style="fill:#4c72b0;" x="386.354125" xlink:href="#m48458eba3d" y="276.250461"/>
     <use style="fill:#4c72b0;" x="387.918071" xlink:href="#m48458eba3d" y="279.578018"/>
     <use style="fill:#4c72b0;" x="389.482017" xlink:href="#m48458eba3d" y="282.905494"/>
     <use style="fill:#4c72b0;" x="391.045963" xlink:href="#m48458eba3d" y="286.233054"/>
     <use style="fill:#4c72b0;" x="392.609909" xlink:href="#m48458eba3d" y="289.560529"/>
     <use style="fill:#4c72b0;" x="394.173854" xlink:href="#m48458eba3d" y="292.888092"/>
     <use style="fill:#4c72b0;" x="395.7378" xlink:href="#m48458eba3d" y="296.215566"/>
     <use style="fill:#4c72b0;" x="397.301746" xlink:href="#m48458eba3d" y="299.543132"/>
     <use style="fill:#4c72b0;" x="398.865692" xlink:href="#m48458eba3d" y="302.870606"/>
     <use style="fill:#4c72b0;" x="400.429638" xlink:href="#m48458eba3d" y="306.198175"/>
     <use style="fill:#4c72b0;" x="401.993584" xlink:href="#m48458eba3d" y="309.525648"/>
     <use style="fill:#4c72b0;" x="403.55753" xlink:href="#m48458eba3d" y="312.853222"/>
     <use style="fill:#4c72b0;" x="405.121476" xlink:href="#m48458eba3d" y="316.180698"/>
     <use style="fill:#4c72b0;" x="406.685422" xlink:href="#m48458eba3d" y="319.508272"/>
     <use style="fill:#4c72b0;" x="408.249368" xlink:href="#m48458eba3d" y="322.835725"/>
     <use style="fill:#4c72b0;" x="409.813314" xlink:href="#m48458eba3d" y="326.163329"/>
     <use style="fill:#4c72b0;" x="411.37726" xlink:href="#m48458eba3d" y="329.421939"/>
     <use style="fill:#4c72b0;" x="412.941206" xlink:href="#m48458eba3d" y="332.384074"/>
     <use style="fill:#4c72b0;" x="414.505152" xlink:href="#m48458eba3d" y="334.887184"/>
     <use style="fill:#4c72b0;" x="416.069098" xlink:href="#m48458eba3d" y="336.931122"/>
     <use style="fill:#4c72b0;" x="417.633043" xlink:href="#m48458eba3d" y="338.513727"/>
     <use style="fill:#4c72b0;" x="419.196989" xlink:href="#m48458eba3d" y="339.636261"/>
     <use style="fill:#4c72b0;" x="420.760935" xlink:href="#m48458eba3d" y="340.307545"/>
     <use style="fill:#4c72b0;" x="422.324881" xlink:href="#m48458eba3d" y="340.480739"/>
     <use style="fill:#4c72b0;" x="423.888827" xlink:href="#m48458eba3d" y="340.480739"/>
     <use style="fill:#4c72b0;" x="425.452773" xlink:href="#m48458eba3d" y="340.480739"/>
     <use style="fill:#4c72b0;" x="427.016719" xlink:href="#m48458eba3d" y="340.455526"/>
     <use style="fill:#4c72b0;" x="428.580665" xlink:href="#m48458eba3d" y="340.480738"/>
     <use style="fill:#4c72b0;" x="430.144611" xlink:href="#m48458eba3d" y="340.480738"/>
     <use style="fill:#4c72b0;" x="431.708557" xlink:href="#m48458eba3d" y="340.480736"/>
     <use style="fill:#4c72b0;" x="433.272503" xlink:href="#m48458eba3d" y="340.480738"/>
     <use style="fill:#4c72b0;" x="434.836449" xlink:href="#m48458eba3d" y="340.480734"/>
     <use style="fill:#4c72b0;" x="436.400395" xlink:href="#m48458eba3d" y="340.480738"/>
     <use style="fill:#4c72b0;" x="437.964341" xlink:href="#m48458eba3d" y="340.480723"/>
     <use style="fill:#4c72b0;" x="439.528287" xlink:href="#m48458eba3d" y="340.480738"/>
     <use style="fill:#4c72b0;" x="441.092233" xlink:href="#m48458eba3d" y="340.48067"/>
     <use style="fill:#4c72b0;" x="442.656178" xlink:href="#m48458eba3d" y="340.480738"/>
     <use style="fill:#4c72b0;" x="444.220124" xlink:href="#m48458eba3d" y="340.48058"/>
     <use style="fill:#4c72b0;" x="445.78407" xlink:href="#m48458eba3d" y="340.480738"/>
     <use style="fill:#4c72b0;" x="447.348016" xlink:href="#m48458eba3d" y="340.480603"/>
     <use style="fill:#4c72b0;" x="448.911962" xlink:href="#m48458eba3d" y="340.480738"/>
     <use style="fill:#4c72b0;" x="450.475908" xlink:href="#m48458eba3d" y="340.480607"/>
     <use style="fill:#4c72b0;" x="452.039854" xlink:href="#m48458eba3d" y="340.480738"/>
     <use style="fill:#4c72b0;" x="453.6038" xlink:href="#m48458eba3d" y="340.480636"/>
     <use style="fill:#4c72b0;" x="455.167746" xlink:href="#m48458eba3d" y="340.480738"/>
     <use style="fill:#4c72b0;" x="456.731692" xlink:href="#m48458eba3d" y="340.480695"/>
     <use style="fill:#4c72b0;" x="458.295638" xlink:href="#m48458eba3d" y="340.480738"/>
     <use style="fill:#4c72b0;" x="459.859584" xlink:href="#m48458eba3d" y="340.479779"/>
     <use style="fill:#4c72b0;" x="461.42353" xlink:href="#m48458eba3d" y="340.480738"/>
     <use style="fill:#4c72b0;" x="462.987476" xlink:href="#m48458eba3d" y="340.480738"/>
     <use style="fill:#4c72b0;" x="464.551422" xlink:href="#m48458eba3d" y="340.480735"/>
     <use style="fill:#4c72b0;" x="466.115367" xlink:href="#m48458eba3d" y="340.480738"/>
     <use style="fill:#4c72b0;" x="467.679313" xlink:href="#m48458eba3d" y="340.480737"/>
     <use style="fill:#4c72b0;" x="469.243259" xlink:href="#m48458eba3d" y="340.480738"/>
     <use style="fill:#4c72b0;" x="470.807205" xlink:href="#m48458eba3d" y="340.480737"/>
     <use style="fill:#4c72b0;" x="472.371151" xlink:href="#m48458eba3d" y="340.480737"/>
     <use style="fill:#4c72b0;" x="473.935097" xlink:href="#m48458eba3d" y="340.480738"/>
     <use style="fill:#4c72b0;" x="475.499043" xlink:href="#m48458eba3d" y="340.465981"/>
     <use style="fill:#4c72b0;" x="477.062989" xlink:href="#m48458eba3d" y="340.423762"/>
     <use style="fill:#4c72b0;" x="478.626935" xlink:href="#m48458eba3d" y="340.480739"/>
     <use style="fill:#4c72b0;" x="480.190881" xlink:href="#m48458eba3d" y="340.480738"/>
     <use style="fill:#4c72b0;" x="481.754827" xlink:href="#m48458eba3d" y="340.166175"/>
     <use style="fill:#4c72b0;" x="483.318773" xlink:href="#m48458eba3d" y="339.561014"/>
     <use style="fill:#4c72b0;" x="484.882719" xlink:href="#m48458eba3d" y="338.673105"/>
     <use style="fill:#4c72b0;" x="486.446665" xlink:href="#m48458eba3d" y="337.510299"/>
     <use style="fill:#4c72b0;" x="488.010611" xlink:href="#m48458eba3d" y="336.08045"/>
     <use style="fill:#4c72b0;" x="489.574557" xlink:href="#m48458eba3d" y="334.391409"/>
     <use style="fill:#4c72b0;" x="491.138502" xlink:href="#m48458eba3d" y="332.451031"/>
     <use style="fill:#4c72b0;" x="492.702448" xlink:href="#m48458eba3d" y="330.267169"/>
     <use style="fill:#4c72b0;" x="494.266394" xlink:href="#m48458eba3d" y="327.847678"/>
     <use style="fill:#4c72b0;" x="495.83034" xlink:href="#m48458eba3d" y="325.20041"/>
     <use style="fill:#4c72b0;" x="497.394286" xlink:href="#m48458eba3d" y="322.333221"/>
     <use style="fill:#4c72b0;" x="498.958232" xlink:href="#m48458eba3d" y="319.253963"/>
     <use style="fill:#4c72b0;" x="500.522178" xlink:href="#m48458eba3d" y="315.970492"/>
     <use style="fill:#4c72b0;" x="502.086124" xlink:href="#m48458eba3d" y="312.490661"/>
     <use style="fill:#4c72b0;" x="503.65007" xlink:href="#m48458eba3d" y="308.822325"/>
     <use style="fill:#4c72b0;" x="505.214016" xlink:href="#m48458eba3d" y="304.973338"/>
     <use style="fill:#4c72b0;" x="506.777962" xlink:href="#m48458eba3d" y="300.951554"/>
     <use style="fill:#4c72b0;" x="508.341908" xlink:href="#m48458eba3d" y="296.764827"/>
     <use style="fill:#4c72b0;" x="509.905854" xlink:href="#m48458eba3d" y="292.421013"/>
     <use style="fill:#4c72b0;" x="511.4698" xlink:href="#m48458eba3d" y="287.927964"/>
     <use style="fill:#4c72b0;" x="513.033746" xlink:href="#m48458eba3d" y="283.293536"/>
     <use style="fill:#4c72b0;" x="514.597691" xlink:href="#m48458eba3d" y="278.525583"/>
     <use style="fill:#4c72b0;" x="516.161637" xlink:href="#m48458eba3d" y="273.631958"/>
     <use style="fill:#4c72b0;" x="517.725583" xlink:href="#m48458eba3d" y="268.620518"/>
     <use style="fill:#4c72b0;" x="519.289529" xlink:href="#m48458eba3d" y="263.499116"/>
     <use style="fill:#4c72b0;" x="520.853475" xlink:href="#m48458eba3d" y="258.275606"/>
     <use style="fill:#4c72b0;" x="522.417421" xlink:href="#m48458eba3d" y="252.957842"/>
     <use style="fill:#4c72b0;" x="523.981367" xlink:href="#m48458eba3d" y="247.553681"/>
     <use style="fill:#4c72b0;" x="525.545313" xlink:href="#m48458eba3d" y="242.070974"/>
     <use style="fill:#4c72b0;" x="527.109259" xlink:href="#m48458eba3d" y="236.517578"/>
     <use style="fill:#4c72b0;" x="528.673205" xlink:href="#m48458eba3d" y="230.901347"/>
     <use style="fill:#4c72b0;" x="530.237151" xlink:href="#m48458eba3d" y="225.230134"/>
     <use style="fill:#4c72b0;" x="531.801097" xlink:href="#m48458eba3d" y="219.511795"/>
     <use style="fill:#4c72b0;" x="533.365043" xlink:href="#m48458eba3d" y="213.754184"/>
     <use style="fill:#4c72b0;" x="534.928989" xlink:href="#m48458eba3d" y="207.965155"/>
     <use style="fill:#4c72b0;" x="536.492935" xlink:href="#m48458eba3d" y="202.152563"/>
     <use style="fill:#4c72b0;" x="538.056881" xlink:href="#m48458eba3d" y="196.324263"/>
     <use style="fill:#4c72b0;" x="539.620826" xlink:href="#m48458eba3d" y="190.488107"/>
    </g>
   </g>
   <g id="patch_3">
    <path d="M 48.62 355.48 
L 48.62 25.49625 
" style="fill:none;"/>
   </g>
   <g id="patch_4">
    <path d="M 563.001818 355.48 
L 563.001818 25.49625 
" style="fill:none;"/>
   </g>
   <g id="patch_5">
    <path d="M 48.62 355.48 
L 563.001818 355.48 
" style="fill:none;"/>
   </g>
   <g id="patch_6">
    <path d="M 48.62 25.49625 
L 563.001818 25.49625 
" style="fill:none;"/>
   </g>
   <g id="text_15">
    <!-- Battery Charge over a Day -->
    <defs>
     <path d="M 21 0 
L 1.265625 51.859375 
L 10.546875 51.859375 
L 21.6875 20.796875 
Q 23.484375 15.765625 25 10.359375 
Q 26.171875 14.453125 28.265625 20.21875 
L 39.796875 51.859375 
L 48.828125 51.859375 
L 29.203125 0 
z
" id="ArialMT-118"/>
     <path d="M 7.71875 0 
L 7.71875 71.578125 
L 32.375 71.578125 
Q 40.71875 71.578125 45.125 70.5625 
Q 51.265625 69.140625 55.609375 65.4375 
Q 61.28125 60.640625 64.078125 53.1875 
Q 66.890625 45.75 66.890625 36.1875 
Q 66.890625 28.03125 64.984375 21.734375 
Q 63.09375 15.4375 60.109375 11.296875 
Q 57.125 7.171875 53.578125 4.796875 
Q 50.046875 2.4375 45.046875 1.21875 
Q 40.046875 0 33.546875 0 
z
M 17.1875 8.453125 
L 32.46875 8.453125 
Q 39.546875 8.453125 43.578125 9.765625 
Q 47.609375 11.078125 50 13.484375 
Q 53.375 16.84375 55.25 22.53125 
Q 57.125 28.21875 57.125 36.328125 
Q 57.125 47.5625 53.4375 53.59375 
Q 49.75 59.625 44.484375 61.671875 
Q 40.671875 63.140625 32.234375 63.140625 
L 17.1875 63.140625 
z
" id="ArialMT-68"/>
    </defs>
    <g style="fill:#262626;" transform="translate(234.782159 19.49625)scale(0.12 -0.12)">
     <use xlink:href="#ArialMT-66"/>
     <use x="66.699219" xlink:href="#ArialMT-97"/>
     <use x="122.314453" xlink:href="#ArialMT-116"/>
     <use x="150.097656" xlink:href="#ArialMT-116"/>
     <use x="177.880859" xlink:href="#ArialMT-101"/>
     <use x="233.496094" xlink:href="#ArialMT-114"/>
     <use x="266.796875" xlink:href="#ArialMT-121"/>
     <use x="316.796875" xlink:href="#ArialMT-32"/>
     <use x="344.580078" xlink:href="#ArialMT-67"/>
     <use x="416.796875" xlink:href="#ArialMT-104"/>
     <use x="472.412109" xlink:href="#ArialMT-97"/>
     <use x="528.027344" xlink:href="#ArialMT-114"/>
     <use x="561.328125" xlink:href="#ArialMT-103"/>
     <use x="616.943359" xlink:href="#ArialMT-101"/>
     <use x="672.558594" xlink:href="#ArialMT-32"/>
     <use x="700.341797" xlink:href="#ArialMT-111"/>
     <use x="755.957031" xlink:href="#ArialMT-118"/>
     <use x="805.957031" xlink:href="#ArialMT-101"/>
     <use x="861.572266" xlink:href="#ArialMT-114"/>
     <use x="894.873047" xlink:href="#ArialMT-32"/>
     <use x="922.65625" xlink:href="#ArialMT-97"/>
     <use x="978.271484" xlink:href="#ArialMT-32"/>
     <use x="1006.054688" xlink:href="#ArialMT-68"/>
     <use x="1078.271484" xlink:href="#ArialMT-97"/>
     <use x="1133.886719" xlink:href="#ArialMT-121"/>
    </g>
   </g>
  </g>
 </g>
 <defs>
  <clipPath id="p98fcedbc3f">
   <rect height="329.98375" width="514.381818" x="48.62" y="25.49625"/>
  </clipPath>
 </defs>
</svg>
