<?xml version="1.0" encoding="utf-8" standalone="no"?>
<!DOCTYPE svg PUBLIC "-//W3C//DTD SVG 1.1//EN"
  "http://www.w3.org/Graphics/SVG/1.1/DTD/svg11.dtd">
<!-- Created with matplotlib (https://matplotlib.org/) -->
<svg height="396pt" version="1.1" viewBox="0 0 576 396" width="576pt" xmlns="http://www.w3.org/2000/svg" xmlns:xlink="http://www.w3.org/1999/xlink">
 <defs>
  <style type="text/css">
*{stroke-linecap:butt;stroke-linejoin:round;}
  </style>
 </defs>
 <g id="figure_1">
  <g id="patch_1">
   <path d="M 0 396 
L 576 396 
L 576 0 
L 0 0 
z
" style="fill:#ffffff;"/>
  </g>
  <g id="axes_1">
   <g id="patch_2">
    <path d="M 43.04 355.48 
L 563.001818 355.48 
L 563.001818 25.44 
L 43.04 25.44 
z
" style="fill:#eaeaf2;"/>
   </g>
   <g id="matplotlib.axis_1">
    <g id="xtick_1">
     <g id="line2d_1">
      <path clip-path="url(#p9aafdc51e8)" d="M 66.674628 355.48 
L 66.674628 25.44 
" style="fill:none;stroke:#ffffff;stroke-linecap:round;"/>
     </g>
     <g id="line2d_2"/>
     <g id="text_1">
      <!-- 0 -->
      <defs>
       <path d="M 4.15625 35.296875 
Q 4.15625 48 6.765625 55.734375 
Q 9.375 63.484375 14.515625 67.671875 
Q 19.671875 71.875 27.484375 71.875 
Q 33.25 71.875 37.59375 69.546875 
Q 41.9375 67.234375 44.765625 62.859375 
Q 47.609375 58.5 49.21875 52.21875 
Q 50.828125 45.953125 50.828125 35.296875 
Q 50.828125 22.703125 48.234375 14.96875 
Q 45.65625 7.234375 40.5 3 
Q 35.359375 -1.21875 27.484375 -1.21875 
Q 17.140625 -1.21875 11.234375 6.203125 
Q 4.15625 15.140625 4.15625 35.296875 
z
M 13.1875 35.296875 
Q 13.1875 17.671875 17.3125 11.828125 
Q 21.4375 6 27.484375 6 
Q 33.546875 6 37.671875 11.859375 
Q 41.796875 17.71875 41.796875 35.296875 
Q 41.796875 52.984375 37.671875 58.78125 
Q 33.546875 64.59375 27.390625 64.59375 
Q 21.34375 64.59375 17.71875 59.46875 
Q 13.1875 52.9375 13.1875 35.296875 
z
" id="ArialMT-48"/>
      </defs>
      <g style="fill:#262626;" transform="translate(63.894159 369.637812)scale(0.1 -0.1)">
       <use xlink:href="#ArialMT-48"/>
      </g>
     </g>
    </g>
    <g id="xtick_2">
     <g id="line2d_3">
      <path clip-path="url(#p9aafdc51e8)" d="M 165.152245 355.48 
L 165.152245 25.44 
" style="fill:none;stroke:#ffffff;stroke-linecap:round;"/>
     </g>
     <g id="line2d_4"/>
     <g id="text_2">
      <!-- 5 -->
      <defs>
       <path d="M 4.15625 18.75 
L 13.375 19.53125 
Q 14.40625 12.796875 18.140625 9.390625 
Q 21.875 6 27.15625 6 
Q 33.5 6 37.890625 10.78125 
Q 42.28125 15.578125 42.28125 23.484375 
Q 42.28125 31 38.0625 35.34375 
Q 33.84375 39.703125 27 39.703125 
Q 22.75 39.703125 19.328125 37.765625 
Q 15.921875 35.84375 13.96875 32.765625 
L 5.71875 33.84375 
L 12.640625 70.609375 
L 48.25 70.609375 
L 48.25 62.203125 
L 19.671875 62.203125 
L 15.828125 42.96875 
Q 22.265625 47.46875 29.34375 47.46875 
Q 38.71875 47.46875 45.15625 40.96875 
Q 51.609375 34.46875 51.609375 24.265625 
Q 51.609375 14.546875 45.953125 7.46875 
Q 39.0625 -1.21875 27.15625 -1.21875 
Q 17.390625 -1.21875 11.203125 4.25 
Q 5.03125 9.71875 4.15625 18.75 
z
" id="ArialMT-53"/>
      </defs>
      <g style="fill:#262626;" transform="translate(162.371776 369.637812)scale(0.1 -0.1)">
       <use xlink:href="#ArialMT-53"/>
      </g>
     </g>
    </g>
    <g id="xtick_3">
     <g id="line2d_5">
      <path clip-path="url(#p9aafdc51e8)" d="M 263.629862 355.48 
L 263.629862 25.44 
" style="fill:none;stroke:#ffffff;stroke-linecap:round;"/>
     </g>
     <g id="line2d_6"/>
     <g id="text_3">
      <!-- 10 -->
      <defs>
       <path d="M 37.25 0 
L 28.46875 0 
L 28.46875 56 
Q 25.296875 52.984375 20.140625 49.953125 
Q 14.984375 46.921875 10.890625 45.40625 
L 10.890625 53.90625 
Q 18.265625 57.375 23.78125 62.296875 
Q 29.296875 67.234375 31.59375 71.875 
L 37.25 71.875 
z
" id="ArialMT-49"/>
      </defs>
      <g style="fill:#262626;" transform="translate(258.068925 369.637812)scale(0.1 -0.1)">
       <use xlink:href="#ArialMT-49"/>
       <use x="55.615234" xlink:href="#ArialMT-48"/>
      </g>
     </g>
    </g>
    <g id="xtick_4">
     <g id="line2d_7">
      <path clip-path="url(#p9aafdc51e8)" d="M 362.107479 355.48 
L 362.107479 25.44 
" style="fill:none;stroke:#ffffff;stroke-linecap:round;"/>
     </g>
     <g id="line2d_8"/>
     <g id="text_4">
      <!-- 15 -->
      <g style="fill:#262626;" transform="translate(356.546542 369.637812)scale(0.1 -0.1)">
       <use xlink:href="#ArialMT-49"/>
       <use x="55.615234" xlink:href="#ArialMT-53"/>
      </g>
     </g>
    </g>
    <g id="xtick_5">
     <g id="line2d_9">
      <path clip-path="url(#p9aafdc51e8)" d="M 460.585096 355.48 
L 460.585096 25.44 
" style="fill:none;stroke:#ffffff;stroke-linecap:round;"/>
     </g>
     <g id="line2d_10"/>
     <g id="text_5">
      <!-- 20 -->
      <defs>
       <path d="M 50.34375 8.453125 
L 50.34375 0 
L 3.03125 0 
Q 2.9375 3.171875 4.046875 6.109375 
Q 5.859375 10.9375 9.828125 15.625 
Q 13.8125 20.3125 21.34375 26.46875 
Q 33.015625 36.03125 37.109375 41.625 
Q 41.21875 47.21875 41.21875 52.203125 
Q 41.21875 57.421875 37.46875 61 
Q 33.734375 64.59375 27.734375 64.59375 
Q 21.390625 64.59375 17.578125 60.78125 
Q 13.765625 56.984375 13.71875 50.25 
L 4.6875 51.171875 
Q 5.609375 61.28125 11.65625 66.578125 
Q 17.71875 71.875 27.9375 71.875 
Q 38.234375 71.875 44.234375 66.15625 
Q 50.25 60.453125 50.25 52 
Q 50.25 47.703125 48.484375 43.546875 
Q 46.734375 39.40625 42.65625 34.8125 
Q 38.578125 30.21875 29.109375 22.21875 
Q 21.1875 15.578125 18.9375 13.203125 
Q 16.703125 10.84375 15.234375 8.453125 
z
" id="ArialMT-50"/>
      </defs>
      <g style="fill:#262626;" transform="translate(455.024159 369.637812)scale(0.1 -0.1)">
       <use xlink:href="#ArialMT-50"/>
       <use x="55.615234" xlink:href="#ArialMT-48"/>
      </g>
     </g>
    </g>
    <g id="xtick_6">
     <g id="line2d_11">
      <path clip-path="url(#p9aafdc51e8)" d="M 559.062713 355.48 
L 559.062713 25.44 
" style="fill:none;stroke:#ffffff;stroke-linecap:round;"/>
     </g>
     <g id="line2d_12"/>
     <g id="text_6">
      <!-- 25 -->
      <g style="fill:#262626;" transform="translate(553.501776 369.637812)scale(0.1 -0.1)">
       <use xlink:href="#ArialMT-50"/>
       <use x="55.615234" xlink:href="#ArialMT-53"/>
      </g>
     </g>
    </g>
    <g id="text_7">
     <!-- Time after Solar Noon [hours] -->
     <defs>
      <path d="M 25.921875 0 
L 25.921875 63.140625 
L 2.34375 63.140625 
L 2.34375 71.578125 
L 59.078125 71.578125 
L 59.078125 63.140625 
L 35.40625 63.140625 
L 35.40625 0 
z
" id="ArialMT-84"/>
      <path d="M 6.640625 61.46875 
L 6.640625 71.578125 
L 15.4375 71.578125 
L 15.4375 61.46875 
z
M 6.640625 0 
L 6.640625 51.859375 
L 15.4375 51.859375 
L 15.4375 0 
z
" id="ArialMT-105"/>
      <path d="M 6.59375 0 
L 6.59375 51.859375 
L 14.453125 51.859375 
L 14.453125 44.578125 
Q 16.890625 48.390625 20.9375 50.703125 
Q 25 53.03125 30.171875 53.03125 
Q 35.9375 53.03125 39.625 50.640625 
Q 43.3125 48.25 44.828125 43.953125 
Q 50.984375 53.03125 60.84375 53.03125 
Q 68.5625 53.03125 72.703125 48.75 
Q 76.859375 44.484375 76.859375 35.59375 
L 76.859375 0 
L 68.109375 0 
L 68.109375 32.671875 
Q 68.109375 37.9375 67.25 40.25 
Q 66.40625 42.578125 64.15625 43.984375 
Q 61.921875 45.40625 58.890625 45.40625 
Q 53.421875 45.40625 49.796875 41.765625 
Q 46.1875 38.140625 46.1875 30.125 
L 46.1875 0 
L 37.40625 0 
L 37.40625 33.6875 
Q 37.40625 39.546875 35.25 42.46875 
Q 33.109375 45.40625 28.21875 45.40625 
Q 24.515625 45.40625 21.359375 43.453125 
Q 18.21875 41.5 16.796875 37.734375 
Q 15.375 33.984375 15.375 26.90625 
L 15.375 0 
z
" id="ArialMT-109"/>
      <path d="M 42.09375 16.703125 
L 51.171875 15.578125 
Q 49.03125 7.625 43.21875 3.21875 
Q 37.40625 -1.171875 28.375 -1.171875 
Q 17 -1.171875 10.328125 5.828125 
Q 3.65625 12.84375 3.65625 25.484375 
Q 3.65625 38.578125 10.390625 45.796875 
Q 17.140625 53.03125 27.875 53.03125 
Q 38.28125 53.03125 44.875 45.953125 
Q 51.46875 38.875 51.46875 26.03125 
Q 51.46875 25.25 51.421875 23.6875 
L 12.75 23.6875 
Q 13.234375 15.140625 17.578125 10.59375 
Q 21.921875 6.0625 28.421875 6.0625 
Q 33.25 6.0625 36.671875 8.59375 
Q 40.09375 11.140625 42.09375 16.703125 
z
M 13.234375 30.90625 
L 42.1875 30.90625 
Q 41.609375 37.453125 38.875 40.71875 
Q 34.671875 45.796875 27.984375 45.796875 
Q 21.921875 45.796875 17.796875 41.75 
Q 13.671875 37.703125 13.234375 30.90625 
z
" id="ArialMT-101"/>
      <path id="ArialMT-32"/>
      <path d="M 40.4375 6.390625 
Q 35.546875 2.25 31.03125 0.53125 
Q 26.515625 -1.171875 21.34375 -1.171875 
Q 12.796875 -1.171875 8.203125 3 
Q 3.609375 7.171875 3.609375 13.671875 
Q 3.609375 17.484375 5.34375 20.625 
Q 7.078125 23.78125 9.890625 25.6875 
Q 12.703125 27.59375 16.21875 28.5625 
Q 18.796875 29.25 24.03125 29.890625 
Q 34.671875 31.15625 39.703125 32.90625 
Q 39.75 34.71875 39.75 35.203125 
Q 39.75 40.578125 37.25 42.78125 
Q 33.890625 45.75 27.25 45.75 
Q 21.046875 45.75 18.09375 43.578125 
Q 15.140625 41.40625 13.71875 35.890625 
L 5.125 37.0625 
Q 6.296875 42.578125 8.984375 45.96875 
Q 11.671875 49.359375 16.75 51.1875 
Q 21.828125 53.03125 28.515625 53.03125 
Q 35.15625 53.03125 39.296875 51.46875 
Q 43.453125 49.90625 45.40625 47.53125 
Q 47.359375 45.171875 48.140625 41.546875 
Q 48.578125 39.3125 48.578125 33.453125 
L 48.578125 21.734375 
Q 48.578125 9.46875 49.140625 6.21875 
Q 49.703125 2.984375 51.375 0 
L 42.1875 0 
Q 40.828125 2.734375 40.4375 6.390625 
z
M 39.703125 26.03125 
Q 34.90625 24.078125 25.34375 22.703125 
Q 19.921875 21.921875 17.671875 20.9375 
Q 15.4375 19.96875 14.203125 18.09375 
Q 12.984375 16.21875 12.984375 13.921875 
Q 12.984375 10.40625 15.640625 8.0625 
Q 18.3125 5.71875 23.4375 5.71875 
Q 28.515625 5.71875 32.46875 7.9375 
Q 36.421875 10.15625 38.28125 14.015625 
Q 39.703125 17 39.703125 22.796875 
z
" id="ArialMT-97"/>
      <path d="M 8.6875 0 
L 8.6875 45.015625 
L 0.921875 45.015625 
L 0.921875 51.859375 
L 8.6875 51.859375 
L 8.6875 57.375 
Q 8.6875 62.59375 9.625 65.140625 
Q 10.890625 68.5625 14.078125 70.671875 
Q 17.28125 72.796875 23.046875 72.796875 
Q 26.765625 72.796875 31.25 71.921875 
L 29.9375 64.265625 
Q 27.203125 64.75 24.75 64.75 
Q 20.75 64.75 19.09375 63.03125 
Q 17.4375 61.328125 17.4375 56.640625 
L 17.4375 51.859375 
L 27.546875 51.859375 
L 27.546875 45.015625 
L 17.4375 45.015625 
L 17.4375 0 
z
" id="ArialMT-102"/>
      <path d="M 25.78125 7.859375 
L 27.046875 0.09375 
Q 23.34375 -0.6875 20.40625 -0.6875 
Q 15.625 -0.6875 12.984375 0.828125 
Q 10.359375 2.34375 9.28125 4.8125 
Q 8.203125 7.28125 8.203125 15.1875 
L 8.203125 45.015625 
L 1.765625 45.015625 
L 1.765625 51.859375 
L 8.203125 51.859375 
L 8.203125 64.703125 
L 16.9375 69.96875 
L 16.9375 51.859375 
L 25.78125 51.859375 
L 25.78125 45.015625 
L 16.9375 45.015625 
L 16.9375 14.703125 
Q 16.9375 10.9375 17.40625 9.859375 
Q 17.875 8.796875 18.921875 8.15625 
Q 19.96875 7.515625 21.921875 7.515625 
Q 23.390625 7.515625 25.78125 7.859375 
z
" id="ArialMT-116"/>
      <path d="M 6.5 0 
L 6.5 51.859375 
L 14.40625 51.859375 
L 14.40625 44 
Q 17.4375 49.515625 20 51.265625 
Q 22.5625 53.03125 25.640625 53.03125 
Q 30.078125 53.03125 34.671875 50.203125 
L 31.640625 42.046875 
Q 28.421875 43.953125 25.203125 43.953125 
Q 22.3125 43.953125 20.015625 42.21875 
Q 17.71875 40.484375 16.75 37.40625 
Q 15.28125 32.71875 15.28125 27.15625 
L 15.28125 0 
z
" id="ArialMT-114"/>
      <path d="M 4.5 23 
L 13.421875 23.78125 
Q 14.0625 18.40625 16.375 14.96875 
Q 18.703125 11.53125 23.578125 9.40625 
Q 28.46875 7.28125 34.578125 7.28125 
Q 39.984375 7.28125 44.140625 8.890625 
Q 48.296875 10.5 50.3125 13.296875 
Q 52.34375 16.109375 52.34375 19.4375 
Q 52.34375 22.796875 50.390625 25.3125 
Q 48.4375 27.828125 43.953125 29.546875 
Q 41.0625 30.671875 31.203125 33.03125 
Q 21.34375 35.40625 17.390625 37.5 
Q 12.25 40.1875 9.734375 44.15625 
Q 7.234375 48.140625 7.234375 53.078125 
Q 7.234375 58.5 10.296875 63.203125 
Q 13.375 67.921875 19.28125 70.359375 
Q 25.203125 72.796875 32.421875 72.796875 
Q 40.375 72.796875 46.453125 70.234375 
Q 52.546875 67.671875 55.8125 62.6875 
Q 59.078125 57.71875 59.328125 51.421875 
L 50.25 50.734375 
Q 49.515625 57.515625 45.28125 60.984375 
Q 41.0625 64.453125 32.8125 64.453125 
Q 24.21875 64.453125 20.28125 61.296875 
Q 16.359375 58.15625 16.359375 53.71875 
Q 16.359375 49.859375 19.140625 47.359375 
Q 21.875 44.875 33.421875 42.265625 
Q 44.96875 39.65625 49.265625 37.703125 
Q 55.515625 34.8125 58.484375 30.390625 
Q 61.46875 25.984375 61.46875 20.21875 
Q 61.46875 14.5 58.203125 9.4375 
Q 54.9375 4.390625 48.796875 1.578125 
Q 42.671875 -1.21875 35.015625 -1.21875 
Q 25.296875 -1.21875 18.71875 1.609375 
Q 12.15625 4.4375 8.421875 10.125 
Q 4.6875 15.828125 4.5 23 
z
" id="ArialMT-83"/>
      <path d="M 3.328125 25.921875 
Q 3.328125 40.328125 11.328125 47.265625 
Q 18.015625 53.03125 27.640625 53.03125 
Q 38.328125 53.03125 45.109375 46.015625 
Q 51.90625 39.015625 51.90625 26.65625 
Q 51.90625 16.65625 48.90625 10.90625 
Q 45.90625 5.171875 40.15625 2 
Q 34.421875 -1.171875 27.640625 -1.171875 
Q 16.75 -1.171875 10.03125 5.8125 
Q 3.328125 12.796875 3.328125 25.921875 
z
M 12.359375 25.921875 
Q 12.359375 15.96875 16.703125 11.015625 
Q 21.046875 6.0625 27.640625 6.0625 
Q 34.1875 6.0625 38.53125 11.03125 
Q 42.875 16.015625 42.875 26.21875 
Q 42.875 35.84375 38.5 40.796875 
Q 34.125 45.75 27.640625 45.75 
Q 21.046875 45.75 16.703125 40.8125 
Q 12.359375 35.890625 12.359375 25.921875 
z
" id="ArialMT-111"/>
      <path d="M 6.390625 0 
L 6.390625 71.578125 
L 15.1875 71.578125 
L 15.1875 0 
z
" id="ArialMT-108"/>
      <path d="M 7.625 0 
L 7.625 71.578125 
L 17.328125 71.578125 
L 54.9375 15.375 
L 54.9375 71.578125 
L 64.015625 71.578125 
L 64.015625 0 
L 54.296875 0 
L 16.703125 56.25 
L 16.703125 0 
z
" id="ArialMT-78"/>
      <path d="M 6.59375 0 
L 6.59375 51.859375 
L 14.5 51.859375 
L 14.5 44.484375 
Q 20.21875 53.03125 31 53.03125 
Q 35.6875 53.03125 39.625 51.34375 
Q 43.5625 49.65625 45.515625 46.921875 
Q 47.46875 44.1875 48.25 40.4375 
Q 48.734375 37.984375 48.734375 31.890625 
L 48.734375 0 
L 39.9375 0 
L 39.9375 31.546875 
Q 39.9375 36.921875 38.90625 39.578125 
Q 37.890625 42.234375 35.28125 43.8125 
Q 32.671875 45.40625 29.15625 45.40625 
Q 23.53125 45.40625 19.453125 41.84375 
Q 15.375 38.28125 15.375 28.328125 
L 15.375 0 
z
" id="ArialMT-110"/>
      <path d="M 6.78125 -19.875 
L 6.78125 71.578125 
L 26.171875 71.578125 
L 26.171875 64.3125 
L 15.578125 64.3125 
L 15.578125 -12.59375 
L 26.171875 -12.59375 
L 26.171875 -19.875 
z
" id="ArialMT-91"/>
      <path d="M 6.59375 0 
L 6.59375 71.578125 
L 15.375 71.578125 
L 15.375 45.90625 
Q 21.53125 53.03125 30.90625 53.03125 
Q 36.671875 53.03125 40.921875 50.75 
Q 45.171875 48.484375 47 44.484375 
Q 48.828125 40.484375 48.828125 32.859375 
L 48.828125 0 
L 40.046875 0 
L 40.046875 32.859375 
Q 40.046875 39.453125 37.1875 42.453125 
Q 34.328125 45.453125 29.109375 45.453125 
Q 25.203125 45.453125 21.75 43.421875 
Q 18.3125 41.40625 16.84375 37.9375 
Q 15.375 34.46875 15.375 28.375 
L 15.375 0 
z
" id="ArialMT-104"/>
      <path d="M 40.578125 0 
L 40.578125 7.625 
Q 34.515625 -1.171875 24.125 -1.171875 
Q 19.53125 -1.171875 15.546875 0.578125 
Q 11.578125 2.34375 9.640625 5 
Q 7.71875 7.671875 6.9375 11.53125 
Q 6.390625 14.109375 6.390625 19.734375 
L 6.390625 51.859375 
L 15.1875 51.859375 
L 15.1875 23.09375 
Q 15.1875 16.21875 15.71875 13.8125 
Q 16.546875 10.359375 19.234375 8.375 
Q 21.921875 6.390625 25.875 6.390625 
Q 29.828125 6.390625 33.296875 8.421875 
Q 36.765625 10.453125 38.203125 13.9375 
Q 39.65625 17.4375 39.65625 24.078125 
L 39.65625 51.859375 
L 48.4375 51.859375 
L 48.4375 0 
z
" id="ArialMT-117"/>
      <path d="M 3.078125 15.484375 
L 11.765625 16.84375 
Q 12.5 11.625 15.84375 8.84375 
Q 19.1875 6.0625 25.203125 6.0625 
Q 31.25 6.0625 34.171875 8.515625 
Q 37.109375 10.984375 37.109375 14.3125 
Q 37.109375 17.28125 34.515625 19 
Q 32.71875 20.171875 25.53125 21.96875 
Q 15.875 24.421875 12.140625 26.203125 
Q 8.40625 27.984375 6.46875 31.125 
Q 4.546875 34.28125 4.546875 38.09375 
Q 4.546875 41.546875 6.125 44.5 
Q 7.71875 47.46875 10.453125 49.421875 
Q 12.5 50.921875 16.03125 51.96875 
Q 19.578125 53.03125 23.640625 53.03125 
Q 29.734375 53.03125 34.34375 51.265625 
Q 38.96875 49.515625 41.15625 46.5 
Q 43.359375 43.5 44.1875 38.484375 
L 35.59375 37.3125 
Q 35.015625 41.3125 32.203125 43.546875 
Q 29.390625 45.796875 24.265625 45.796875 
Q 18.21875 45.796875 15.625 43.796875 
Q 13.03125 41.796875 13.03125 39.109375 
Q 13.03125 37.40625 14.109375 36.03125 
Q 15.1875 34.625 17.484375 33.6875 
Q 18.796875 33.203125 25.25 31.453125 
Q 34.578125 28.953125 38.25 27.359375 
Q 41.9375 25.78125 44.03125 22.75 
Q 46.140625 19.734375 46.140625 15.234375 
Q 46.140625 10.84375 43.578125 6.953125 
Q 41.015625 3.078125 36.171875 0.953125 
Q 31.34375 -1.171875 25.25 -1.171875 
Q 15.140625 -1.171875 9.84375 3.03125 
Q 4.546875 7.234375 3.078125 15.484375 
z
" id="ArialMT-115"/>
      <path d="M 21.296875 -19.875 
L 1.90625 -19.875 
L 1.90625 -12.59375 
L 12.5 -12.59375 
L 12.5 64.3125 
L 1.90625 64.3125 
L 1.90625 71.578125 
L 21.296875 71.578125 
z
" id="ArialMT-93"/>
     </defs>
     <g style="fill:#262626;" transform="translate(230.88669 383.632969)scale(0.11 -0.11)">
      <use xlink:href="#ArialMT-84"/>
      <use x="61.037109" xlink:href="#ArialMT-105"/>
      <use x="83.253906" xlink:href="#ArialMT-109"/>
      <use x="166.554688" xlink:href="#ArialMT-101"/>
      <use x="222.169922" xlink:href="#ArialMT-32"/>
      <use x="249.953125" xlink:href="#ArialMT-97"/>
      <use x="305.568359" xlink:href="#ArialMT-102"/>
      <use x="333.351562" xlink:href="#ArialMT-116"/>
      <use x="361.134766" xlink:href="#ArialMT-101"/>
      <use x="416.75" xlink:href="#ArialMT-114"/>
      <use x="450.050781" xlink:href="#ArialMT-32"/>
      <use x="477.833984" xlink:href="#ArialMT-83"/>
      <use x="544.533203" xlink:href="#ArialMT-111"/>
      <use x="600.148438" xlink:href="#ArialMT-108"/>
      <use x="622.365234" xlink:href="#ArialMT-97"/>
      <use x="677.980469" xlink:href="#ArialMT-114"/>
      <use x="711.28125" xlink:href="#ArialMT-32"/>
      <use x="739.064453" xlink:href="#ArialMT-78"/>
      <use x="811.28125" xlink:href="#ArialMT-111"/>
      <use x="866.896484" xlink:href="#ArialMT-111"/>
      <use x="922.511719" xlink:href="#ArialMT-110"/>
      <use x="978.126953" xlink:href="#ArialMT-32"/>
      <use x="1005.910156" xlink:href="#ArialMT-91"/>
      <use x="1033.693359" xlink:href="#ArialMT-104"/>
      <use x="1089.308594" xlink:href="#ArialMT-111"/>
      <use x="1144.923828" xlink:href="#ArialMT-117"/>
      <use x="1200.539062" xlink:href="#ArialMT-114"/>
      <use x="1233.839844" xlink:href="#ArialMT-115"/>
      <use x="1283.839844" xlink:href="#ArialMT-93"/>
     </g>
    </g>
   </g>
   <g id="matplotlib.axis_2">
    <g id="ytick_1">
     <g id="line2d_13">
      <path clip-path="url(#p9aafdc51e8)" d="M 43.04 335.020387 
L 563.001818 335.020387 
" style="fill:none;stroke:#ffffff;stroke-linecap:round;"/>
     </g>
     <g id="line2d_14"/>
     <g id="text_8">
      <!-- 8 -->
      <defs>
       <path d="M 17.671875 38.8125 
Q 12.203125 40.828125 9.5625 44.53125 
Q 6.9375 48.25 6.9375 53.421875 
Q 6.9375 61.234375 12.546875 66.546875 
Q 18.171875 71.875 27.484375 71.875 
Q 36.859375 71.875 42.578125 66.421875 
Q 48.296875 60.984375 48.296875 53.171875 
Q 48.296875 48.1875 45.671875 44.5 
Q 43.0625 40.828125 37.75 38.8125 
Q 44.34375 36.671875 47.78125 31.875 
Q 51.21875 27.09375 51.21875 20.453125 
Q 51.21875 11.28125 44.71875 5.03125 
Q 38.234375 -1.21875 27.640625 -1.21875 
Q 17.046875 -1.21875 10.546875 5.046875 
Q 4.046875 11.328125 4.046875 20.703125 
Q 4.046875 27.6875 7.59375 32.390625 
Q 11.140625 37.109375 17.671875 38.8125 
z
M 15.921875 53.71875 
Q 15.921875 48.640625 19.1875 45.40625 
Q 22.46875 42.1875 27.6875 42.1875 
Q 32.765625 42.1875 36.015625 45.375 
Q 39.265625 48.578125 39.265625 53.21875 
Q 39.265625 58.0625 35.90625 61.359375 
Q 32.5625 64.65625 27.59375 64.65625 
Q 22.5625 64.65625 19.234375 61.421875 
Q 15.921875 58.203125 15.921875 53.71875 
z
M 13.09375 20.65625 
Q 13.09375 16.890625 14.875 13.375 
Q 16.65625 9.859375 20.171875 7.921875 
Q 23.6875 6 27.734375 6 
Q 34.03125 6 38.125 10.046875 
Q 42.234375 14.109375 42.234375 20.359375 
Q 42.234375 26.703125 38.015625 30.859375 
Q 33.796875 35.015625 27.4375 35.015625 
Q 21.234375 35.015625 17.15625 30.90625 
Q 13.09375 26.8125 13.09375 20.65625 
z
" id="ArialMT-56"/>
      </defs>
      <g style="fill:#262626;" transform="translate(30.479063 338.599293)scale(0.1 -0.1)">
       <use xlink:href="#ArialMT-56"/>
      </g>
     </g>
    </g>
    <g id="ytick_2">
     <g id="line2d_15">
      <path clip-path="url(#p9aafdc51e8)" d="M 43.04 277.855926 
L 563.001818 277.855926 
" style="fill:none;stroke:#ffffff;stroke-linecap:round;"/>
     </g>
     <g id="line2d_16"/>
     <g id="text_9">
      <!-- 10 -->
      <g style="fill:#262626;" transform="translate(24.918125 281.434833)scale(0.1 -0.1)">
       <use xlink:href="#ArialMT-49"/>
       <use x="55.615234" xlink:href="#ArialMT-48"/>
      </g>
     </g>
    </g>
    <g id="ytick_3">
     <g id="line2d_17">
      <path clip-path="url(#p9aafdc51e8)" d="M 43.04 220.691466 
L 563.001818 220.691466 
" style="fill:none;stroke:#ffffff;stroke-linecap:round;"/>
     </g>
     <g id="line2d_18"/>
     <g id="text_10">
      <!-- 12 -->
      <g style="fill:#262626;" transform="translate(24.918125 224.270372)scale(0.1 -0.1)">
       <use xlink:href="#ArialMT-49"/>
       <use x="55.615234" xlink:href="#ArialMT-50"/>
      </g>
     </g>
    </g>
    <g id="ytick_4">
     <g id="line2d_19">
      <path clip-path="url(#p9aafdc51e8)" d="M 43.04 163.527006 
L 563.001818 163.527006 
" style="fill:none;stroke:#ffffff;stroke-linecap:round;"/>
     </g>
     <g id="line2d_20"/>
     <g id="text_11">
      <!-- 14 -->
      <defs>
       <path d="M 32.328125 0 
L 32.328125 17.140625 
L 1.265625 17.140625 
L 1.265625 25.203125 
L 33.9375 71.578125 
L 41.109375 71.578125 
L 41.109375 25.203125 
L 50.78125 25.203125 
L 50.78125 17.140625 
L 41.109375 17.140625 
L 41.109375 0 
z
M 32.328125 25.203125 
L 32.328125 57.46875 
L 9.90625 25.203125 
z
" id="ArialMT-52"/>
      </defs>
      <g style="fill:#262626;" transform="translate(24.918125 167.105912)scale(0.1 -0.1)">
       <use xlink:href="#ArialMT-49"/>
       <use x="55.615234" xlink:href="#ArialMT-52"/>
      </g>
     </g>
    </g>
    <g id="ytick_5">
     <g id="line2d_21">
      <path clip-path="url(#p9aafdc51e8)" d="M 43.04 106.362546 
L 563.001818 106.362546 
" style="fill:none;stroke:#ffffff;stroke-linecap:round;"/>
     </g>
     <g id="line2d_22"/>
     <g id="text_12">
      <!-- 16 -->
      <defs>
       <path d="M 49.75 54.046875 
L 41.015625 53.375 
Q 39.84375 58.546875 37.703125 60.890625 
Q 34.125 64.65625 28.90625 64.65625 
Q 24.703125 64.65625 21.53125 62.3125 
Q 17.390625 59.28125 14.984375 53.46875 
Q 12.59375 47.65625 12.5 36.921875 
Q 15.671875 41.75 20.265625 44.09375 
Q 24.859375 46.4375 29.890625 46.4375 
Q 38.671875 46.4375 44.84375 39.96875 
Q 51.03125 33.5 51.03125 23.25 
Q 51.03125 16.5 48.125 10.71875 
Q 45.21875 4.9375 40.140625 1.859375 
Q 35.0625 -1.21875 28.609375 -1.21875 
Q 17.625 -1.21875 10.6875 6.859375 
Q 3.765625 14.9375 3.765625 33.5 
Q 3.765625 54.25 11.421875 63.671875 
Q 18.109375 71.875 29.4375 71.875 
Q 37.890625 71.875 43.28125 67.140625 
Q 48.6875 62.40625 49.75 54.046875 
z
M 13.875 23.1875 
Q 13.875 18.65625 15.796875 14.5 
Q 17.71875 10.359375 21.1875 8.171875 
Q 24.65625 6 28.46875 6 
Q 34.03125 6 38.03125 10.484375 
Q 42.046875 14.984375 42.046875 22.703125 
Q 42.046875 30.125 38.078125 34.390625 
Q 34.125 38.671875 28.125 38.671875 
Q 22.171875 38.671875 18.015625 34.390625 
Q 13.875 30.125 13.875 23.1875 
z
" id="ArialMT-54"/>
      </defs>
      <g style="fill:#262626;" transform="translate(24.918125 109.941452)scale(0.1 -0.1)">
       <use xlink:href="#ArialMT-49"/>
       <use x="55.615234" xlink:href="#ArialMT-54"/>
      </g>
     </g>
    </g>
    <g id="ytick_6">
     <g id="line2d_23">
      <path clip-path="url(#p9aafdc51e8)" d="M 43.04 49.198085 
L 563.001818 49.198085 
" style="fill:none;stroke:#ffffff;stroke-linecap:round;"/>
     </g>
     <g id="line2d_24"/>
     <g id="text_13">
      <!-- 18 -->
      <g style="fill:#262626;" transform="translate(24.918125 52.776992)scale(0.1 -0.1)">
       <use xlink:href="#ArialMT-49"/>
       <use x="55.615234" xlink:href="#ArialMT-56"/>
      </g>
     </g>
    </g>
    <g id="text_14">
     <!-- Dynamic Pressure [Pa] -->
     <defs>
      <path d="M 7.71875 0 
L 7.71875 71.578125 
L 32.375 71.578125 
Q 40.71875 71.578125 45.125 70.5625 
Q 51.265625 69.140625 55.609375 65.4375 
Q 61.28125 60.640625 64.078125 53.1875 
Q 66.890625 45.75 66.890625 36.1875 
Q 66.890625 28.03125 64.984375 21.734375 
Q 63.09375 15.4375 60.109375 11.296875 
Q 57.125 7.171875 53.578125 4.796875 
Q 50.046875 2.4375 45.046875 1.21875 
Q 40.046875 0 33.546875 0 
z
M 17.1875 8.453125 
L 32.46875 8.453125 
Q 39.546875 8.453125 43.578125 9.765625 
Q 47.609375 11.078125 50 13.484375 
Q 53.375 16.84375 55.25 22.53125 
Q 57.125 28.21875 57.125 36.328125 
Q 57.125 47.5625 53.4375 53.59375 
Q 49.75 59.625 44.484375 61.671875 
Q 40.671875 63.140625 32.234375 63.140625 
L 17.1875 63.140625 
z
" id="ArialMT-68"/>
      <path d="M 6.203125 -19.96875 
L 5.21875 -11.71875 
Q 8.109375 -12.5 10.25 -12.5 
Q 13.1875 -12.5 14.9375 -11.515625 
Q 16.703125 -10.546875 17.828125 -8.796875 
Q 18.65625 -7.46875 20.515625 -2.25 
Q 20.75 -1.515625 21.296875 -0.09375 
L 1.609375 51.859375 
L 11.078125 51.859375 
L 21.875 21.828125 
Q 23.96875 16.109375 25.640625 9.8125 
Q 27.15625 15.875 29.25 21.625 
L 40.328125 51.859375 
L 49.125 51.859375 
L 29.390625 -0.875 
Q 26.21875 -9.421875 24.46875 -12.640625 
Q 22.125 -17 19.09375 -19.015625 
Q 16.0625 -21.046875 11.859375 -21.046875 
Q 9.328125 -21.046875 6.203125 -19.96875 
z
" id="ArialMT-121"/>
      <path d="M 40.4375 19 
L 49.078125 17.875 
Q 47.65625 8.9375 41.8125 3.875 
Q 35.984375 -1.171875 27.484375 -1.171875 
Q 16.84375 -1.171875 10.375 5.78125 
Q 3.90625 12.75 3.90625 25.734375 
Q 3.90625 34.125 6.6875 40.421875 
Q 9.46875 46.734375 15.15625 49.875 
Q 20.84375 53.03125 27.546875 53.03125 
Q 35.984375 53.03125 41.359375 48.75 
Q 46.734375 44.484375 48.25 36.625 
L 39.703125 35.296875 
Q 38.484375 40.53125 35.375 43.15625 
Q 32.28125 45.796875 27.875 45.796875 
Q 21.234375 45.796875 17.078125 41.03125 
Q 12.9375 36.28125 12.9375 25.984375 
Q 12.9375 15.53125 16.9375 10.796875 
Q 20.953125 6.0625 27.390625 6.0625 
Q 32.5625 6.0625 36.03125 9.234375 
Q 39.5 12.40625 40.4375 19 
z
" id="ArialMT-99"/>
      <path d="M 7.71875 0 
L 7.71875 71.578125 
L 34.71875 71.578125 
Q 41.84375 71.578125 45.609375 70.90625 
Q 50.875 70.015625 54.4375 67.546875 
Q 58.015625 65.09375 60.1875 60.640625 
Q 62.359375 56.203125 62.359375 50.875 
Q 62.359375 41.75 56.546875 35.421875 
Q 50.734375 29.109375 35.546875 29.109375 
L 17.1875 29.109375 
L 17.1875 0 
z
M 17.1875 37.546875 
L 35.6875 37.546875 
Q 44.875 37.546875 48.734375 40.96875 
Q 52.59375 44.390625 52.59375 50.59375 
Q 52.59375 55.078125 50.3125 58.265625 
Q 48.046875 61.46875 44.34375 62.5 
Q 41.9375 63.140625 35.5 63.140625 
L 17.1875 63.140625 
z
" id="ArialMT-80"/>
     </defs>
     <g style="fill:#262626;" transform="translate(18.602969 246.698359)rotate(-90)scale(0.11 -0.11)">
      <use xlink:href="#ArialMT-68"/>
      <use x="72.216797" xlink:href="#ArialMT-121"/>
      <use x="122.216797" xlink:href="#ArialMT-110"/>
      <use x="177.832031" xlink:href="#ArialMT-97"/>
      <use x="233.447266" xlink:href="#ArialMT-109"/>
      <use x="316.748047" xlink:href="#ArialMT-105"/>
      <use x="338.964844" xlink:href="#ArialMT-99"/>
      <use x="388.964844" xlink:href="#ArialMT-32"/>
      <use x="416.748047" xlink:href="#ArialMT-80"/>
      <use x="483.447266" xlink:href="#ArialMT-114"/>
      <use x="516.748047" xlink:href="#ArialMT-101"/>
      <use x="572.363281" xlink:href="#ArialMT-115"/>
      <use x="622.363281" xlink:href="#ArialMT-115"/>
      <use x="672.363281" xlink:href="#ArialMT-117"/>
      <use x="727.978516" xlink:href="#ArialMT-114"/>
      <use x="761.279297" xlink:href="#ArialMT-101"/>
      <use x="816.894531" xlink:href="#ArialMT-32"/>
      <use x="844.677734" xlink:href="#ArialMT-91"/>
      <use x="872.460938" xlink:href="#ArialMT-80"/>
      <use x="939.160156" xlink:href="#ArialMT-97"/>
      <use x="994.775391" xlink:href="#ArialMT-93"/>
     </g>
    </g>
   </g>
   <g id="line2d_25">
    <path clip-path="url(#p9aafdc51e8)" d="M 66.674628 206.369188 
L 69.836451 210.967091 
L 72.998274 215.844033 
L 76.160098 221.052126 
L 79.321921 226.633527 
L 82.483744 232.616692 
L 85.645567 239.01194 
L 88.80739 245.8066 
L 93.550125 256.641843 
L 101.454683 275.715654 
L 107.778329 290.658001 
L 110.940152 297.61754 
L 114.101975 304.068074 
L 117.263799 309.92475 
L 120.425622 315.142508 
L 123.587445 319.714419 
L 126.749268 323.667372 
L 128.33018 325.469361 
L 129.911091 327.595208 
L 133.072914 330.679857 
L 134.653826 332.016407 
L 137.815649 334.22186 
L 140.977472 335.961832 
L 145.720207 338.154123 
L 148.88203 338.987762 
L 152.043853 339.615704 
L 155.205676 340.059606 
L 158.3675 340.338877 
L 161.529323 340.467268 
L 166.272058 340.395805 
L 171.014792 340.02417 
L 175.757527 339.353014 
L 180.500262 338.374029 
L 183.662085 337.531417 
L 186.823908 336.510845 
L 189.985731 335.265638 
L 193.147554 333.717446 
L 205.794847 326.23875 
L 215.280316 321.254362 
L 224.765786 316.785041 
L 237.413079 311.528565 
L 250.060371 306.962357 
L 265.869487 302.070687 
L 270.612222 300.808036 
L 273.774045 299.971854 
L 275.354956 299.508263 
L 280.097691 298.369708 
L 286.421338 296.202906 
L 291.164072 293.811324 
L 292.744984 292.977518 
L 297.487719 289.645245 
L 299.06863 288.487304 
L 303.811365 284.021068 
L 305.392276 283.37568 
L 306.973188 283.314414 
L 311.715923 283.363287 
L 316.458658 283.32484 
L 321.201392 283.35649 
L 325.944127 283.328676 
L 333.848685 283.355929 
L 338.59142 283.325889 
L 343.334154 283.361652 
L 348.076889 283.316821 
L 352.819624 283.374904 
L 354.400535 283.305782 
L 355.981447 283.381705 
L 357.562359 283.29825 
L 359.14327 283.389786 
L 360.724182 283.289607 
L 362.305093 283.398206 
L 363.886005 283.28162 
L 365.466916 283.406344 
L 367.047828 283.273305 
L 368.62874 283.414822 
L 370.209651 283.264629 
L 371.790563 283.42368 
L 373.371474 283.255547 
L 374.952386 283.432958 
L 376.533297 283.246022 
L 378.114209 283.442695 
L 379.695121 283.236016 
L 381.276032 283.45293 
L 382.856944 283.225485 
L 384.437855 283.463705 
L 386.018767 283.214389 
L 387.599679 283.475062 
L 389.18059 283.202683 
L 390.761502 283.487046 
L 392.342413 283.19032 
L 393.923325 283.499703 
L 395.504236 283.177251 
L 397.085148 283.513081 
L 398.66606 283.163431 
L 400.246971 283.527239 
L 401.827883 283.148777 
L 403.408794 283.542174 
L 404.989706 283.133405 
L 406.570617 283.558243 
L 408.151529 283.113898 
L 409.732441 283.581781 
L 411.313352 283.091523 
L 412.894264 283.606415 
L 414.475175 283.060862 
L 416.056087 283.64524 
L 417.636999 283.011491 
L 419.21791 283.522867 
L 420.798822 299.484523 
L 422.379733 188.113361 
L 423.960645 109.173292 
L 425.541556 108.691078 
L 427.122468 93.142521 
L 428.70338 95.637244 
L 430.284291 83.631014 
L 431.865203 83.473439 
L 433.446114 74.308043 
L 435.027026 72.714716 
L 436.607937 65.617407 
L 438.188849 63.430053 
L 439.769761 57.940296 
L 441.350672 55.695016 
L 442.931584 51.536256 
L 444.512495 49.568624 
L 446.093407 46.567862 
L 447.674319 45.089763 
L 449.25523 43.125779 
L 450.836142 42.257513 
L 452.417053 41.244476 
L 455.578876 40.908912 
L 457.159788 41.374171 
L 458.7407 42.089253 
L 460.321611 43.170987 
L 461.902523 40.441818 
L 463.483434 42.168508 
L 465.064346 45.439104 
L 466.645257 47.792691 
L 468.226169 51.271228 
L 469.807081 54.358997 
L 472.968904 61.804387 
L 476.130727 70.278924 
L 477.711639 73.491164 
L 479.29255 79.850539 
L 480.873462 86.747186 
L 485.616196 104.279863 
L 487.197108 109.783467 
L 490.358931 119.84399 
L 493.520754 129.017423 
L 496.682577 137.370807 
L 499.844401 144.97311 
L 503.006224 151.894843 
L 506.168047 158.207921 
L 509.32987 163.98551 
L 512.491693 169.30177 
L 515.653516 174.231502 
L 518.81534 178.849734 
L 523.558074 185.360238 
L 539.36719 206.369187 
L 539.36719 206.369187 
" style="fill:none;stroke:#4c72b0;stroke-linecap:round;stroke-width:1.75;"/>
    <defs>
     <path d="M 0 1.75 
C 0.464105 1.75 0.909265 1.565609 1.237437 1.237437 
C 1.565609 0.909265 1.75 0.464105 1.75 0 
C 1.75 -0.464105 1.565609 -0.909265 1.237437 -1.237437 
C 0.909265 -1.565609 0.464105 -1.75 0 -1.75 
C -0.464105 -1.75 -0.909265 -1.565609 -1.237437 -1.237437 
C -1.565609 -0.909265 -1.75 -0.464105 -1.75 0 
C -1.75 0.464105 -1.565609 0.909265 -1.237437 1.237437 
C -0.909265 1.565609 -0.464105 1.75 0 1.75 
z
" id="me0d928b352"/>
    </defs>
    <g clip-path="url(#p9aafdc51e8)">
     <use style="fill:#4c72b0;" x="66.674628" xlink:href="#me0d928b352" y="206.369188"/>
     <use style="fill:#4c72b0;" x="68.25554" xlink:href="#me0d928b352" y="208.632497"/>
     <use style="fill:#4c72b0;" x="69.836451" xlink:href="#me0d928b352" y="210.967091"/>
     <use style="fill:#4c72b0;" x="71.417363" xlink:href="#me0d928b352" y="213.362041"/>
     <use style="fill:#4c72b0;" x="72.998274" xlink:href="#me0d928b352" y="215.844033"/>
     <use style="fill:#4c72b0;" x="74.579186" xlink:href="#me0d928b352" y="218.398073"/>
     <use style="fill:#4c72b0;" x="76.160098" xlink:href="#me0d928b352" y="221.052126"/>
     <use style="fill:#4c72b0;" x="77.741009" xlink:href="#me0d928b352" y="223.787909"/>
     <use style="fill:#4c72b0;" x="79.321921" xlink:href="#me0d928b352" y="226.633527"/>
     <use style="fill:#4c72b0;" x="80.902832" xlink:href="#me0d928b352" y="229.567247"/>
     <use style="fill:#4c72b0;" x="82.483744" xlink:href="#me0d928b352" y="232.616692"/>
     <use style="fill:#4c72b0;" x="84.064655" xlink:href="#me0d928b352" y="235.756003"/>
     <use style="fill:#4c72b0;" x="85.645567" xlink:href="#me0d928b352" y="239.01194"/>
     <use style="fill:#4c72b0;" x="87.226479" xlink:href="#me0d928b352" y="242.353567"/>
     <use style="fill:#4c72b0;" x="88.80739" xlink:href="#me0d928b352" y="245.8066"/>
     <use style="fill:#4c72b0;" x="90.388302" xlink:href="#me0d928b352" y="249.333971"/>
     <use style="fill:#4c72b0;" x="91.969213" xlink:href="#me0d928b352" y="252.96044"/>
     <use style="fill:#4c72b0;" x="93.550125" xlink:href="#me0d928b352" y="256.641843"/>
     <use style="fill:#4c72b0;" x="95.131037" xlink:href="#me0d928b352" y="260.402494"/>
     <use style="fill:#4c72b0;" x="96.711948" xlink:href="#me0d928b352" y="264.190454"/>
     <use style="fill:#4c72b0;" x="98.29286" xlink:href="#me0d928b352" y="268.030693"/>
     <use style="fill:#4c72b0;" x="99.873771" xlink:href="#me0d928b352" y="271.863292"/>
     <use style="fill:#4c72b0;" x="101.454683" xlink:href="#me0d928b352" y="275.715654"/>
     <use style="fill:#4c72b0;" x="103.035594" xlink:href="#me0d928b352" y="279.520285"/>
     <use style="fill:#4c72b0;" x="104.616506" xlink:href="#me0d928b352" y="283.309335"/>
     <use style="fill:#4c72b0;" x="106.197418" xlink:href="#me0d928b352" y="287.008802"/>
     <use style="fill:#4c72b0;" x="107.778329" xlink:href="#me0d928b352" y="290.658001"/>
     <use style="fill:#4c72b0;" x="109.359241" xlink:href="#me0d928b352" y="294.178172"/>
     <use style="fill:#4c72b0;" x="110.940152" xlink:href="#me0d928b352" y="297.61754"/>
     <use style="fill:#4c72b0;" x="112.521064" xlink:href="#me0d928b352" y="300.895096"/>
     <use style="fill:#4c72b0;" x="114.101975" xlink:href="#me0d928b352" y="304.068074"/>
     <use style="fill:#4c72b0;" x="115.682887" xlink:href="#me0d928b352" y="307.056723"/>
     <use style="fill:#4c72b0;" x="117.263799" xlink:href="#me0d928b352" y="309.92475"/>
     <use style="fill:#4c72b0;" x="118.84471" xlink:href="#me0d928b352" y="312.598552"/>
     <use style="fill:#4c72b0;" x="120.425622" xlink:href="#me0d928b352" y="315.142508"/>
     <use style="fill:#4c72b0;" x="122.006533" xlink:href="#me0d928b352" y="317.495797"/>
     <use style="fill:#4c72b0;" x="123.587445" xlink:href="#me0d928b352" y="319.714419"/>
     <use style="fill:#4c72b0;" x="125.168357" xlink:href="#me0d928b352" y="321.758884"/>
     <use style="fill:#4c72b0;" x="126.749268" xlink:href="#me0d928b352" y="323.667372"/>
     <use style="fill:#4c72b0;" x="128.33018" xlink:href="#me0d928b352" y="325.469361"/>
     <use style="fill:#4c72b0;" x="129.911091" xlink:href="#me0d928b352" y="327.595208"/>
     <use style="fill:#4c72b0;" x="131.492003" xlink:href="#me0d928b352" y="329.21526"/>
     <use style="fill:#4c72b0;" x="133.072914" xlink:href="#me0d928b352" y="330.679857"/>
     <use style="fill:#4c72b0;" x="134.653826" xlink:href="#me0d928b352" y="332.016407"/>
     <use style="fill:#4c72b0;" x="136.234738" xlink:href="#me0d928b352" y="333.171698"/>
     <use style="fill:#4c72b0;" x="137.815649" xlink:href="#me0d928b352" y="334.22186"/>
     <use style="fill:#4c72b0;" x="139.396561" xlink:href="#me0d928b352" y="335.134167"/>
     <use style="fill:#4c72b0;" x="140.977472" xlink:href="#me0d928b352" y="335.961832"/>
     <use style="fill:#4c72b0;" x="142.558384" xlink:href="#me0d928b352" y="336.680557"/>
     <use style="fill:#4c72b0;" x="144.139295" xlink:href="#me0d928b352" y="337.343958"/>
     <use style="fill:#4c72b0;" x="145.720207" xlink:href="#me0d928b352" y="338.154123"/>
     <use style="fill:#4c72b0;" x="147.301119" xlink:href="#me0d928b352" y="338.612958"/>
     <use style="fill:#4c72b0;" x="148.88203" xlink:href="#me0d928b352" y="338.987762"/>
     <use style="fill:#4c72b0;" x="150.462942" xlink:href="#me0d928b352" y="339.336907"/>
     <use style="fill:#4c72b0;" x="152.043853" xlink:href="#me0d928b352" y="339.615704"/>
     <use style="fill:#4c72b0;" x="153.624765" xlink:href="#me0d928b352" y="339.865974"/>
     <use style="fill:#4c72b0;" x="155.205676" xlink:href="#me0d928b352" y="340.059606"/>
     <use style="fill:#4c72b0;" x="156.786588" xlink:href="#me0d928b352" y="340.222595"/>
     <use style="fill:#4c72b0;" x="158.3675" xlink:href="#me0d928b352" y="340.338877"/>
     <use style="fill:#4c72b0;" x="159.948411" xlink:href="#me0d928b352" y="340.422917"/>
     <use style="fill:#4c72b0;" x="161.529323" xlink:href="#me0d928b352" y="340.467268"/>
     <use style="fill:#4c72b0;" x="163.110234" xlink:href="#me0d928b352" y="340.478182"/>
     <use style="fill:#4c72b0;" x="164.691146" xlink:href="#me0d928b352" y="340.454145"/>
     <use style="fill:#4c72b0;" x="166.272058" xlink:href="#me0d928b352" y="340.395805"/>
     <use style="fill:#4c72b0;" x="167.852969" xlink:href="#me0d928b352" y="340.305425"/>
     <use style="fill:#4c72b0;" x="169.433881" xlink:href="#me0d928b352" y="340.180129"/>
     <use style="fill:#4c72b0;" x="171.014792" xlink:href="#me0d928b352" y="340.02417"/>
     <use style="fill:#4c72b0;" x="172.595704" xlink:href="#me0d928b352" y="339.832848"/>
     <use style="fill:#4c72b0;" x="174.176615" xlink:href="#me0d928b352" y="339.610813"/>
     <use style="fill:#4c72b0;" x="175.757527" xlink:href="#me0d928b352" y="339.353014"/>
     <use style="fill:#4c72b0;" x="177.338439" xlink:href="#me0d928b352" y="339.0629"/>
     <use style="fill:#4c72b0;" x="178.91935" xlink:href="#me0d928b352" y="338.736445"/>
     <use style="fill:#4c72b0;" x="180.500262" xlink:href="#me0d928b352" y="338.374029"/>
     <use style="fill:#4c72b0;" x="182.081173" xlink:href="#me0d928b352" y="337.974111"/>
     <use style="fill:#4c72b0;" x="183.662085" xlink:href="#me0d928b352" y="337.531417"/>
     <use style="fill:#4c72b0;" x="185.242996" xlink:href="#me0d928b352" y="337.048669"/>
     <use style="fill:#4c72b0;" x="186.823908" xlink:href="#me0d928b352" y="336.510845"/>
     <use style="fill:#4c72b0;" x="188.40482" xlink:href="#me0d928b352" y="335.927343"/>
     <use style="fill:#4c72b0;" x="189.985731" xlink:href="#me0d928b352" y="335.265638"/>
     <use style="fill:#4c72b0;" x="191.566643" xlink:href="#me0d928b352" y="334.538493"/>
     <use style="fill:#4c72b0;" x="193.147554" xlink:href="#me0d928b352" y="333.717446"/>
     <use style="fill:#4c72b0;" x="194.728466" xlink:href="#me0d928b352" y="332.773426"/>
     <use style="fill:#4c72b0;" x="196.309378" xlink:href="#me0d928b352" y="331.778165"/>
     <use style="fill:#4c72b0;" x="197.890289" xlink:href="#me0d928b352" y="330.838333"/>
     <use style="fill:#4c72b0;" x="199.471201" xlink:href="#me0d928b352" y="329.870054"/>
     <use style="fill:#4c72b0;" x="201.052112" xlink:href="#me0d928b352" y="328.962216"/>
     <use style="fill:#4c72b0;" x="202.633024" xlink:href="#me0d928b352" y="328.023103"/>
     <use style="fill:#4c72b0;" x="204.213935" xlink:href="#me0d928b352" y="327.147761"/>
     <use style="fill:#4c72b0;" x="205.794847" xlink:href="#me0d928b352" y="326.23875"/>
     <use style="fill:#4c72b0;" x="207.375759" xlink:href="#me0d928b352" y="325.39556"/>
     <use style="fill:#4c72b0;" x="208.95667" xlink:href="#me0d928b352" y="324.516748"/>
     <use style="fill:#4c72b0;" x="210.537582" xlink:href="#me0d928b352" y="323.704907"/>
     <use style="fill:#4c72b0;" x="212.118493" xlink:href="#me0d928b352" y="322.855874"/>
     <use style="fill:#4c72b0;" x="213.699405" xlink:href="#me0d928b352" y="322.074352"/>
     <use style="fill:#4c72b0;" x="215.280316" xlink:href="#me0d928b352" y="321.254362"/>
     <use style="fill:#4c72b0;" x="216.861228" xlink:href="#me0d928b352" y="320.502038"/>
     <use style="fill:#4c72b0;" x="218.44214" xlink:href="#me0d928b352" y="319.710165"/>
     <use style="fill:#4c72b0;" x="220.023051" xlink:href="#me0d928b352" y="318.985911"/>
     <use style="fill:#4c72b0;" x="221.603963" xlink:href="#me0d928b352" y="318.221119"/>
     <use style="fill:#4c72b0;" x="223.184874" xlink:href="#me0d928b352" y="317.523844"/>
     <use style="fill:#4c72b0;" x="224.765786" xlink:href="#me0d928b352" y="316.785041"/>
     <use style="fill:#4c72b0;" x="226.346698" xlink:href="#me0d928b352" y="316.113714"/>
     <use style="fill:#4c72b0;" x="227.927609" xlink:href="#me0d928b352" y="315.399783"/>
     <use style="fill:#4c72b0;" x="229.508521" xlink:href="#me0d928b352" y="314.753446"/>
     <use style="fill:#4c72b0;" x="231.089432" xlink:href="#me0d928b352" y="314.063266"/>
     <use style="fill:#4c72b0;" x="232.670344" xlink:href="#me0d928b352" y="313.441036"/>
     <use style="fill:#4c72b0;" x="234.251255" xlink:href="#me0d928b352" y="312.773494"/>
     <use style="fill:#4c72b0;" x="235.832167" xlink:href="#me0d928b352" y="312.174562"/>
     <use style="fill:#4c72b0;" x="237.413079" xlink:href="#me0d928b352" y="311.528565"/>
     <use style="fill:#4c72b0;" x="238.99399" xlink:href="#me0d928b352" y="310.952191"/>
     <use style="fill:#4c72b0;" x="240.574902" xlink:href="#me0d928b352" y="310.326666"/>
     <use style="fill:#4c72b0;" x="242.155813" xlink:href="#me0d928b352" y="309.772176"/>
     <use style="fill:#4c72b0;" x="243.736725" xlink:href="#me0d928b352" y="309.166075"/>
     <use style="fill:#4c72b0;" x="245.317636" xlink:href="#me0d928b352" y="308.632854"/>
     <use style="fill:#4c72b0;" x="246.898548" xlink:href="#me0d928b352" y="308.045158"/>
     <use style="fill:#4c72b0;" x="248.47946" xlink:href="#me0d928b352" y="307.532644"/>
     <use style="fill:#4c72b0;" x="250.060371" xlink:href="#me0d928b352" y="306.962357"/>
     <use style="fill:#4c72b0;" x="251.641283" xlink:href="#me0d928b352" y="306.470037"/>
     <use style="fill:#4c72b0;" x="253.222194" xlink:href="#me0d928b352" y="305.916193"/>
     <use style="fill:#4c72b0;" x="254.803106" xlink:href="#me0d928b352" y="305.443598"/>
     <use style="fill:#4c72b0;" x="256.384018" xlink:href="#me0d928b352" y="304.905258"/>
     <use style="fill:#4c72b0;" x="257.964929" xlink:href="#me0d928b352" y="304.451956"/>
     <use style="fill:#4c72b0;" x="259.545841" xlink:href="#me0d928b352" y="303.928207"/>
     <use style="fill:#4c72b0;" x="261.126752" xlink:href="#me0d928b352" y="303.493803"/>
     <use style="fill:#4c72b0;" x="262.707664" xlink:href="#me0d928b352" y="302.983759"/>
     <use style="fill:#4c72b0;" x="264.288575" xlink:href="#me0d928b352" y="302.567888"/>
     <use style="fill:#4c72b0;" x="265.869487" xlink:href="#me0d928b352" y="302.070687"/>
     <use style="fill:#4c72b0;" x="267.450399" xlink:href="#me0d928b352" y="301.673015"/>
     <use style="fill:#4c72b0;" x="269.03131" xlink:href="#me0d928b352" y="301.18782"/>
     <use style="fill:#4c72b0;" x="270.612222" xlink:href="#me0d928b352" y="300.808036"/>
     <use style="fill:#4c72b0;" x="272.193133" xlink:href="#me0d928b352" y="300.334037"/>
     <use style="fill:#4c72b0;" x="273.774045" xlink:href="#me0d928b352" y="299.971854"/>
     <use style="fill:#4c72b0;" x="275.354956" xlink:href="#me0d928b352" y="299.508263"/>
     <use style="fill:#4c72b0;" x="276.935868" xlink:href="#me0d928b352" y="299.163413"/>
     <use style="fill:#4c72b0;" x="278.51678" xlink:href="#me0d928b352" y="298.707233"/>
     <use style="fill:#4c72b0;" x="280.097691" xlink:href="#me0d928b352" y="298.369708"/>
     <use style="fill:#4c72b0;" x="281.678603" xlink:href="#me0d928b352" y="297.855995"/>
     <use style="fill:#4c72b0;" x="283.259514" xlink:href="#me0d928b352" y="297.409187"/>
     <use style="fill:#4c72b0;" x="284.840426" xlink:href="#me0d928b352" y="296.76869"/>
     <use style="fill:#4c72b0;" x="286.421338" xlink:href="#me0d928b352" y="296.202906"/>
     <use style="fill:#4c72b0;" x="288.002249" xlink:href="#me0d928b352" y="295.42753"/>
     <use style="fill:#4c72b0;" x="289.583161" xlink:href="#me0d928b352" y="294.733456"/>
     <use style="fill:#4c72b0;" x="291.164072" xlink:href="#me0d928b352" y="293.811324"/>
     <use style="fill:#4c72b0;" x="292.744984" xlink:href="#me0d928b352" y="292.977518"/>
     <use style="fill:#4c72b0;" x="294.325895" xlink:href="#me0d928b352" y="291.894288"/>
     <use style="fill:#4c72b0;" x="295.906807" xlink:href="#me0d928b352" y="290.906839"/>
     <use style="fill:#4c72b0;" x="297.487719" xlink:href="#me0d928b352" y="289.645245"/>
     <use style="fill:#4c72b0;" x="299.06863" xlink:href="#me0d928b352" y="288.487304"/>
     <use style="fill:#4c72b0;" x="300.649542" xlink:href="#me0d928b352" y="287.026627"/>
     <use style="fill:#4c72b0;" x="302.230453" xlink:href="#me0d928b352" y="285.678602"/>
     <use style="fill:#4c72b0;" x="303.811365" xlink:href="#me0d928b352" y="284.021068"/>
     <use style="fill:#4c72b0;" x="305.392276" xlink:href="#me0d928b352" y="283.37568"/>
     <use style="fill:#4c72b0;" x="306.973188" xlink:href="#me0d928b352" y="283.314414"/>
     <use style="fill:#4c72b0;" x="308.5541" xlink:href="#me0d928b352" y="283.367175"/>
     <use style="fill:#4c72b0;" x="310.135011" xlink:href="#me0d928b352" y="283.318808"/>
     <use style="fill:#4c72b0;" x="311.715923" xlink:href="#me0d928b352" y="283.363287"/>
     <use style="fill:#4c72b0;" x="313.296834" xlink:href="#me0d928b352" y="283.322237"/>
     <use style="fill:#4c72b0;" x="314.877746" xlink:href="#me0d928b352" y="283.36029"/>
     <use style="fill:#4c72b0;" x="316.458658" xlink:href="#me0d928b352" y="283.32484"/>
     <use style="fill:#4c72b0;" x="318.039569" xlink:href="#me0d928b352" y="283.358056"/>
     <use style="fill:#4c72b0;" x="319.620481" xlink:href="#me0d928b352" y="283.326732"/>
     <use style="fill:#4c72b0;" x="321.201392" xlink:href="#me0d928b352" y="283.35649"/>
     <use style="fill:#4c72b0;" x="322.782304" xlink:href="#me0d928b352" y="283.327992"/>
     <use style="fill:#4c72b0;" x="324.363215" xlink:href="#me0d928b352" y="283.355524"/>
     <use style="fill:#4c72b0;" x="325.944127" xlink:href="#me0d928b352" y="283.328676"/>
     <use style="fill:#4c72b0;" x="327.525039" xlink:href="#me0d928b352" y="283.355116"/>
     <use style="fill:#4c72b0;" x="329.10595" xlink:href="#me0d928b352" y="283.328813"/>
     <use style="fill:#4c72b0;" x="330.686862" xlink:href="#me0d928b352" y="283.355249"/>
     <use style="fill:#4c72b0;" x="332.267773" xlink:href="#me0d928b352" y="283.328409"/>
     <use style="fill:#4c72b0;" x="333.848685" xlink:href="#me0d928b352" y="283.355929"/>
     <use style="fill:#4c72b0;" x="335.429596" xlink:href="#me0d928b352" y="283.327448"/>
     <use style="fill:#4c72b0;" x="337.010508" xlink:href="#me0d928b352" y="283.357182"/>
     <use style="fill:#4c72b0;" x="338.59142" xlink:href="#me0d928b352" y="283.325889"/>
     <use style="fill:#4c72b0;" x="340.172331" xlink:href="#me0d928b352" y="283.359064"/>
     <use style="fill:#4c72b0;" x="341.753243" xlink:href="#me0d928b352" y="283.323665"/>
     <use style="fill:#4c72b0;" x="343.334154" xlink:href="#me0d928b352" y="283.361652"/>
     <use style="fill:#4c72b0;" x="344.915066" xlink:href="#me0d928b352" y="283.320684"/>
     <use style="fill:#4c72b0;" x="346.495978" xlink:href="#me0d928b352" y="283.365055"/>
     <use style="fill:#4c72b0;" x="348.076889" xlink:href="#me0d928b352" y="283.316821"/>
     <use style="fill:#4c72b0;" x="349.657801" xlink:href="#me0d928b352" y="283.369415"/>
     <use style="fill:#4c72b0;" x="351.238712" xlink:href="#me0d928b352" y="283.311917"/>
     <use style="fill:#4c72b0;" x="352.819624" xlink:href="#me0d928b352" y="283.374904"/>
     <use style="fill:#4c72b0;" x="354.400535" xlink:href="#me0d928b352" y="283.305782"/>
     <use style="fill:#4c72b0;" x="355.981447" xlink:href="#me0d928b352" y="283.381705"/>
     <use style="fill:#4c72b0;" x="357.562359" xlink:href="#me0d928b352" y="283.29825"/>
     <use style="fill:#4c72b0;" x="359.14327" xlink:href="#me0d928b352" y="283.389786"/>
     <use style="fill:#4c72b0;" x="360.724182" xlink:href="#me0d928b352" y="283.289607"/>
     <use style="fill:#4c72b0;" x="362.305093" xlink:href="#me0d928b352" y="283.398206"/>
     <use style="fill:#4c72b0;" x="363.886005" xlink:href="#me0d928b352" y="283.28162"/>
     <use style="fill:#4c72b0;" x="365.466916" xlink:href="#me0d928b352" y="283.406344"/>
     <use style="fill:#4c72b0;" x="367.047828" xlink:href="#me0d928b352" y="283.273305"/>
     <use style="fill:#4c72b0;" x="368.62874" xlink:href="#me0d928b352" y="283.414822"/>
     <use style="fill:#4c72b0;" x="370.209651" xlink:href="#me0d928b352" y="283.264629"/>
     <use style="fill:#4c72b0;" x="371.790563" xlink:href="#me0d928b352" y="283.42368"/>
     <use style="fill:#4c72b0;" x="373.371474" xlink:href="#me0d928b352" y="283.255547"/>
     <use style="fill:#4c72b0;" x="374.952386" xlink:href="#me0d928b352" y="283.432958"/>
     <use style="fill:#4c72b0;" x="376.533297" xlink:href="#me0d928b352" y="283.246022"/>
     <use style="fill:#4c72b0;" x="378.114209" xlink:href="#me0d928b352" y="283.442695"/>
     <use style="fill:#4c72b0;" x="379.695121" xlink:href="#me0d928b352" y="283.236016"/>
     <use style="fill:#4c72b0;" x="381.276032" xlink:href="#me0d928b352" y="283.45293"/>
     <use style="fill:#4c72b0;" x="382.856944" xlink:href="#me0d928b352" y="283.225485"/>
     <use style="fill:#4c72b0;" x="384.437855" xlink:href="#me0d928b352" y="283.463705"/>
     <use style="fill:#4c72b0;" x="386.018767" xlink:href="#me0d928b352" y="283.214389"/>
     <use style="fill:#4c72b0;" x="387.599679" xlink:href="#me0d928b352" y="283.475062"/>
     <use style="fill:#4c72b0;" x="389.18059" xlink:href="#me0d928b352" y="283.202683"/>
     <use style="fill:#4c72b0;" x="390.761502" xlink:href="#me0d928b352" y="283.487046"/>
     <use style="fill:#4c72b0;" x="392.342413" xlink:href="#me0d928b352" y="283.19032"/>
     <use style="fill:#4c72b0;" x="393.923325" xlink:href="#me0d928b352" y="283.499703"/>
     <use style="fill:#4c72b0;" x="395.504236" xlink:href="#me0d928b352" y="283.177251"/>
     <use style="fill:#4c72b0;" x="397.085148" xlink:href="#me0d928b352" y="283.513081"/>
     <use style="fill:#4c72b0;" x="398.66606" xlink:href="#me0d928b352" y="283.163431"/>
     <use style="fill:#4c72b0;" x="400.246971" xlink:href="#me0d928b352" y="283.527239"/>
     <use style="fill:#4c72b0;" x="401.827883" xlink:href="#me0d928b352" y="283.148777"/>
     <use style="fill:#4c72b0;" x="403.408794" xlink:href="#me0d928b352" y="283.542174"/>
     <use style="fill:#4c72b0;" x="404.989706" xlink:href="#me0d928b352" y="283.133405"/>
     <use style="fill:#4c72b0;" x="406.570617" xlink:href="#me0d928b352" y="283.558243"/>
     <use style="fill:#4c72b0;" x="408.151529" xlink:href="#me0d928b352" y="283.113898"/>
     <use style="fill:#4c72b0;" x="409.732441" xlink:href="#me0d928b352" y="283.581781"/>
     <use style="fill:#4c72b0;" x="411.313352" xlink:href="#me0d928b352" y="283.091523"/>
     <use style="fill:#4c72b0;" x="412.894264" xlink:href="#me0d928b352" y="283.606415"/>
     <use style="fill:#4c72b0;" x="414.475175" xlink:href="#me0d928b352" y="283.060862"/>
     <use style="fill:#4c72b0;" x="416.056087" xlink:href="#me0d928b352" y="283.64524"/>
     <use style="fill:#4c72b0;" x="417.636999" xlink:href="#me0d928b352" y="283.011491"/>
     <use style="fill:#4c72b0;" x="419.21791" xlink:href="#me0d928b352" y="283.522867"/>
     <use style="fill:#4c72b0;" x="420.798822" xlink:href="#me0d928b352" y="299.484523"/>
     <use style="fill:#4c72b0;" x="422.379733" xlink:href="#me0d928b352" y="188.113361"/>
     <use style="fill:#4c72b0;" x="423.960645" xlink:href="#me0d928b352" y="109.173292"/>
     <use style="fill:#4c72b0;" x="425.541556" xlink:href="#me0d928b352" y="108.691078"/>
     <use style="fill:#4c72b0;" x="427.122468" xlink:href="#me0d928b352" y="93.142521"/>
     <use style="fill:#4c72b0;" x="428.70338" xlink:href="#me0d928b352" y="95.637244"/>
     <use style="fill:#4c72b0;" x="430.284291" xlink:href="#me0d928b352" y="83.631014"/>
     <use style="fill:#4c72b0;" x="431.865203" xlink:href="#me0d928b352" y="83.473439"/>
     <use style="fill:#4c72b0;" x="433.446114" xlink:href="#me0d928b352" y="74.308043"/>
     <use style="fill:#4c72b0;" x="435.027026" xlink:href="#me0d928b352" y="72.714716"/>
     <use style="fill:#4c72b0;" x="436.607937" xlink:href="#me0d928b352" y="65.617407"/>
     <use style="fill:#4c72b0;" x="438.188849" xlink:href="#me0d928b352" y="63.430053"/>
     <use style="fill:#4c72b0;" x="439.769761" xlink:href="#me0d928b352" y="57.940296"/>
     <use style="fill:#4c72b0;" x="441.350672" xlink:href="#me0d928b352" y="55.695016"/>
     <use style="fill:#4c72b0;" x="442.931584" xlink:href="#me0d928b352" y="51.536256"/>
     <use style="fill:#4c72b0;" x="444.512495" xlink:href="#me0d928b352" y="49.568624"/>
     <use style="fill:#4c72b0;" x="446.093407" xlink:href="#me0d928b352" y="46.567862"/>
     <use style="fill:#4c72b0;" x="447.674319" xlink:href="#me0d928b352" y="45.089763"/>
     <use style="fill:#4c72b0;" x="449.25523" xlink:href="#me0d928b352" y="43.125779"/>
     <use style="fill:#4c72b0;" x="450.836142" xlink:href="#me0d928b352" y="42.257513"/>
     <use style="fill:#4c72b0;" x="452.417053" xlink:href="#me0d928b352" y="41.244476"/>
     <use style="fill:#4c72b0;" x="453.997965" xlink:href="#me0d928b352" y="41.040187"/>
     <use style="fill:#4c72b0;" x="455.578876" xlink:href="#me0d928b352" y="40.908912"/>
     <use style="fill:#4c72b0;" x="457.159788" xlink:href="#me0d928b352" y="41.374171"/>
     <use style="fill:#4c72b0;" x="458.7407" xlink:href="#me0d928b352" y="42.089253"/>
     <use style="fill:#4c72b0;" x="460.321611" xlink:href="#me0d928b352" y="43.170987"/>
     <use style="fill:#4c72b0;" x="461.902523" xlink:href="#me0d928b352" y="40.441818"/>
     <use style="fill:#4c72b0;" x="463.483434" xlink:href="#me0d928b352" y="42.168508"/>
     <use style="fill:#4c72b0;" x="465.064346" xlink:href="#me0d928b352" y="45.439104"/>
     <use style="fill:#4c72b0;" x="466.645257" xlink:href="#me0d928b352" y="47.792691"/>
     <use style="fill:#4c72b0;" x="468.226169" xlink:href="#me0d928b352" y="51.271228"/>
     <use style="fill:#4c72b0;" x="469.807081" xlink:href="#me0d928b352" y="54.358997"/>
     <use style="fill:#4c72b0;" x="471.387992" xlink:href="#me0d928b352" y="58.151071"/>
     <use style="fill:#4c72b0;" x="472.968904" xlink:href="#me0d928b352" y="61.804387"/>
     <use style="fill:#4c72b0;" x="474.549815" xlink:href="#me0d928b352" y="66.10992"/>
     <use style="fill:#4c72b0;" x="476.130727" xlink:href="#me0d928b352" y="70.278924"/>
     <use style="fill:#4c72b0;" x="477.711639" xlink:href="#me0d928b352" y="73.491164"/>
     <use style="fill:#4c72b0;" x="479.29255" xlink:href="#me0d928b352" y="79.850539"/>
     <use style="fill:#4c72b0;" x="480.873462" xlink:href="#me0d928b352" y="86.747186"/>
     <use style="fill:#4c72b0;" x="482.454373" xlink:href="#me0d928b352" y="92.648562"/>
     <use style="fill:#4c72b0;" x="484.035285" xlink:href="#me0d928b352" y="98.771811"/>
     <use style="fill:#4c72b0;" x="485.616196" xlink:href="#me0d928b352" y="104.279863"/>
     <use style="fill:#4c72b0;" x="487.197108" xlink:href="#me0d928b352" y="109.783467"/>
     <use style="fill:#4c72b0;" x="488.77802" xlink:href="#me0d928b352" y="114.871584"/>
     <use style="fill:#4c72b0;" x="490.358931" xlink:href="#me0d928b352" y="119.84399"/>
     <use style="fill:#4c72b0;" x="491.939843" xlink:href="#me0d928b352" y="124.512807"/>
     <use style="fill:#4c72b0;" x="493.520754" xlink:href="#me0d928b352" y="129.017423"/>
     <use style="fill:#4c72b0;" x="495.101666" xlink:href="#me0d928b352" y="133.283939"/>
     <use style="fill:#4c72b0;" x="496.682577" xlink:href="#me0d928b352" y="137.370807"/>
     <use style="fill:#4c72b0;" x="498.263489" xlink:href="#me0d928b352" y="141.260907"/>
     <use style="fill:#4c72b0;" x="499.844401" xlink:href="#me0d928b352" y="144.97311"/>
     <use style="fill:#4c72b0;" x="501.425312" xlink:href="#me0d928b352" y="148.517601"/>
     <use style="fill:#4c72b0;" x="503.006224" xlink:href="#me0d928b352" y="151.894843"/>
     <use style="fill:#4c72b0;" x="504.587135" xlink:href="#me0d928b352" y="155.127387"/>
     <use style="fill:#4c72b0;" x="506.168047" xlink:href="#me0d928b352" y="158.207921"/>
     <use style="fill:#4c72b0;" x="507.748959" xlink:href="#me0d928b352" y="161.163926"/>
     <use style="fill:#4c72b0;" x="509.32987" xlink:href="#me0d928b352" y="163.98551"/>
     <use style="fill:#4c72b0;" x="510.910782" xlink:href="#me0d928b352" y="166.701472"/>
     <use style="fill:#4c72b0;" x="512.491693" xlink:href="#me0d928b352" y="169.30177"/>
     <use style="fill:#4c72b0;" x="514.072605" xlink:href="#me0d928b352" y="171.814833"/>
     <use style="fill:#4c72b0;" x="515.653516" xlink:href="#me0d928b352" y="174.231502"/>
     <use style="fill:#4c72b0;" x="517.234428" xlink:href="#me0d928b352" y="176.579109"/>
     <use style="fill:#4c72b0;" x="518.81534" xlink:href="#me0d928b352" y="178.849734"/>
     <use style="fill:#4c72b0;" x="520.396251" xlink:href="#me0d928b352" y="181.069357"/>
     <use style="fill:#4c72b0;" x="521.977163" xlink:href="#me0d928b352" y="183.231318"/>
     <use style="fill:#4c72b0;" x="523.558074" xlink:href="#me0d928b352" y="185.360238"/>
     <use style="fill:#4c72b0;" x="525.138986" xlink:href="#me0d928b352" y="187.45057"/>
     <use style="fill:#4c72b0;" x="526.719897" xlink:href="#me0d928b352" y="189.525696"/>
     <use style="fill:#4c72b0;" x="528.300809" xlink:href="#me0d928b352" y="191.580945"/>
     <use style="fill:#4c72b0;" x="529.881721" xlink:href="#me0d928b352" y="193.638665"/>
     <use style="fill:#4c72b0;" x="531.462632" xlink:href="#me0d928b352" y="195.694726"/>
     <use style="fill:#4c72b0;" x="533.043544" xlink:href="#me0d928b352" y="197.770743"/>
     <use style="fill:#4c72b0;" x="534.624455" xlink:href="#me0d928b352" y="199.862641"/>
     <use style="fill:#4c72b0;" x="536.205367" xlink:href="#me0d928b352" y="201.991769"/>
     <use style="fill:#4c72b0;" x="537.786279" xlink:href="#me0d928b352" y="204.153327"/>
     <use style="fill:#4c72b0;" x="539.36719" xlink:href="#me0d928b352" y="206.369187"/>
    </g>
   </g>
   <g id="patch_3">
    <path d="M 43.04 355.48 
L 43.04 25.44 
" style="fill:none;"/>
   </g>
   <g id="patch_4">
    <path d="M 563.001818 355.48 
L 563.001818 25.44 
" style="fill:none;"/>
   </g>
   <g id="patch_5">
    <path d="M 43.04 355.48 
L 563.001818 355.48 
" style="fill:none;"/>
   </g>
   <g id="patch_6">
    <path d="M 43.04 25.44 
L 563.001818 25.44 
" style="fill:none;"/>
   </g>
   <g id="text_15">
    <!-- Dynamic Pressure over a Day -->
    <defs>
     <path d="M 21 0 
L 1.265625 51.859375 
L 10.546875 51.859375 
L 21.6875 20.796875 
Q 23.484375 15.765625 25 10.359375 
Q 26.171875 14.453125 28.265625 20.21875 
L 39.796875 51.859375 
L 48.828125 51.859375 
L 29.203125 0 
z
" id="ArialMT-118"/>
    </defs>
    <g style="fill:#262626;" transform="translate(223.331534 19.44)scale(0.12 -0.12)">
     <use xlink:href="#ArialMT-68"/>
     <use x="72.216797" xlink:href="#ArialMT-121"/>
     <use x="122.216797" xlink:href="#ArialMT-110"/>
     <use x="177.832031" xlink:href="#ArialMT-97"/>
     <use x="233.447266" xlink:href="#ArialMT-109"/>
     <use x="316.748047" xlink:href="#ArialMT-105"/>
     <use x="338.964844" xlink:href="#ArialMT-99"/>
     <use x="388.964844" xlink:href="#ArialMT-32"/>
     <use x="416.748047" xlink:href="#ArialMT-80"/>
     <use x="483.447266" xlink:href="#ArialMT-114"/>
     <use x="516.748047" xlink:href="#ArialMT-101"/>
     <use x="572.363281" xlink:href="#ArialMT-115"/>
     <use x="622.363281" xlink:href="#ArialMT-115"/>
     <use x="672.363281" xlink:href="#ArialMT-117"/>
     <use x="727.978516" xlink:href="#ArialMT-114"/>
     <use x="761.279297" xlink:href="#ArialMT-101"/>
     <use x="816.894531" xlink:href="#ArialMT-32"/>
     <use x="844.677734" xlink:href="#ArialMT-111"/>
     <use x="900.292969" xlink:href="#ArialMT-118"/>
     <use x="950.292969" xlink:href="#ArialMT-101"/>
     <use x="1005.908203" xlink:href="#ArialMT-114"/>
     <use x="1039.208984" xlink:href="#ArialMT-32"/>
     <use x="1066.992188" xlink:href="#ArialMT-97"/>
     <use x="1122.607422" xlink:href="#ArialMT-32"/>
     <use x="1150.390625" xlink:href="#ArialMT-68"/>
     <use x="1222.607422" xlink:href="#ArialMT-97"/>
     <use x="1278.222656" xlink:href="#ArialMT-121"/>
    </g>
   </g>
  </g>
 </g>
 <defs>
  <clipPath id="p9aafdc51e8">
   <rect height="330.04" width="519.961818" x="43.04" y="25.44"/>
  </clipPath>
 </defs>
</svg>
