<?xml version="1.0" encoding="utf-8" standalone="no"?>
<!DOCTYPE svg PUBLIC "-//W3C//DTD SVG 1.1//EN"
  "http://www.w3.org/Graphics/SVG/1.1/DTD/svg11.dtd">
<!-- Created with matplotlib (https://matplotlib.org/) -->
<svg height="396pt" version="1.1" viewBox="0 0 576 396" width="576pt" xmlns="http://www.w3.org/2000/svg" xmlns:xlink="http://www.w3.org/1999/xlink">
 <defs>
  <style type="text/css">
*{stroke-linecap:butt;stroke-linejoin:round;}
  </style>
 </defs>
 <g id="figure_1">
  <g id="patch_1">
   <path d="M 0 396 
L 576 396 
L 576 0 
L 0 0 
z
" style="fill:#ffffff;"/>
  </g>
  <g id="axes_1">
   <g id="patch_2">
    <path d="M 60.05 355.48 
L 563.001818 355.48 
L 563.001818 25.49625 
L 60.05 25.49625 
z
" style="fill:#eaeaf2;"/>
   </g>
   <g id="matplotlib.axis_1">
    <g id="xtick_1">
     <g id="line2d_1">
      <path clip-path="url(#pa10d03f1ba)" d="M 82.911446 355.48 
L 82.911446 25.49625 
" style="fill:none;stroke:#ffffff;stroke-linecap:round;"/>
     </g>
     <g id="line2d_2"/>
     <g id="text_1">
      <!-- 0 -->
      <defs>
       <path d="M 4.15625 35.296875 
Q 4.15625 48 6.765625 55.734375 
Q 9.375 63.484375 14.515625 67.671875 
Q 19.671875 71.875 27.484375 71.875 
Q 33.25 71.875 37.59375 69.546875 
Q 41.9375 67.234375 44.765625 62.859375 
Q 47.609375 58.5 49.21875 52.21875 
Q 50.828125 45.953125 50.828125 35.296875 
Q 50.828125 22.703125 48.234375 14.96875 
Q 45.65625 7.234375 40.5 3 
Q 35.359375 -1.21875 27.484375 -1.21875 
Q 17.140625 -1.21875 11.234375 6.203125 
Q 4.15625 15.140625 4.15625 35.296875 
z
M 13.1875 35.296875 
Q 13.1875 17.671875 17.3125 11.828125 
Q 21.4375 6 27.484375 6 
Q 33.546875 6 37.671875 11.859375 
Q 41.796875 17.71875 41.796875 35.296875 
Q 41.796875 52.984375 37.671875 58.78125 
Q 33.546875 64.59375 27.390625 64.59375 
Q 21.34375 64.59375 17.71875 59.46875 
Q 13.1875 52.9375 13.1875 35.296875 
z
" id="ArialMT-48"/>
      </defs>
      <g style="fill:#262626;" transform="translate(80.130978 369.637812)scale(0.1 -0.1)">
       <use xlink:href="#ArialMT-48"/>
      </g>
     </g>
    </g>
    <g id="xtick_2">
     <g id="line2d_3">
      <path clip-path="url(#pa10d03f1ba)" d="M 178.167472 355.48 
L 178.167472 25.49625 
" style="fill:none;stroke:#ffffff;stroke-linecap:round;"/>
     </g>
     <g id="line2d_4"/>
     <g id="text_2">
      <!-- 5 -->
      <defs>
       <path d="M 4.15625 18.75 
L 13.375 19.53125 
Q 14.40625 12.796875 18.140625 9.390625 
Q 21.875 6 27.15625 6 
Q 33.5 6 37.890625 10.78125 
Q 42.28125 15.578125 42.28125 23.484375 
Q 42.28125 31 38.0625 35.34375 
Q 33.84375 39.703125 27 39.703125 
Q 22.75 39.703125 19.328125 37.765625 
Q 15.921875 35.84375 13.96875 32.765625 
L 5.71875 33.84375 
L 12.640625 70.609375 
L 48.25 70.609375 
L 48.25 62.203125 
L 19.671875 62.203125 
L 15.828125 42.96875 
Q 22.265625 47.46875 29.34375 47.46875 
Q 38.71875 47.46875 45.15625 40.96875 
Q 51.609375 34.46875 51.609375 24.265625 
Q 51.609375 14.546875 45.953125 7.46875 
Q 39.0625 -1.21875 27.15625 -1.21875 
Q 17.390625 -1.21875 11.203125 4.25 
Q 5.03125 9.71875 4.15625 18.75 
z
" id="ArialMT-53"/>
      </defs>
      <g style="fill:#262626;" transform="translate(175.387004 369.637812)scale(0.1 -0.1)">
       <use xlink:href="#ArialMT-53"/>
      </g>
     </g>
    </g>
    <g id="xtick_3">
     <g id="line2d_5">
      <path clip-path="url(#pa10d03f1ba)" d="M 273.423499 355.48 
L 273.423499 25.49625 
" style="fill:none;stroke:#ffffff;stroke-linecap:round;"/>
     </g>
     <g id="line2d_6"/>
     <g id="text_3">
      <!-- 10 -->
      <defs>
       <path d="M 37.25 0 
L 28.46875 0 
L 28.46875 56 
Q 25.296875 52.984375 20.140625 49.953125 
Q 14.984375 46.921875 10.890625 45.40625 
L 10.890625 53.90625 
Q 18.265625 57.375 23.78125 62.296875 
Q 29.296875 67.234375 31.59375 71.875 
L 37.25 71.875 
z
" id="ArialMT-49"/>
      </defs>
      <g style="fill:#262626;" transform="translate(267.862561 369.637812)scale(0.1 -0.1)">
       <use xlink:href="#ArialMT-49"/>
       <use x="55.615234" xlink:href="#ArialMT-48"/>
      </g>
     </g>
    </g>
    <g id="xtick_4">
     <g id="line2d_7">
      <path clip-path="url(#pa10d03f1ba)" d="M 368.679525 355.48 
L 368.679525 25.49625 
" style="fill:none;stroke:#ffffff;stroke-linecap:round;"/>
     </g>
     <g id="line2d_8"/>
     <g id="text_4">
      <!-- 15 -->
      <g style="fill:#262626;" transform="translate(363.118587 369.637812)scale(0.1 -0.1)">
       <use xlink:href="#ArialMT-49"/>
       <use x="55.615234" xlink:href="#ArialMT-53"/>
      </g>
     </g>
    </g>
    <g id="xtick_5">
     <g id="line2d_9">
      <path clip-path="url(#pa10d03f1ba)" d="M 463.935551 355.48 
L 463.935551 25.49625 
" style="fill:none;stroke:#ffffff;stroke-linecap:round;"/>
     </g>
     <g id="line2d_10"/>
     <g id="text_5">
      <!-- 20 -->
      <defs>
       <path d="M 50.34375 8.453125 
L 50.34375 0 
L 3.03125 0 
Q 2.9375 3.171875 4.046875 6.109375 
Q 5.859375 10.9375 9.828125 15.625 
Q 13.8125 20.3125 21.34375 26.46875 
Q 33.015625 36.03125 37.109375 41.625 
Q 41.21875 47.21875 41.21875 52.203125 
Q 41.21875 57.421875 37.46875 61 
Q 33.734375 64.59375 27.734375 64.59375 
Q 21.390625 64.59375 17.578125 60.78125 
Q 13.765625 56.984375 13.71875 50.25 
L 4.6875 51.171875 
Q 5.609375 61.28125 11.65625 66.578125 
Q 17.71875 71.875 27.9375 71.875 
Q 38.234375 71.875 44.234375 66.15625 
Q 50.25 60.453125 50.25 52 
Q 50.25 47.703125 48.484375 43.546875 
Q 46.734375 39.40625 42.65625 34.8125 
Q 38.578125 30.21875 29.109375 22.21875 
Q 21.1875 15.578125 18.9375 13.203125 
Q 16.703125 10.84375 15.234375 8.453125 
z
" id="ArialMT-50"/>
      </defs>
      <g style="fill:#262626;" transform="translate(458.374613 369.637812)scale(0.1 -0.1)">
       <use xlink:href="#ArialMT-50"/>
       <use x="55.615234" xlink:href="#ArialMT-48"/>
      </g>
     </g>
    </g>
    <g id="xtick_6">
     <g id="line2d_11">
      <path clip-path="url(#pa10d03f1ba)" d="M 559.191577 355.48 
L 559.191577 25.49625 
" style="fill:none;stroke:#ffffff;stroke-linecap:round;"/>
     </g>
     <g id="line2d_12"/>
     <g id="text_6">
      <!-- 25 -->
      <g style="fill:#262626;" transform="translate(553.63064 369.637812)scale(0.1 -0.1)">
       <use xlink:href="#ArialMT-50"/>
       <use x="55.615234" xlink:href="#ArialMT-53"/>
      </g>
     </g>
    </g>
    <g id="text_7">
     <!-- Time after Solar Noon [hours] -->
     <defs>
      <path d="M 25.921875 0 
L 25.921875 63.140625 
L 2.34375 63.140625 
L 2.34375 71.578125 
L 59.078125 71.578125 
L 59.078125 63.140625 
L 35.40625 63.140625 
L 35.40625 0 
z
" id="ArialMT-84"/>
      <path d="M 6.640625 61.46875 
L 6.640625 71.578125 
L 15.4375 71.578125 
L 15.4375 61.46875 
z
M 6.640625 0 
L 6.640625 51.859375 
L 15.4375 51.859375 
L 15.4375 0 
z
" id="ArialMT-105"/>
      <path d="M 6.59375 0 
L 6.59375 51.859375 
L 14.453125 51.859375 
L 14.453125 44.578125 
Q 16.890625 48.390625 20.9375 50.703125 
Q 25 53.03125 30.171875 53.03125 
Q 35.9375 53.03125 39.625 50.640625 
Q 43.3125 48.25 44.828125 43.953125 
Q 50.984375 53.03125 60.84375 53.03125 
Q 68.5625 53.03125 72.703125 48.75 
Q 76.859375 44.484375 76.859375 35.59375 
L 76.859375 0 
L 68.109375 0 
L 68.109375 32.671875 
Q 68.109375 37.9375 67.25 40.25 
Q 66.40625 42.578125 64.15625 43.984375 
Q 61.921875 45.40625 58.890625 45.40625 
Q 53.421875 45.40625 49.796875 41.765625 
Q 46.1875 38.140625 46.1875 30.125 
L 46.1875 0 
L 37.40625 0 
L 37.40625 33.6875 
Q 37.40625 39.546875 35.25 42.46875 
Q 33.109375 45.40625 28.21875 45.40625 
Q 24.515625 45.40625 21.359375 43.453125 
Q 18.21875 41.5 16.796875 37.734375 
Q 15.375 33.984375 15.375 26.90625 
L 15.375 0 
z
" id="ArialMT-109"/>
      <path d="M 42.09375 16.703125 
L 51.171875 15.578125 
Q 49.03125 7.625 43.21875 3.21875 
Q 37.40625 -1.171875 28.375 -1.171875 
Q 17 -1.171875 10.328125 5.828125 
Q 3.65625 12.84375 3.65625 25.484375 
Q 3.65625 38.578125 10.390625 45.796875 
Q 17.140625 53.03125 27.875 53.03125 
Q 38.28125 53.03125 44.875 45.953125 
Q 51.46875 38.875 51.46875 26.03125 
Q 51.46875 25.25 51.421875 23.6875 
L 12.75 23.6875 
Q 13.234375 15.140625 17.578125 10.59375 
Q 21.921875 6.0625 28.421875 6.0625 
Q 33.25 6.0625 36.671875 8.59375 
Q 40.09375 11.140625 42.09375 16.703125 
z
M 13.234375 30.90625 
L 42.1875 30.90625 
Q 41.609375 37.453125 38.875 40.71875 
Q 34.671875 45.796875 27.984375 45.796875 
Q 21.921875 45.796875 17.796875 41.75 
Q 13.671875 37.703125 13.234375 30.90625 
z
" id="ArialMT-101"/>
      <path id="ArialMT-32"/>
      <path d="M 40.4375 6.390625 
Q 35.546875 2.25 31.03125 0.53125 
Q 26.515625 -1.171875 21.34375 -1.171875 
Q 12.796875 -1.171875 8.203125 3 
Q 3.609375 7.171875 3.609375 13.671875 
Q 3.609375 17.484375 5.34375 20.625 
Q 7.078125 23.78125 9.890625 25.6875 
Q 12.703125 27.59375 16.21875 28.5625 
Q 18.796875 29.25 24.03125 29.890625 
Q 34.671875 31.15625 39.703125 32.90625 
Q 39.75 34.71875 39.75 35.203125 
Q 39.75 40.578125 37.25 42.78125 
Q 33.890625 45.75 27.25 45.75 
Q 21.046875 45.75 18.09375 43.578125 
Q 15.140625 41.40625 13.71875 35.890625 
L 5.125 37.0625 
Q 6.296875 42.578125 8.984375 45.96875 
Q 11.671875 49.359375 16.75 51.1875 
Q 21.828125 53.03125 28.515625 53.03125 
Q 35.15625 53.03125 39.296875 51.46875 
Q 43.453125 49.90625 45.40625 47.53125 
Q 47.359375 45.171875 48.140625 41.546875 
Q 48.578125 39.3125 48.578125 33.453125 
L 48.578125 21.734375 
Q 48.578125 9.46875 49.140625 6.21875 
Q 49.703125 2.984375 51.375 0 
L 42.1875 0 
Q 40.828125 2.734375 40.4375 6.390625 
z
M 39.703125 26.03125 
Q 34.90625 24.078125 25.34375 22.703125 
Q 19.921875 21.921875 17.671875 20.9375 
Q 15.4375 19.96875 14.203125 18.09375 
Q 12.984375 16.21875 12.984375 13.921875 
Q 12.984375 10.40625 15.640625 8.0625 
Q 18.3125 5.71875 23.4375 5.71875 
Q 28.515625 5.71875 32.46875 7.9375 
Q 36.421875 10.15625 38.28125 14.015625 
Q 39.703125 17 39.703125 22.796875 
z
" id="ArialMT-97"/>
      <path d="M 8.6875 0 
L 8.6875 45.015625 
L 0.921875 45.015625 
L 0.921875 51.859375 
L 8.6875 51.859375 
L 8.6875 57.375 
Q 8.6875 62.59375 9.625 65.140625 
Q 10.890625 68.5625 14.078125 70.671875 
Q 17.28125 72.796875 23.046875 72.796875 
Q 26.765625 72.796875 31.25 71.921875 
L 29.9375 64.265625 
Q 27.203125 64.75 24.75 64.75 
Q 20.75 64.75 19.09375 63.03125 
Q 17.4375 61.328125 17.4375 56.640625 
L 17.4375 51.859375 
L 27.546875 51.859375 
L 27.546875 45.015625 
L 17.4375 45.015625 
L 17.4375 0 
z
" id="ArialMT-102"/>
      <path d="M 25.78125 7.859375 
L 27.046875 0.09375 
Q 23.34375 -0.6875 20.40625 -0.6875 
Q 15.625 -0.6875 12.984375 0.828125 
Q 10.359375 2.34375 9.28125 4.8125 
Q 8.203125 7.28125 8.203125 15.1875 
L 8.203125 45.015625 
L 1.765625 45.015625 
L 1.765625 51.859375 
L 8.203125 51.859375 
L 8.203125 64.703125 
L 16.9375 69.96875 
L 16.9375 51.859375 
L 25.78125 51.859375 
L 25.78125 45.015625 
L 16.9375 45.015625 
L 16.9375 14.703125 
Q 16.9375 10.9375 17.40625 9.859375 
Q 17.875 8.796875 18.921875 8.15625 
Q 19.96875 7.515625 21.921875 7.515625 
Q 23.390625 7.515625 25.78125 7.859375 
z
" id="ArialMT-116"/>
      <path d="M 6.5 0 
L 6.5 51.859375 
L 14.40625 51.859375 
L 14.40625 44 
Q 17.4375 49.515625 20 51.265625 
Q 22.5625 53.03125 25.640625 53.03125 
Q 30.078125 53.03125 34.671875 50.203125 
L 31.640625 42.046875 
Q 28.421875 43.953125 25.203125 43.953125 
Q 22.3125 43.953125 20.015625 42.21875 
Q 17.71875 40.484375 16.75 37.40625 
Q 15.28125 32.71875 15.28125 27.15625 
L 15.28125 0 
z
" id="ArialMT-114"/>
      <path d="M 4.5 23 
L 13.421875 23.78125 
Q 14.0625 18.40625 16.375 14.96875 
Q 18.703125 11.53125 23.578125 9.40625 
Q 28.46875 7.28125 34.578125 7.28125 
Q 39.984375 7.28125 44.140625 8.890625 
Q 48.296875 10.5 50.3125 13.296875 
Q 52.34375 16.109375 52.34375 19.4375 
Q 52.34375 22.796875 50.390625 25.3125 
Q 48.4375 27.828125 43.953125 29.546875 
Q 41.0625 30.671875 31.203125 33.03125 
Q 21.34375 35.40625 17.390625 37.5 
Q 12.25 40.1875 9.734375 44.15625 
Q 7.234375 48.140625 7.234375 53.078125 
Q 7.234375 58.5 10.296875 63.203125 
Q 13.375 67.921875 19.28125 70.359375 
Q 25.203125 72.796875 32.421875 72.796875 
Q 40.375 72.796875 46.453125 70.234375 
Q 52.546875 67.671875 55.8125 62.6875 
Q 59.078125 57.71875 59.328125 51.421875 
L 50.25 50.734375 
Q 49.515625 57.515625 45.28125 60.984375 
Q 41.0625 64.453125 32.8125 64.453125 
Q 24.21875 64.453125 20.28125 61.296875 
Q 16.359375 58.15625 16.359375 53.71875 
Q 16.359375 49.859375 19.140625 47.359375 
Q 21.875 44.875 33.421875 42.265625 
Q 44.96875 39.65625 49.265625 37.703125 
Q 55.515625 34.8125 58.484375 30.390625 
Q 61.46875 25.984375 61.46875 20.21875 
Q 61.46875 14.5 58.203125 9.4375 
Q 54.9375 4.390625 48.796875 1.578125 
Q 42.671875 -1.21875 35.015625 -1.21875 
Q 25.296875 -1.21875 18.71875 1.609375 
Q 12.15625 4.4375 8.421875 10.125 
Q 4.6875 15.828125 4.5 23 
z
" id="ArialMT-83"/>
      <path d="M 3.328125 25.921875 
Q 3.328125 40.328125 11.328125 47.265625 
Q 18.015625 53.03125 27.640625 53.03125 
Q 38.328125 53.03125 45.109375 46.015625 
Q 51.90625 39.015625 51.90625 26.65625 
Q 51.90625 16.65625 48.90625 10.90625 
Q 45.90625 5.171875 40.15625 2 
Q 34.421875 -1.171875 27.640625 -1.171875 
Q 16.75 -1.171875 10.03125 5.8125 
Q 3.328125 12.796875 3.328125 25.921875 
z
M 12.359375 25.921875 
Q 12.359375 15.96875 16.703125 11.015625 
Q 21.046875 6.0625 27.640625 6.0625 
Q 34.1875 6.0625 38.53125 11.03125 
Q 42.875 16.015625 42.875 26.21875 
Q 42.875 35.84375 38.5 40.796875 
Q 34.125 45.75 27.640625 45.75 
Q 21.046875 45.75 16.703125 40.8125 
Q 12.359375 35.890625 12.359375 25.921875 
z
" id="ArialMT-111"/>
      <path d="M 6.390625 0 
L 6.390625 71.578125 
L 15.1875 71.578125 
L 15.1875 0 
z
" id="ArialMT-108"/>
      <path d="M 7.625 0 
L 7.625 71.578125 
L 17.328125 71.578125 
L 54.9375 15.375 
L 54.9375 71.578125 
L 64.015625 71.578125 
L 64.015625 0 
L 54.296875 0 
L 16.703125 56.25 
L 16.703125 0 
z
" id="ArialMT-78"/>
      <path d="M 6.59375 0 
L 6.59375 51.859375 
L 14.5 51.859375 
L 14.5 44.484375 
Q 20.21875 53.03125 31 53.03125 
Q 35.6875 53.03125 39.625 51.34375 
Q 43.5625 49.65625 45.515625 46.921875 
Q 47.46875 44.1875 48.25 40.4375 
Q 48.734375 37.984375 48.734375 31.890625 
L 48.734375 0 
L 39.9375 0 
L 39.9375 31.546875 
Q 39.9375 36.921875 38.90625 39.578125 
Q 37.890625 42.234375 35.28125 43.8125 
Q 32.671875 45.40625 29.15625 45.40625 
Q 23.53125 45.40625 19.453125 41.84375 
Q 15.375 38.28125 15.375 28.328125 
L 15.375 0 
z
" id="ArialMT-110"/>
      <path d="M 6.78125 -19.875 
L 6.78125 71.578125 
L 26.171875 71.578125 
L 26.171875 64.3125 
L 15.578125 64.3125 
L 15.578125 -12.59375 
L 26.171875 -12.59375 
L 26.171875 -19.875 
z
" id="ArialMT-91"/>
      <path d="M 6.59375 0 
L 6.59375 71.578125 
L 15.375 71.578125 
L 15.375 45.90625 
Q 21.53125 53.03125 30.90625 53.03125 
Q 36.671875 53.03125 40.921875 50.75 
Q 45.171875 48.484375 47 44.484375 
Q 48.828125 40.484375 48.828125 32.859375 
L 48.828125 0 
L 40.046875 0 
L 40.046875 32.859375 
Q 40.046875 39.453125 37.1875 42.453125 
Q 34.328125 45.453125 29.109375 45.453125 
Q 25.203125 45.453125 21.75 43.421875 
Q 18.3125 41.40625 16.84375 37.9375 
Q 15.375 34.46875 15.375 28.375 
L 15.375 0 
z
" id="ArialMT-104"/>
      <path d="M 40.578125 0 
L 40.578125 7.625 
Q 34.515625 -1.171875 24.125 -1.171875 
Q 19.53125 -1.171875 15.546875 0.578125 
Q 11.578125 2.34375 9.640625 5 
Q 7.71875 7.671875 6.9375 11.53125 
Q 6.390625 14.109375 6.390625 19.734375 
L 6.390625 51.859375 
L 15.1875 51.859375 
L 15.1875 23.09375 
Q 15.1875 16.21875 15.71875 13.8125 
Q 16.546875 10.359375 19.234375 8.375 
Q 21.921875 6.390625 25.875 6.390625 
Q 29.828125 6.390625 33.296875 8.421875 
Q 36.765625 10.453125 38.203125 13.9375 
Q 39.65625 17.4375 39.65625 24.078125 
L 39.65625 51.859375 
L 48.4375 51.859375 
L 48.4375 0 
z
" id="ArialMT-117"/>
      <path d="M 3.078125 15.484375 
L 11.765625 16.84375 
Q 12.5 11.625 15.84375 8.84375 
Q 19.1875 6.0625 25.203125 6.0625 
Q 31.25 6.0625 34.171875 8.515625 
Q 37.109375 10.984375 37.109375 14.3125 
Q 37.109375 17.28125 34.515625 19 
Q 32.71875 20.171875 25.53125 21.96875 
Q 15.875 24.421875 12.140625 26.203125 
Q 8.40625 27.984375 6.46875 31.125 
Q 4.546875 34.28125 4.546875 38.09375 
Q 4.546875 41.546875 6.125 44.5 
Q 7.71875 47.46875 10.453125 49.421875 
Q 12.5 50.921875 16.03125 51.96875 
Q 19.578125 53.03125 23.640625 53.03125 
Q 29.734375 53.03125 34.34375 51.265625 
Q 38.96875 49.515625 41.15625 46.5 
Q 43.359375 43.5 44.1875 38.484375 
L 35.59375 37.3125 
Q 35.015625 41.3125 32.203125 43.546875 
Q 29.390625 45.796875 24.265625 45.796875 
Q 18.21875 45.796875 15.625 43.796875 
Q 13.03125 41.796875 13.03125 39.109375 
Q 13.03125 37.40625 14.109375 36.03125 
Q 15.1875 34.625 17.484375 33.6875 
Q 18.796875 33.203125 25.25 31.453125 
Q 34.578125 28.953125 38.25 27.359375 
Q 41.9375 25.78125 44.03125 22.75 
Q 46.140625 19.734375 46.140625 15.234375 
Q 46.140625 10.84375 43.578125 6.953125 
Q 41.015625 3.078125 36.171875 0.953125 
Q 31.34375 -1.171875 25.25 -1.171875 
Q 15.140625 -1.171875 9.84375 3.03125 
Q 4.546875 7.234375 3.078125 15.484375 
z
" id="ArialMT-115"/>
      <path d="M 21.296875 -19.875 
L 1.90625 -19.875 
L 1.90625 -12.59375 
L 12.5 -12.59375 
L 12.5 64.3125 
L 1.90625 64.3125 
L 1.90625 71.578125 
L 21.296875 71.578125 
z
" id="ArialMT-93"/>
     </defs>
     <g style="fill:#262626;" transform="translate(239.39169 383.632969)scale(0.11 -0.11)">
      <use xlink:href="#ArialMT-84"/>
      <use x="61.037109" xlink:href="#ArialMT-105"/>
      <use x="83.253906" xlink:href="#ArialMT-109"/>
      <use x="166.554688" xlink:href="#ArialMT-101"/>
      <use x="222.169922" xlink:href="#ArialMT-32"/>
      <use x="249.953125" xlink:href="#ArialMT-97"/>
      <use x="305.568359" xlink:href="#ArialMT-102"/>
      <use x="333.351562" xlink:href="#ArialMT-116"/>
      <use x="361.134766" xlink:href="#ArialMT-101"/>
      <use x="416.75" xlink:href="#ArialMT-114"/>
      <use x="450.050781" xlink:href="#ArialMT-32"/>
      <use x="477.833984" xlink:href="#ArialMT-83"/>
      <use x="544.533203" xlink:href="#ArialMT-111"/>
      <use x="600.148438" xlink:href="#ArialMT-108"/>
      <use x="622.365234" xlink:href="#ArialMT-97"/>
      <use x="677.980469" xlink:href="#ArialMT-114"/>
      <use x="711.28125" xlink:href="#ArialMT-32"/>
      <use x="739.064453" xlink:href="#ArialMT-78"/>
      <use x="811.28125" xlink:href="#ArialMT-111"/>
      <use x="866.896484" xlink:href="#ArialMT-111"/>
      <use x="922.511719" xlink:href="#ArialMT-110"/>
      <use x="978.126953" xlink:href="#ArialMT-32"/>
      <use x="1005.910156" xlink:href="#ArialMT-91"/>
      <use x="1033.693359" xlink:href="#ArialMT-104"/>
      <use x="1089.308594" xlink:href="#ArialMT-111"/>
      <use x="1144.923828" xlink:href="#ArialMT-117"/>
      <use x="1200.539062" xlink:href="#ArialMT-114"/>
      <use x="1233.839844" xlink:href="#ArialMT-115"/>
      <use x="1283.839844" xlink:href="#ArialMT-93"/>
     </g>
    </g>
   </g>
   <g id="matplotlib.axis_2">
    <g id="ytick_1">
     <g id="line2d_13">
      <path clip-path="url(#pa10d03f1ba)" d="M 60.05 324.088905 
L 563.001818 324.088905 
" style="fill:none;stroke:#ffffff;stroke-linecap:round;"/>
     </g>
     <g id="line2d_14"/>
     <g id="text_8">
      <!-- −2000 -->
      <defs>
       <path d="M 52.828125 31.203125 
L 5.5625 31.203125 
L 5.5625 39.40625 
L 52.828125 39.40625 
z
" id="ArialMT-8722"/>
      </defs>
      <g style="fill:#262626;" transform="translate(24.965625 327.667811)scale(0.1 -0.1)">
       <use xlink:href="#ArialMT-8722"/>
       <use x="58.398438" xlink:href="#ArialMT-50"/>
       <use x="114.013672" xlink:href="#ArialMT-48"/>
       <use x="169.628906" xlink:href="#ArialMT-48"/>
       <use x="225.244141" xlink:href="#ArialMT-48"/>
      </g>
     </g>
    </g>
    <g id="ytick_2">
     <g id="line2d_15">
      <path clip-path="url(#pa10d03f1ba)" d="M 60.05 277.788055 
L 563.001818 277.788055 
" style="fill:none;stroke:#ffffff;stroke-linecap:round;"/>
     </g>
     <g id="line2d_16"/>
     <g id="text_9">
      <!-- −1000 -->
      <g style="fill:#262626;" transform="translate(24.965625 281.366962)scale(0.1 -0.1)">
       <use xlink:href="#ArialMT-8722"/>
       <use x="58.398438" xlink:href="#ArialMT-49"/>
       <use x="114.013672" xlink:href="#ArialMT-48"/>
       <use x="169.628906" xlink:href="#ArialMT-48"/>
       <use x="225.244141" xlink:href="#ArialMT-48"/>
      </g>
     </g>
    </g>
    <g id="ytick_3">
     <g id="line2d_17">
      <path clip-path="url(#pa10d03f1ba)" d="M 60.05 231.487206 
L 563.001818 231.487206 
" style="fill:none;stroke:#ffffff;stroke-linecap:round;"/>
     </g>
     <g id="line2d_18"/>
     <g id="text_10">
      <!-- 0 -->
      <g style="fill:#262626;" transform="translate(47.489063 235.066112)scale(0.1 -0.1)">
       <use xlink:href="#ArialMT-48"/>
      </g>
     </g>
    </g>
    <g id="ytick_4">
     <g id="line2d_19">
      <path clip-path="url(#pa10d03f1ba)" d="M 60.05 185.186357 
L 563.001818 185.186357 
" style="fill:none;stroke:#ffffff;stroke-linecap:round;"/>
     </g>
     <g id="line2d_20"/>
     <g id="text_11">
      <!-- 1000 -->
      <g style="fill:#262626;" transform="translate(30.80625 188.765263)scale(0.1 -0.1)">
       <use xlink:href="#ArialMT-49"/>
       <use x="55.615234" xlink:href="#ArialMT-48"/>
       <use x="111.230469" xlink:href="#ArialMT-48"/>
       <use x="166.845703" xlink:href="#ArialMT-48"/>
      </g>
     </g>
    </g>
    <g id="ytick_5">
     <g id="line2d_21">
      <path clip-path="url(#pa10d03f1ba)" d="M 60.05 138.885507 
L 563.001818 138.885507 
" style="fill:none;stroke:#ffffff;stroke-linecap:round;"/>
     </g>
     <g id="line2d_22"/>
     <g id="text_12">
      <!-- 2000 -->
      <g style="fill:#262626;" transform="translate(30.80625 142.464414)scale(0.1 -0.1)">
       <use xlink:href="#ArialMT-50"/>
       <use x="55.615234" xlink:href="#ArialMT-48"/>
       <use x="111.230469" xlink:href="#ArialMT-48"/>
       <use x="166.845703" xlink:href="#ArialMT-48"/>
      </g>
     </g>
    </g>
    <g id="ytick_6">
     <g id="line2d_23">
      <path clip-path="url(#pa10d03f1ba)" d="M 60.05 92.584658 
L 563.001818 92.584658 
" style="fill:none;stroke:#ffffff;stroke-linecap:round;"/>
     </g>
     <g id="line2d_24"/>
     <g id="text_13">
      <!-- 3000 -->
      <defs>
       <path d="M 4.203125 18.890625 
L 12.984375 20.0625 
Q 14.5 12.59375 18.140625 9.296875 
Q 21.78125 6 27 6 
Q 33.203125 6 37.46875 10.296875 
Q 41.75 14.59375 41.75 20.953125 
Q 41.75 27 37.796875 30.921875 
Q 33.84375 34.859375 27.734375 34.859375 
Q 25.25 34.859375 21.53125 33.890625 
L 22.515625 41.609375 
Q 23.390625 41.5 23.921875 41.5 
Q 29.546875 41.5 34.03125 44.421875 
Q 38.53125 47.359375 38.53125 53.46875 
Q 38.53125 58.296875 35.25 61.46875 
Q 31.984375 64.65625 26.8125 64.65625 
Q 21.6875 64.65625 18.265625 61.421875 
Q 14.84375 58.203125 13.875 51.765625 
L 5.078125 53.328125 
Q 6.6875 62.15625 12.390625 67.015625 
Q 18.109375 71.875 26.609375 71.875 
Q 32.46875 71.875 37.390625 69.359375 
Q 42.328125 66.84375 44.9375 62.5 
Q 47.5625 58.15625 47.5625 53.265625 
Q 47.5625 48.640625 45.0625 44.828125 
Q 42.578125 41.015625 37.703125 38.765625 
Q 44.046875 37.3125 47.5625 32.6875 
Q 51.078125 28.078125 51.078125 21.140625 
Q 51.078125 11.765625 44.234375 5.25 
Q 37.40625 -1.265625 26.953125 -1.265625 
Q 17.53125 -1.265625 11.296875 4.34375 
Q 5.078125 9.96875 4.203125 18.890625 
z
" id="ArialMT-51"/>
      </defs>
      <g style="fill:#262626;" transform="translate(30.80625 96.163564)scale(0.1 -0.1)">
       <use xlink:href="#ArialMT-51"/>
       <use x="55.615234" xlink:href="#ArialMT-48"/>
       <use x="111.230469" xlink:href="#ArialMT-48"/>
       <use x="166.845703" xlink:href="#ArialMT-48"/>
      </g>
     </g>
    </g>
    <g id="ytick_7">
     <g id="line2d_25">
      <path clip-path="url(#pa10d03f1ba)" d="M 60.05 46.283809 
L 563.001818 46.283809 
" style="fill:none;stroke:#ffffff;stroke-linecap:round;"/>
     </g>
     <g id="line2d_26"/>
     <g id="text_14">
      <!-- 4000 -->
      <defs>
       <path d="M 32.328125 0 
L 32.328125 17.140625 
L 1.265625 17.140625 
L 1.265625 25.203125 
L 33.9375 71.578125 
L 41.109375 71.578125 
L 41.109375 25.203125 
L 50.78125 25.203125 
L 50.78125 17.140625 
L 41.109375 17.140625 
L 41.109375 0 
z
M 32.328125 25.203125 
L 32.328125 57.46875 
L 9.90625 25.203125 
z
" id="ArialMT-52"/>
      </defs>
      <g style="fill:#262626;" transform="translate(30.80625 49.862715)scale(0.1 -0.1)">
       <use xlink:href="#ArialMT-52"/>
       <use x="55.615234" xlink:href="#ArialMT-48"/>
       <use x="111.230469" xlink:href="#ArialMT-48"/>
       <use x="166.845703" xlink:href="#ArialMT-48"/>
      </g>
     </g>
    </g>
    <g id="text_15">
     <!-- Net Power [W] (positive is charging) -->
     <defs>
      <path d="M 7.71875 0 
L 7.71875 71.578125 
L 34.71875 71.578125 
Q 41.84375 71.578125 45.609375 70.90625 
Q 50.875 70.015625 54.4375 67.546875 
Q 58.015625 65.09375 60.1875 60.640625 
Q 62.359375 56.203125 62.359375 50.875 
Q 62.359375 41.75 56.546875 35.421875 
Q 50.734375 29.109375 35.546875 29.109375 
L 17.1875 29.109375 
L 17.1875 0 
z
M 17.1875 37.546875 
L 35.6875 37.546875 
Q 44.875 37.546875 48.734375 40.96875 
Q 52.59375 44.390625 52.59375 50.59375 
Q 52.59375 55.078125 50.3125 58.265625 
Q 48.046875 61.46875 44.34375 62.5 
Q 41.9375 63.140625 35.5 63.140625 
L 17.1875 63.140625 
z
" id="ArialMT-80"/>
      <path d="M 16.15625 0 
L 0.296875 51.859375 
L 9.375 51.859375 
L 17.625 21.921875 
L 20.703125 10.796875 
Q 20.90625 11.625 23.390625 21.484375 
L 31.640625 51.859375 
L 40.671875 51.859375 
L 48.4375 21.78125 
L 51.03125 11.859375 
L 54 21.875 
L 62.890625 51.859375 
L 71.4375 51.859375 
L 55.21875 0 
L 46.09375 0 
L 37.84375 31.0625 
L 35.84375 39.890625 
L 25.34375 0 
z
" id="ArialMT-119"/>
      <path d="M 20.21875 0 
L 1.21875 71.578125 
L 10.9375 71.578125 
L 21.828125 24.65625 
Q 23.578125 17.28125 24.859375 10.015625 
Q 27.59375 21.484375 28.078125 23.25 
L 41.703125 71.578125 
L 53.125 71.578125 
L 63.375 35.359375 
Q 67.234375 21.875 68.953125 10.015625 
Q 70.3125 16.796875 72.515625 25.59375 
L 83.734375 71.578125 
L 93.265625 71.578125 
L 73.640625 0 
L 64.5 0 
L 49.421875 54.546875 
Q 47.515625 61.375 47.171875 62.9375 
Q 46.046875 58.015625 45.0625 54.546875 
L 29.890625 0 
z
" id="ArialMT-87"/>
      <path d="M 23.390625 -21.046875 
Q 16.109375 -11.859375 11.078125 0.4375 
Q 6.0625 12.75 6.0625 25.921875 
Q 6.0625 37.546875 9.8125 48.1875 
Q 14.203125 60.546875 23.390625 72.796875 
L 29.6875 72.796875 
Q 23.78125 62.640625 21.875 58.296875 
Q 18.890625 51.5625 17.1875 44.234375 
Q 15.09375 35.109375 15.09375 25.875 
Q 15.09375 2.390625 29.6875 -21.046875 
z
" id="ArialMT-40"/>
      <path d="M 6.59375 -19.875 
L 6.59375 51.859375 
L 14.59375 51.859375 
L 14.59375 45.125 
Q 17.4375 49.078125 21 51.046875 
Q 24.5625 53.03125 29.640625 53.03125 
Q 36.28125 53.03125 41.359375 49.609375 
Q 46.4375 46.1875 49.015625 39.953125 
Q 51.609375 33.734375 51.609375 26.3125 
Q 51.609375 18.359375 48.75 11.984375 
Q 45.90625 5.609375 40.453125 2.21875 
Q 35.015625 -1.171875 29 -1.171875 
Q 24.609375 -1.171875 21.109375 0.6875 
Q 17.625 2.546875 15.375 5.375 
L 15.375 -19.875 
z
M 14.546875 25.640625 
Q 14.546875 15.625 18.59375 10.84375 
Q 22.65625 6.0625 28.421875 6.0625 
Q 34.28125 6.0625 38.453125 11.015625 
Q 42.625 15.96875 42.625 26.375 
Q 42.625 36.28125 38.546875 41.203125 
Q 34.46875 46.140625 28.8125 46.140625 
Q 23.1875 46.140625 18.859375 40.890625 
Q 14.546875 35.640625 14.546875 25.640625 
z
" id="ArialMT-112"/>
      <path d="M 21 0 
L 1.265625 51.859375 
L 10.546875 51.859375 
L 21.6875 20.796875 
Q 23.484375 15.765625 25 10.359375 
Q 26.171875 14.453125 28.265625 20.21875 
L 39.796875 51.859375 
L 48.828125 51.859375 
L 29.203125 0 
z
" id="ArialMT-118"/>
      <path d="M 40.4375 19 
L 49.078125 17.875 
Q 47.65625 8.9375 41.8125 3.875 
Q 35.984375 -1.171875 27.484375 -1.171875 
Q 16.84375 -1.171875 10.375 5.78125 
Q 3.90625 12.75 3.90625 25.734375 
Q 3.90625 34.125 6.6875 40.421875 
Q 9.46875 46.734375 15.15625 49.875 
Q 20.84375 53.03125 27.546875 53.03125 
Q 35.984375 53.03125 41.359375 48.75 
Q 46.734375 44.484375 48.25 36.625 
L 39.703125 35.296875 
Q 38.484375 40.53125 35.375 43.15625 
Q 32.28125 45.796875 27.875 45.796875 
Q 21.234375 45.796875 17.078125 41.03125 
Q 12.9375 36.28125 12.9375 25.984375 
Q 12.9375 15.53125 16.9375 10.796875 
Q 20.953125 6.0625 27.390625 6.0625 
Q 32.5625 6.0625 36.03125 9.234375 
Q 39.5 12.40625 40.4375 19 
z
" id="ArialMT-99"/>
      <path d="M 4.984375 -4.296875 
L 13.53125 -5.5625 
Q 14.0625 -9.515625 16.5 -11.328125 
Q 19.78125 -13.765625 25.4375 -13.765625 
Q 31.546875 -13.765625 34.859375 -11.328125 
Q 38.1875 -8.890625 39.359375 -4.5 
Q 40.046875 -1.8125 39.984375 6.78125 
Q 34.234375 0 25.640625 0 
Q 14.9375 0 9.078125 7.71875 
Q 3.21875 15.4375 3.21875 26.21875 
Q 3.21875 33.640625 5.90625 39.90625 
Q 8.59375 46.1875 13.6875 49.609375 
Q 18.796875 53.03125 25.6875 53.03125 
Q 34.859375 53.03125 40.828125 45.609375 
L 40.828125 51.859375 
L 48.921875 51.859375 
L 48.921875 7.03125 
Q 48.921875 -5.078125 46.453125 -10.125 
Q 44 -15.1875 38.640625 -18.109375 
Q 33.296875 -21.046875 25.484375 -21.046875 
Q 16.21875 -21.046875 10.5 -16.875 
Q 4.78125 -12.703125 4.984375 -4.296875 
z
M 12.25 26.859375 
Q 12.25 16.65625 16.296875 11.96875 
Q 20.359375 7.28125 26.46875 7.28125 
Q 32.515625 7.28125 36.609375 11.9375 
Q 40.71875 16.609375 40.71875 26.5625 
Q 40.71875 36.078125 36.5 40.90625 
Q 32.28125 45.75 26.3125 45.75 
Q 20.453125 45.75 16.34375 40.984375 
Q 12.25 36.234375 12.25 26.859375 
z
" id="ArialMT-103"/>
      <path d="M 12.359375 -21.046875 
L 6.0625 -21.046875 
Q 20.65625 2.390625 20.65625 25.875 
Q 20.65625 35.0625 18.5625 44.09375 
Q 16.890625 51.421875 13.921875 58.15625 
Q 12.015625 62.546875 6.0625 72.796875 
L 12.359375 72.796875 
Q 21.53125 60.546875 25.921875 48.1875 
Q 29.6875 37.546875 29.6875 25.921875 
Q 29.6875 12.75 24.625 0.4375 
Q 19.578125 -11.859375 12.359375 -21.046875 
z
" id="ArialMT-41"/>
     </defs>
     <g style="fill:#262626;" transform="translate(18.650469 277.901172)rotate(-90)scale(0.11 -0.11)">
      <use xlink:href="#ArialMT-78"/>
      <use x="72.216797" xlink:href="#ArialMT-101"/>
      <use x="127.832031" xlink:href="#ArialMT-116"/>
      <use x="155.615234" xlink:href="#ArialMT-32"/>
      <use x="183.398438" xlink:href="#ArialMT-80"/>
      <use x="250.097656" xlink:href="#ArialMT-111"/>
      <use x="305.712891" xlink:href="#ArialMT-119"/>
      <use x="377.929688" xlink:href="#ArialMT-101"/>
      <use x="433.544922" xlink:href="#ArialMT-114"/>
      <use x="466.845703" xlink:href="#ArialMT-32"/>
      <use x="494.628906" xlink:href="#ArialMT-91"/>
      <use x="522.412109" xlink:href="#ArialMT-87"/>
      <use x="616.796875" xlink:href="#ArialMT-93"/>
      <use x="644.580078" xlink:href="#ArialMT-32"/>
      <use x="672.363281" xlink:href="#ArialMT-40"/>
      <use x="705.664062" xlink:href="#ArialMT-112"/>
      <use x="761.279297" xlink:href="#ArialMT-111"/>
      <use x="816.894531" xlink:href="#ArialMT-115"/>
      <use x="866.894531" xlink:href="#ArialMT-105"/>
      <use x="889.111328" xlink:href="#ArialMT-116"/>
      <use x="916.894531" xlink:href="#ArialMT-105"/>
      <use x="939.111328" xlink:href="#ArialMT-118"/>
      <use x="989.111328" xlink:href="#ArialMT-101"/>
      <use x="1044.726562" xlink:href="#ArialMT-32"/>
      <use x="1072.509766" xlink:href="#ArialMT-105"/>
      <use x="1094.726562" xlink:href="#ArialMT-115"/>
      <use x="1144.726562" xlink:href="#ArialMT-32"/>
      <use x="1172.509766" xlink:href="#ArialMT-99"/>
      <use x="1222.509766" xlink:href="#ArialMT-104"/>
      <use x="1278.125" xlink:href="#ArialMT-97"/>
      <use x="1333.740234" xlink:href="#ArialMT-114"/>
      <use x="1367.041016" xlink:href="#ArialMT-103"/>
      <use x="1422.65625" xlink:href="#ArialMT-105"/>
      <use x="1444.873047" xlink:href="#ArialMT-110"/>
      <use x="1500.488281" xlink:href="#ArialMT-103"/>
      <use x="1556.103516" xlink:href="#ArialMT-41"/>
     </g>
    </g>
   </g>
   <g id="line2d_27">
    <path clip-path="url(#pa10d03f1ba)" d="M 82.911446 40.495511 
L 84.44064 40.623984 
L 85.969834 41.009412 
L 87.499027 41.651795 
L 89.028221 42.551133 
L 90.557415 43.707427 
L 92.086609 45.120676 
L 93.615802 46.790879 
L 95.144996 48.718038 
L 96.67419 50.902151 
L 98.203384 53.343219 
L 99.732577 56.041242 
L 101.261771 58.996219 
L 104.320159 65.677035 
L 107.378546 73.385665 
L 110.436933 82.122108 
L 113.495321 91.88636 
L 116.553708 102.678416 
L 119.612096 114.498272 
L 122.670483 127.34592 
L 125.728871 141.221351 
L 128.787258 156.124548 
L 131.845646 172.055491 
L 134.904033 189.014138 
L 137.962421 207.000405 
L 141.020808 226.013963 
L 142.550002 236.96044 
L 144.079196 228.508657 
L 145.608389 231.971075 
L 147.137583 231.003341 
L 148.666777 231.971067 
L 150.19597 231.003345 
L 151.725164 231.971066 
L 153.254358 231.003344 
L 154.783552 231.971069 
L 156.312745 231.003341 
L 157.841939 231.971074 
L 159.371133 231.003335 
L 160.900327 231.971083 
L 162.42952 231.003324 
L 163.958714 231.971094 
L 165.487908 231.003312 
L 167.017101 231.971105 
L 168.546295 231.003301 
L 170.075489 231.971116 
L 171.604683 231.003291 
L 173.133876 231.971126 
L 174.66307 231.003281 
L 176.192264 231.971136 
L 177.721458 231.003271 
L 179.250651 231.971146 
L 180.779845 231.003261 
L 182.309039 231.971156 
L 183.838233 231.003251 
L 185.367426 231.971166 
L 186.89662 231.003242 
L 188.425814 231.971176 
L 189.955007 231.003231 
L 191.484201 231.971186 
L 193.013395 231.003221 
L 194.542589 231.971197 
L 196.071782 231.003209 
L 197.600976 231.97121 
L 199.13017 231.003196 
L 200.659364 231.971224 
L 202.188557 231.003181 
L 203.717751 233.576478 
L 205.246945 227.792686 
L 206.776139 235.181725 
L 208.305332 250.157109 
L 209.834526 254.637628 
L 287.823406 254.63763 
L 289.3526 256.312234 
L 293.940181 269.742095 
L 296.998569 279.148685 
L 300.056956 289.045623 
L 303.115344 299.574733 
L 306.173731 310.903085 
L 309.232118 323.232283 
L 312.290506 336.699209 
L 313.8197 340.3885 
L 315.348893 340.305984 
L 316.878087 340.381182 
L 318.407281 340.312483 
L 319.936475 340.375226 
L 322.994862 340.370171 
L 327.582443 340.326741 
L 332.170024 340.358387 
L 339.815993 340.340561 
L 358.166318 340.370526 
L 359.695512 340.316004 
L 361.224705 340.379011 
L 362.753899 340.306843 
L 364.283093 340.388956 
L 365.812287 340.296968 
L 367.34148 340.39886 
L 368.870674 340.290046 
L 370.399868 340.40281 
L 371.929061 340.286089 
L 373.458255 340.406826 
L 374.987449 340.282043 
L 376.516643 340.410961 
L 378.045836 340.277853 
L 379.57503 340.415275 
L 381.104224 340.273485 
L 382.633418 340.419775 
L 384.162611 340.268927 
L 385.691805 340.424478 
L 387.220999 340.264165 
L 388.750193 340.429399 
L 390.279386 340.259184 
L 391.80858 340.434552 
L 393.337774 340.25397 
L 394.866967 340.439953 
L 396.396161 340.248509 
L 397.925355 340.445618 
L 399.454549 340.242785 
L 400.983742 340.451565 
L 402.512936 340.236789 
L 404.04213 340.457791 
L 405.571324 340.230462 
L 407.100517 340.464429 
L 408.629711 340.224039 
L 410.158905 340.470865 
L 411.688098 340.216132 
L 413.217292 340.480739 
L 414.746486 335.701876 
L 419.334067 291.039421 
L 422.392455 260.937359 
L 423.921648 245.958597 
L 425.450842 228.347729 
L 426.980036 234.626682 
L 428.50923 228.347724 
L 430.038423 232.977068 
L 431.567617 231.646912 
L 433.096811 231.327534 
L 434.626004 231.646754 
L 436.155198 231.327782 
L 437.684392 231.64634 
L 439.213586 231.328362 
L 440.742779 231.645046 
L 442.271973 231.33037 
L 443.801167 231.639575 
L 445.330361 231.339302 
L 446.859554 231.62478 
L 448.388748 231.359961 
L 449.917942 231.605629 
L 451.447135 231.377604 
L 452.976329 231.588255 
L 454.505523 231.394709 
L 456.034717 231.573028 
L 457.56391 231.408058 
L 459.093104 231.563555 
L 460.622298 231.413656 
L 463.680685 231.539125 
L 465.209879 231.435278 
L 466.739073 231.538967 
L 468.268267 231.435613 
L 469.79746 231.538733 
L 471.326654 231.43573 
L 472.855848 231.538665 
L 474.385041 231.435739 
L 475.914235 231.538708 
L 477.443429 230.470191 
L 478.972623 229.741878 
L 480.501816 236.96044 
L 482.03101 226.013964 
L 485.089398 207.000405 
L 488.147785 189.014138 
L 491.206173 172.055491 
L 494.26456 156.124549 
L 497.322947 141.221351 
L 500.381335 127.34592 
L 503.439722 114.498272 
L 506.49811 102.678416 
L 509.556497 91.88636 
L 512.614885 82.122108 
L 515.673272 73.385665 
L 518.73166 65.677035 
L 521.790047 58.996219 
L 523.319241 56.041242 
L 524.848435 53.343219 
L 526.377628 50.902151 
L 527.906822 48.718038 
L 529.436016 46.790879 
L 530.96521 45.120676 
L 532.494403 43.707427 
L 534.023597 42.551134 
L 535.552791 41.651795 
L 537.081984 41.009412 
L 538.611178 40.623984 
L 540.140372 40.495512 
L 540.140372 40.495512 
" style="fill:none;stroke:#4c72b0;stroke-linecap:round;stroke-width:1.75;"/>
    <defs>
     <path d="M 0 1.75 
C 0.464105 1.75 0.909265 1.565609 1.237437 1.237437 
C 1.565609 0.909265 1.75 0.464105 1.75 0 
C 1.75 -0.464105 1.565609 -0.909265 1.237437 -1.237437 
C 0.909265 -1.565609 0.464105 -1.75 0 -1.75 
C -0.464105 -1.75 -0.909265 -1.565609 -1.237437 -1.237437 
C -1.565609 -0.909265 -1.75 -0.464105 -1.75 0 
C -1.75 0.464105 -1.565609 0.909265 -1.237437 1.237437 
C -0.909265 1.565609 -0.464105 1.75 0 1.75 
z
" id="m5d199dbf42"/>
    </defs>
    <g clip-path="url(#pa10d03f1ba)">
     <use style="fill:#4c72b0;" x="82.911446" xlink:href="#m5d199dbf42" y="40.495511"/>
     <use style="fill:#4c72b0;" x="84.44064" xlink:href="#m5d199dbf42" y="40.623984"/>
     <use style="fill:#4c72b0;" x="85.969834" xlink:href="#m5d199dbf42" y="41.009412"/>
     <use style="fill:#4c72b0;" x="87.499027" xlink:href="#m5d199dbf42" y="41.651795"/>
     <use style="fill:#4c72b0;" x="89.028221" xlink:href="#m5d199dbf42" y="42.551133"/>
     <use style="fill:#4c72b0;" x="90.557415" xlink:href="#m5d199dbf42" y="43.707427"/>
     <use style="fill:#4c72b0;" x="92.086609" xlink:href="#m5d199dbf42" y="45.120676"/>
     <use style="fill:#4c72b0;" x="93.615802" xlink:href="#m5d199dbf42" y="46.790879"/>
     <use style="fill:#4c72b0;" x="95.144996" xlink:href="#m5d199dbf42" y="48.718038"/>
     <use style="fill:#4c72b0;" x="96.67419" xlink:href="#m5d199dbf42" y="50.902151"/>
     <use style="fill:#4c72b0;" x="98.203384" xlink:href="#m5d199dbf42" y="53.343219"/>
     <use style="fill:#4c72b0;" x="99.732577" xlink:href="#m5d199dbf42" y="56.041242"/>
     <use style="fill:#4c72b0;" x="101.261771" xlink:href="#m5d199dbf42" y="58.996219"/>
     <use style="fill:#4c72b0;" x="102.790965" xlink:href="#m5d199dbf42" y="62.20815"/>
     <use style="fill:#4c72b0;" x="104.320159" xlink:href="#m5d199dbf42" y="65.677035"/>
     <use style="fill:#4c72b0;" x="105.849352" xlink:href="#m5d199dbf42" y="69.402873"/>
     <use style="fill:#4c72b0;" x="107.378546" xlink:href="#m5d199dbf42" y="73.385665"/>
     <use style="fill:#4c72b0;" x="108.90774" xlink:href="#m5d199dbf42" y="77.62541"/>
     <use style="fill:#4c72b0;" x="110.436933" xlink:href="#m5d199dbf42" y="82.122108"/>
     <use style="fill:#4c72b0;" x="111.966127" xlink:href="#m5d199dbf42" y="86.875758"/>
     <use style="fill:#4c72b0;" x="113.495321" xlink:href="#m5d199dbf42" y="91.88636"/>
     <use style="fill:#4c72b0;" x="115.024515" xlink:href="#m5d199dbf42" y="97.153913"/>
     <use style="fill:#4c72b0;" x="116.553708" xlink:href="#m5d199dbf42" y="102.678416"/>
     <use style="fill:#4c72b0;" x="118.082902" xlink:href="#m5d199dbf42" y="108.45987"/>
     <use style="fill:#4c72b0;" x="119.612096" xlink:href="#m5d199dbf42" y="114.498272"/>
     <use style="fill:#4c72b0;" x="121.14129" xlink:href="#m5d199dbf42" y="120.793623"/>
     <use style="fill:#4c72b0;" x="122.670483" xlink:href="#m5d199dbf42" y="127.34592"/>
     <use style="fill:#4c72b0;" x="124.199677" xlink:href="#m5d199dbf42" y="134.155163"/>
     <use style="fill:#4c72b0;" x="125.728871" xlink:href="#m5d199dbf42" y="141.221351"/>
     <use style="fill:#4c72b0;" x="127.258064" xlink:href="#m5d199dbf42" y="148.54448"/>
     <use style="fill:#4c72b0;" x="128.787258" xlink:href="#m5d199dbf42" y="156.124548"/>
     <use style="fill:#4c72b0;" x="130.316452" xlink:href="#m5d199dbf42" y="163.961553"/>
     <use style="fill:#4c72b0;" x="131.845646" xlink:href="#m5d199dbf42" y="172.055491"/>
     <use style="fill:#4c72b0;" x="133.374839" xlink:href="#m5d199dbf42" y="180.406355"/>
     <use style="fill:#4c72b0;" x="134.904033" xlink:href="#m5d199dbf42" y="189.014138"/>
     <use style="fill:#4c72b0;" x="136.433227" xlink:href="#m5d199dbf42" y="197.878828"/>
     <use style="fill:#4c72b0;" x="137.962421" xlink:href="#m5d199dbf42" y="207.000405"/>
     <use style="fill:#4c72b0;" x="139.491614" xlink:href="#m5d199dbf42" y="216.378826"/>
     <use style="fill:#4c72b0;" x="141.020808" xlink:href="#m5d199dbf42" y="226.013963"/>
     <use style="fill:#4c72b0;" x="142.550002" xlink:href="#m5d199dbf42" y="236.96044"/>
     <use style="fill:#4c72b0;" x="144.079196" xlink:href="#m5d199dbf42" y="228.508657"/>
     <use style="fill:#4c72b0;" x="145.608389" xlink:href="#m5d199dbf42" y="231.971075"/>
     <use style="fill:#4c72b0;" x="147.137583" xlink:href="#m5d199dbf42" y="231.003341"/>
     <use style="fill:#4c72b0;" x="148.666777" xlink:href="#m5d199dbf42" y="231.971067"/>
     <use style="fill:#4c72b0;" x="150.19597" xlink:href="#m5d199dbf42" y="231.003345"/>
     <use style="fill:#4c72b0;" x="151.725164" xlink:href="#m5d199dbf42" y="231.971066"/>
     <use style="fill:#4c72b0;" x="153.254358" xlink:href="#m5d199dbf42" y="231.003344"/>
     <use style="fill:#4c72b0;" x="154.783552" xlink:href="#m5d199dbf42" y="231.971069"/>
     <use style="fill:#4c72b0;" x="156.312745" xlink:href="#m5d199dbf42" y="231.003341"/>
     <use style="fill:#4c72b0;" x="157.841939" xlink:href="#m5d199dbf42" y="231.971074"/>
     <use style="fill:#4c72b0;" x="159.371133" xlink:href="#m5d199dbf42" y="231.003335"/>
     <use style="fill:#4c72b0;" x="160.900327" xlink:href="#m5d199dbf42" y="231.971083"/>
     <use style="fill:#4c72b0;" x="162.42952" xlink:href="#m5d199dbf42" y="231.003324"/>
     <use style="fill:#4c72b0;" x="163.958714" xlink:href="#m5d199dbf42" y="231.971094"/>
     <use style="fill:#4c72b0;" x="165.487908" xlink:href="#m5d199dbf42" y="231.003312"/>
     <use style="fill:#4c72b0;" x="167.017101" xlink:href="#m5d199dbf42" y="231.971105"/>
     <use style="fill:#4c72b0;" x="168.546295" xlink:href="#m5d199dbf42" y="231.003301"/>
     <use style="fill:#4c72b0;" x="170.075489" xlink:href="#m5d199dbf42" y="231.971116"/>
     <use style="fill:#4c72b0;" x="171.604683" xlink:href="#m5d199dbf42" y="231.003291"/>
     <use style="fill:#4c72b0;" x="173.133876" xlink:href="#m5d199dbf42" y="231.971126"/>
     <use style="fill:#4c72b0;" x="174.66307" xlink:href="#m5d199dbf42" y="231.003281"/>
     <use style="fill:#4c72b0;" x="176.192264" xlink:href="#m5d199dbf42" y="231.971136"/>
     <use style="fill:#4c72b0;" x="177.721458" xlink:href="#m5d199dbf42" y="231.003271"/>
     <use style="fill:#4c72b0;" x="179.250651" xlink:href="#m5d199dbf42" y="231.971146"/>
     <use style="fill:#4c72b0;" x="180.779845" xlink:href="#m5d199dbf42" y="231.003261"/>
     <use style="fill:#4c72b0;" x="182.309039" xlink:href="#m5d199dbf42" y="231.971156"/>
     <use style="fill:#4c72b0;" x="183.838233" xlink:href="#m5d199dbf42" y="231.003251"/>
     <use style="fill:#4c72b0;" x="185.367426" xlink:href="#m5d199dbf42" y="231.971166"/>
     <use style="fill:#4c72b0;" x="186.89662" xlink:href="#m5d199dbf42" y="231.003242"/>
     <use style="fill:#4c72b0;" x="188.425814" xlink:href="#m5d199dbf42" y="231.971176"/>
     <use style="fill:#4c72b0;" x="189.955007" xlink:href="#m5d199dbf42" y="231.003231"/>
     <use style="fill:#4c72b0;" x="191.484201" xlink:href="#m5d199dbf42" y="231.971186"/>
     <use style="fill:#4c72b0;" x="193.013395" xlink:href="#m5d199dbf42" y="231.003221"/>
     <use style="fill:#4c72b0;" x="194.542589" xlink:href="#m5d199dbf42" y="231.971197"/>
     <use style="fill:#4c72b0;" x="196.071782" xlink:href="#m5d199dbf42" y="231.003209"/>
     <use style="fill:#4c72b0;" x="197.600976" xlink:href="#m5d199dbf42" y="231.97121"/>
     <use style="fill:#4c72b0;" x="199.13017" xlink:href="#m5d199dbf42" y="231.003196"/>
     <use style="fill:#4c72b0;" x="200.659364" xlink:href="#m5d199dbf42" y="231.971224"/>
     <use style="fill:#4c72b0;" x="202.188557" xlink:href="#m5d199dbf42" y="231.003181"/>
     <use style="fill:#4c72b0;" x="203.717751" xlink:href="#m5d199dbf42" y="233.576478"/>
     <use style="fill:#4c72b0;" x="205.246945" xlink:href="#m5d199dbf42" y="227.792686"/>
     <use style="fill:#4c72b0;" x="206.776139" xlink:href="#m5d199dbf42" y="235.181725"/>
     <use style="fill:#4c72b0;" x="208.305332" xlink:href="#m5d199dbf42" y="250.157109"/>
     <use style="fill:#4c72b0;" x="209.834526" xlink:href="#m5d199dbf42" y="254.637628"/>
     <use style="fill:#4c72b0;" x="211.36372" xlink:href="#m5d199dbf42" y="254.637628"/>
     <use style="fill:#4c72b0;" x="212.892913" xlink:href="#m5d199dbf42" y="254.637628"/>
     <use style="fill:#4c72b0;" x="214.422107" xlink:href="#m5d199dbf42" y="254.637628"/>
     <use style="fill:#4c72b0;" x="215.951301" xlink:href="#m5d199dbf42" y="254.637628"/>
     <use style="fill:#4c72b0;" x="217.480495" xlink:href="#m5d199dbf42" y="254.637628"/>
     <use style="fill:#4c72b0;" x="219.009688" xlink:href="#m5d199dbf42" y="254.637628"/>
     <use style="fill:#4c72b0;" x="220.538882" xlink:href="#m5d199dbf42" y="254.637628"/>
     <use style="fill:#4c72b0;" x="222.068076" xlink:href="#m5d199dbf42" y="254.637628"/>
     <use style="fill:#4c72b0;" x="223.59727" xlink:href="#m5d199dbf42" y="254.637628"/>
     <use style="fill:#4c72b0;" x="225.126463" xlink:href="#m5d199dbf42" y="254.637628"/>
     <use style="fill:#4c72b0;" x="226.655657" xlink:href="#m5d199dbf42" y="254.637628"/>
     <use style="fill:#4c72b0;" x="228.184851" xlink:href="#m5d199dbf42" y="254.637628"/>
     <use style="fill:#4c72b0;" x="229.714044" xlink:href="#m5d199dbf42" y="254.637628"/>
     <use style="fill:#4c72b0;" x="231.243238" xlink:href="#m5d199dbf42" y="254.637628"/>
     <use style="fill:#4c72b0;" x="232.772432" xlink:href="#m5d199dbf42" y="254.637628"/>
     <use style="fill:#4c72b0;" x="234.301626" xlink:href="#m5d199dbf42" y="254.637628"/>
     <use style="fill:#4c72b0;" x="235.830819" xlink:href="#m5d199dbf42" y="254.637628"/>
     <use style="fill:#4c72b0;" x="237.360013" xlink:href="#m5d199dbf42" y="254.637628"/>
     <use style="fill:#4c72b0;" x="238.889207" xlink:href="#m5d199dbf42" y="254.637628"/>
     <use style="fill:#4c72b0;" x="240.418401" xlink:href="#m5d199dbf42" y="254.637628"/>
     <use style="fill:#4c72b0;" x="241.947594" xlink:href="#m5d199dbf42" y="254.637628"/>
     <use style="fill:#4c72b0;" x="243.476788" xlink:href="#m5d199dbf42" y="254.637628"/>
     <use style="fill:#4c72b0;" x="245.005982" xlink:href="#m5d199dbf42" y="254.637628"/>
     <use style="fill:#4c72b0;" x="246.535176" xlink:href="#m5d199dbf42" y="254.637628"/>
     <use style="fill:#4c72b0;" x="248.064369" xlink:href="#m5d199dbf42" y="254.637628"/>
     <use style="fill:#4c72b0;" x="249.593563" xlink:href="#m5d199dbf42" y="254.637628"/>
     <use style="fill:#4c72b0;" x="251.122757" xlink:href="#m5d199dbf42" y="254.637628"/>
     <use style="fill:#4c72b0;" x="252.65195" xlink:href="#m5d199dbf42" y="254.637628"/>
     <use style="fill:#4c72b0;" x="254.181144" xlink:href="#m5d199dbf42" y="254.637628"/>
     <use style="fill:#4c72b0;" x="255.710338" xlink:href="#m5d199dbf42" y="254.637628"/>
     <use style="fill:#4c72b0;" x="257.239532" xlink:href="#m5d199dbf42" y="254.637628"/>
     <use style="fill:#4c72b0;" x="258.768725" xlink:href="#m5d199dbf42" y="254.637628"/>
     <use style="fill:#4c72b0;" x="260.297919" xlink:href="#m5d199dbf42" y="254.637628"/>
     <use style="fill:#4c72b0;" x="261.827113" xlink:href="#m5d199dbf42" y="254.637628"/>
     <use style="fill:#4c72b0;" x="263.356307" xlink:href="#m5d199dbf42" y="254.637628"/>
     <use style="fill:#4c72b0;" x="264.8855" xlink:href="#m5d199dbf42" y="254.637628"/>
     <use style="fill:#4c72b0;" x="266.414694" xlink:href="#m5d199dbf42" y="254.637628"/>
     <use style="fill:#4c72b0;" x="267.943888" xlink:href="#m5d199dbf42" y="254.637628"/>
     <use style="fill:#4c72b0;" x="269.473081" xlink:href="#m5d199dbf42" y="254.637628"/>
     <use style="fill:#4c72b0;" x="271.002275" xlink:href="#m5d199dbf42" y="254.637628"/>
     <use style="fill:#4c72b0;" x="272.531469" xlink:href="#m5d199dbf42" y="254.637628"/>
     <use style="fill:#4c72b0;" x="274.060663" xlink:href="#m5d199dbf42" y="254.637628"/>
     <use style="fill:#4c72b0;" x="275.589856" xlink:href="#m5d199dbf42" y="254.637628"/>
     <use style="fill:#4c72b0;" x="277.11905" xlink:href="#m5d199dbf42" y="254.637628"/>
     <use style="fill:#4c72b0;" x="278.648244" xlink:href="#m5d199dbf42" y="254.637628"/>
     <use style="fill:#4c72b0;" x="280.177438" xlink:href="#m5d199dbf42" y="254.637628"/>
     <use style="fill:#4c72b0;" x="281.706631" xlink:href="#m5d199dbf42" y="254.637629"/>
     <use style="fill:#4c72b0;" x="283.235825" xlink:href="#m5d199dbf42" y="254.637629"/>
     <use style="fill:#4c72b0;" x="284.765019" xlink:href="#m5d199dbf42" y="254.637629"/>
     <use style="fill:#4c72b0;" x="286.294213" xlink:href="#m5d199dbf42" y="254.637629"/>
     <use style="fill:#4c72b0;" x="287.823406" xlink:href="#m5d199dbf42" y="254.63763"/>
     <use style="fill:#4c72b0;" x="289.3526" xlink:href="#m5d199dbf42" y="256.312234"/>
     <use style="fill:#4c72b0;" x="290.881794" xlink:href="#m5d199dbf42" y="260.703037"/>
     <use style="fill:#4c72b0;" x="292.410987" xlink:href="#m5d199dbf42" y="265.156537"/>
     <use style="fill:#4c72b0;" x="293.940181" xlink:href="#m5d199dbf42" y="269.742095"/>
     <use style="fill:#4c72b0;" x="295.469375" xlink:href="#m5d199dbf42" y="274.358997"/>
     <use style="fill:#4c72b0;" x="296.998569" xlink:href="#m5d199dbf42" y="279.148685"/>
     <use style="fill:#4c72b0;" x="298.527762" xlink:href="#m5d199dbf42" y="283.98714"/>
     <use style="fill:#4c72b0;" x="300.056956" xlink:href="#m5d199dbf42" y="289.045623"/>
     <use style="fill:#4c72b0;" x="301.58615" xlink:href="#m5d199dbf42" y="294.172737"/>
     <use style="fill:#4c72b0;" x="303.115344" xlink:href="#m5d199dbf42" y="299.574733"/>
     <use style="fill:#4c72b0;" x="304.644537" xlink:href="#m5d199dbf42" y="305.068963"/>
     <use style="fill:#4c72b0;" x="306.173731" xlink:href="#m5d199dbf42" y="310.903085"/>
     <use style="fill:#4c72b0;" x="307.702925" xlink:href="#m5d199dbf42" y="316.858526"/>
     <use style="fill:#4c72b0;" x="309.232118" xlink:href="#m5d199dbf42" y="323.232283"/>
     <use style="fill:#4c72b0;" x="310.761312" xlink:href="#m5d199dbf42" y="329.761243"/>
     <use style="fill:#4c72b0;" x="312.290506" xlink:href="#m5d199dbf42" y="336.699209"/>
     <use style="fill:#4c72b0;" x="313.8197" xlink:href="#m5d199dbf42" y="340.3885"/>
     <use style="fill:#4c72b0;" x="315.348893" xlink:href="#m5d199dbf42" y="340.305984"/>
     <use style="fill:#4c72b0;" x="316.878087" xlink:href="#m5d199dbf42" y="340.381182"/>
     <use style="fill:#4c72b0;" x="318.407281" xlink:href="#m5d199dbf42" y="340.312483"/>
     <use style="fill:#4c72b0;" x="319.936475" xlink:href="#m5d199dbf42" y="340.375226"/>
     <use style="fill:#4c72b0;" x="321.465668" xlink:href="#m5d199dbf42" y="340.317957"/>
     <use style="fill:#4c72b0;" x="322.994862" xlink:href="#m5d199dbf42" y="340.370171"/>
     <use style="fill:#4c72b0;" x="324.524056" xlink:href="#m5d199dbf42" y="340.322643"/>
     <use style="fill:#4c72b0;" x="326.05325" xlink:href="#m5d199dbf42" y="340.365802"/>
     <use style="fill:#4c72b0;" x="327.582443" xlink:href="#m5d199dbf42" y="340.326741"/>
     <use style="fill:#4c72b0;" x="329.111637" xlink:href="#m5d199dbf42" y="340.361929"/>
     <use style="fill:#4c72b0;" x="330.640831" xlink:href="#m5d199dbf42" y="340.330428"/>
     <use style="fill:#4c72b0;" x="332.170024" xlink:href="#m5d199dbf42" y="340.358387"/>
     <use style="fill:#4c72b0;" x="333.699218" xlink:href="#m5d199dbf42" y="340.333863"/>
     <use style="fill:#4c72b0;" x="335.228412" xlink:href="#m5d199dbf42" y="340.355022"/>
     <use style="fill:#4c72b0;" x="336.757606" xlink:href="#m5d199dbf42" y="340.337193"/>
     <use style="fill:#4c72b0;" x="338.286799" xlink:href="#m5d199dbf42" y="340.351691"/>
     <use style="fill:#4c72b0;" x="339.815993" xlink:href="#m5d199dbf42" y="340.340561"/>
     <use style="fill:#4c72b0;" x="341.345187" xlink:href="#m5d199dbf42" y="340.34825"/>
     <use style="fill:#4c72b0;" x="342.874381" xlink:href="#m5d199dbf42" y="340.344112"/>
     <use style="fill:#4c72b0;" x="344.403574" xlink:href="#m5d199dbf42" y="340.344552"/>
     <use style="fill:#4c72b0;" x="345.932768" xlink:href="#m5d199dbf42" y="340.347998"/>
     <use style="fill:#4c72b0;" x="347.461962" xlink:href="#m5d199dbf42" y="340.34044"/>
     <use style="fill:#4c72b0;" x="348.991156" xlink:href="#m5d199dbf42" y="340.352384"/>
     <use style="fill:#4c72b0;" x="350.520349" xlink:href="#m5d199dbf42" y="340.335738"/>
     <use style="fill:#4c72b0;" x="352.049543" xlink:href="#m5d199dbf42" y="340.357455"/>
     <use style="fill:#4c72b0;" x="353.578737" xlink:href="#m5d199dbf42" y="340.330251"/>
     <use style="fill:#4c72b0;" x="355.10793" xlink:href="#m5d199dbf42" y="340.363422"/>
     <use style="fill:#4c72b0;" x="356.637124" xlink:href="#m5d199dbf42" y="340.323753"/>
     <use style="fill:#4c72b0;" x="358.166318" xlink:href="#m5d199dbf42" y="340.370526"/>
     <use style="fill:#4c72b0;" x="359.695512" xlink:href="#m5d199dbf42" y="340.316004"/>
     <use style="fill:#4c72b0;" x="361.224705" xlink:href="#m5d199dbf42" y="340.379011"/>
     <use style="fill:#4c72b0;" x="362.753899" xlink:href="#m5d199dbf42" y="340.306843"/>
     <use style="fill:#4c72b0;" x="364.283093" xlink:href="#m5d199dbf42" y="340.388956"/>
     <use style="fill:#4c72b0;" x="365.812287" xlink:href="#m5d199dbf42" y="340.296968"/>
     <use style="fill:#4c72b0;" x="367.34148" xlink:href="#m5d199dbf42" y="340.39886"/>
     <use style="fill:#4c72b0;" x="368.870674" xlink:href="#m5d199dbf42" y="340.290046"/>
     <use style="fill:#4c72b0;" x="370.399868" xlink:href="#m5d199dbf42" y="340.40281"/>
     <use style="fill:#4c72b0;" x="371.929061" xlink:href="#m5d199dbf42" y="340.286089"/>
     <use style="fill:#4c72b0;" x="373.458255" xlink:href="#m5d199dbf42" y="340.406826"/>
     <use style="fill:#4c72b0;" x="374.987449" xlink:href="#m5d199dbf42" y="340.282043"/>
     <use style="fill:#4c72b0;" x="376.516643" xlink:href="#m5d199dbf42" y="340.410961"/>
     <use style="fill:#4c72b0;" x="378.045836" xlink:href="#m5d199dbf42" y="340.277853"/>
     <use style="fill:#4c72b0;" x="379.57503" xlink:href="#m5d199dbf42" y="340.415275"/>
     <use style="fill:#4c72b0;" x="381.104224" xlink:href="#m5d199dbf42" y="340.273485"/>
     <use style="fill:#4c72b0;" x="382.633418" xlink:href="#m5d199dbf42" y="340.419775"/>
     <use style="fill:#4c72b0;" x="384.162611" xlink:href="#m5d199dbf42" y="340.268927"/>
     <use style="fill:#4c72b0;" x="385.691805" xlink:href="#m5d199dbf42" y="340.424478"/>
     <use style="fill:#4c72b0;" x="387.220999" xlink:href="#m5d199dbf42" y="340.264165"/>
     <use style="fill:#4c72b0;" x="388.750193" xlink:href="#m5d199dbf42" y="340.429399"/>
     <use style="fill:#4c72b0;" x="390.279386" xlink:href="#m5d199dbf42" y="340.259184"/>
     <use style="fill:#4c72b0;" x="391.80858" xlink:href="#m5d199dbf42" y="340.434552"/>
     <use style="fill:#4c72b0;" x="393.337774" xlink:href="#m5d199dbf42" y="340.25397"/>
     <use style="fill:#4c72b0;" x="394.866967" xlink:href="#m5d199dbf42" y="340.439953"/>
     <use style="fill:#4c72b0;" x="396.396161" xlink:href="#m5d199dbf42" y="340.248509"/>
     <use style="fill:#4c72b0;" x="397.925355" xlink:href="#m5d199dbf42" y="340.445618"/>
     <use style="fill:#4c72b0;" x="399.454549" xlink:href="#m5d199dbf42" y="340.242785"/>
     <use style="fill:#4c72b0;" x="400.983742" xlink:href="#m5d199dbf42" y="340.451565"/>
     <use style="fill:#4c72b0;" x="402.512936" xlink:href="#m5d199dbf42" y="340.236789"/>
     <use style="fill:#4c72b0;" x="404.04213" xlink:href="#m5d199dbf42" y="340.457791"/>
     <use style="fill:#4c72b0;" x="405.571324" xlink:href="#m5d199dbf42" y="340.230462"/>
     <use style="fill:#4c72b0;" x="407.100517" xlink:href="#m5d199dbf42" y="340.464429"/>
     <use style="fill:#4c72b0;" x="408.629711" xlink:href="#m5d199dbf42" y="340.224039"/>
     <use style="fill:#4c72b0;" x="410.158905" xlink:href="#m5d199dbf42" y="340.470865"/>
     <use style="fill:#4c72b0;" x="411.688098" xlink:href="#m5d199dbf42" y="340.216132"/>
     <use style="fill:#4c72b0;" x="413.217292" xlink:href="#m5d199dbf42" y="340.480739"/>
     <use style="fill:#4c72b0;" x="414.746486" xlink:href="#m5d199dbf42" y="335.701876"/>
     <use style="fill:#4c72b0;" x="416.27568" xlink:href="#m5d199dbf42" y="321.082655"/>
     <use style="fill:#4c72b0;" x="417.804873" xlink:href="#m5d199dbf42" y="305.668218"/>
     <use style="fill:#4c72b0;" x="419.334067" xlink:href="#m5d199dbf42" y="291.039421"/>
     <use style="fill:#4c72b0;" x="420.863261" xlink:href="#m5d199dbf42" y="275.483561"/>
     <use style="fill:#4c72b0;" x="422.392455" xlink:href="#m5d199dbf42" y="260.937359"/>
     <use style="fill:#4c72b0;" x="423.921648" xlink:href="#m5d199dbf42" y="245.958597"/>
     <use style="fill:#4c72b0;" x="425.450842" xlink:href="#m5d199dbf42" y="228.347729"/>
     <use style="fill:#4c72b0;" x="426.980036" xlink:href="#m5d199dbf42" y="234.626682"/>
     <use style="fill:#4c72b0;" x="428.50923" xlink:href="#m5d199dbf42" y="228.347724"/>
     <use style="fill:#4c72b0;" x="430.038423" xlink:href="#m5d199dbf42" y="232.977068"/>
     <use style="fill:#4c72b0;" x="431.567617" xlink:href="#m5d199dbf42" y="231.646912"/>
     <use style="fill:#4c72b0;" x="433.096811" xlink:href="#m5d199dbf42" y="231.327534"/>
     <use style="fill:#4c72b0;" x="434.626004" xlink:href="#m5d199dbf42" y="231.646754"/>
     <use style="fill:#4c72b0;" x="436.155198" xlink:href="#m5d199dbf42" y="231.327782"/>
     <use style="fill:#4c72b0;" x="437.684392" xlink:href="#m5d199dbf42" y="231.64634"/>
     <use style="fill:#4c72b0;" x="439.213586" xlink:href="#m5d199dbf42" y="231.328362"/>
     <use style="fill:#4c72b0;" x="440.742779" xlink:href="#m5d199dbf42" y="231.645046"/>
     <use style="fill:#4c72b0;" x="442.271973" xlink:href="#m5d199dbf42" y="231.33037"/>
     <use style="fill:#4c72b0;" x="443.801167" xlink:href="#m5d199dbf42" y="231.639575"/>
     <use style="fill:#4c72b0;" x="445.330361" xlink:href="#m5d199dbf42" y="231.339302"/>
     <use style="fill:#4c72b0;" x="446.859554" xlink:href="#m5d199dbf42" y="231.62478"/>
     <use style="fill:#4c72b0;" x="448.388748" xlink:href="#m5d199dbf42" y="231.359961"/>
     <use style="fill:#4c72b0;" x="449.917942" xlink:href="#m5d199dbf42" y="231.605629"/>
     <use style="fill:#4c72b0;" x="451.447135" xlink:href="#m5d199dbf42" y="231.377604"/>
     <use style="fill:#4c72b0;" x="452.976329" xlink:href="#m5d199dbf42" y="231.588255"/>
     <use style="fill:#4c72b0;" x="454.505523" xlink:href="#m5d199dbf42" y="231.394709"/>
     <use style="fill:#4c72b0;" x="456.034717" xlink:href="#m5d199dbf42" y="231.573028"/>
     <use style="fill:#4c72b0;" x="457.56391" xlink:href="#m5d199dbf42" y="231.408058"/>
     <use style="fill:#4c72b0;" x="459.093104" xlink:href="#m5d199dbf42" y="231.563555"/>
     <use style="fill:#4c72b0;" x="460.622298" xlink:href="#m5d199dbf42" y="231.413656"/>
     <use style="fill:#4c72b0;" x="462.151492" xlink:href="#m5d199dbf42" y="231.498019"/>
     <use style="fill:#4c72b0;" x="463.680685" xlink:href="#m5d199dbf42" y="231.539125"/>
     <use style="fill:#4c72b0;" x="465.209879" xlink:href="#m5d199dbf42" y="231.435278"/>
     <use style="fill:#4c72b0;" x="466.739073" xlink:href="#m5d199dbf42" y="231.538967"/>
     <use style="fill:#4c72b0;" x="468.268267" xlink:href="#m5d199dbf42" y="231.435613"/>
     <use style="fill:#4c72b0;" x="469.79746" xlink:href="#m5d199dbf42" y="231.538733"/>
     <use style="fill:#4c72b0;" x="471.326654" xlink:href="#m5d199dbf42" y="231.43573"/>
     <use style="fill:#4c72b0;" x="472.855848" xlink:href="#m5d199dbf42" y="231.538665"/>
     <use style="fill:#4c72b0;" x="474.385041" xlink:href="#m5d199dbf42" y="231.435739"/>
     <use style="fill:#4c72b0;" x="475.914235" xlink:href="#m5d199dbf42" y="231.538708"/>
     <use style="fill:#4c72b0;" x="477.443429" xlink:href="#m5d199dbf42" y="230.470191"/>
     <use style="fill:#4c72b0;" x="478.972623" xlink:href="#m5d199dbf42" y="229.741878"/>
     <use style="fill:#4c72b0;" x="480.501816" xlink:href="#m5d199dbf42" y="236.96044"/>
     <use style="fill:#4c72b0;" x="482.03101" xlink:href="#m5d199dbf42" y="226.013964"/>
     <use style="fill:#4c72b0;" x="483.560204" xlink:href="#m5d199dbf42" y="216.378826"/>
     <use style="fill:#4c72b0;" x="485.089398" xlink:href="#m5d199dbf42" y="207.000405"/>
     <use style="fill:#4c72b0;" x="486.618591" xlink:href="#m5d199dbf42" y="197.878828"/>
     <use style="fill:#4c72b0;" x="488.147785" xlink:href="#m5d199dbf42" y="189.014138"/>
     <use style="fill:#4c72b0;" x="489.676979" xlink:href="#m5d199dbf42" y="180.406355"/>
     <use style="fill:#4c72b0;" x="491.206173" xlink:href="#m5d199dbf42" y="172.055491"/>
     <use style="fill:#4c72b0;" x="492.735366" xlink:href="#m5d199dbf42" y="163.961554"/>
     <use style="fill:#4c72b0;" x="494.26456" xlink:href="#m5d199dbf42" y="156.124549"/>
     <use style="fill:#4c72b0;" x="495.793754" xlink:href="#m5d199dbf42" y="148.54448"/>
     <use style="fill:#4c72b0;" x="497.322947" xlink:href="#m5d199dbf42" y="141.221351"/>
     <use style="fill:#4c72b0;" x="498.852141" xlink:href="#m5d199dbf42" y="134.155164"/>
     <use style="fill:#4c72b0;" x="500.381335" xlink:href="#m5d199dbf42" y="127.34592"/>
     <use style="fill:#4c72b0;" x="501.910529" xlink:href="#m5d199dbf42" y="120.793623"/>
     <use style="fill:#4c72b0;" x="503.439722" xlink:href="#m5d199dbf42" y="114.498272"/>
     <use style="fill:#4c72b0;" x="504.968916" xlink:href="#m5d199dbf42" y="108.45987"/>
     <use style="fill:#4c72b0;" x="506.49811" xlink:href="#m5d199dbf42" y="102.678416"/>
     <use style="fill:#4c72b0;" x="508.027304" xlink:href="#m5d199dbf42" y="97.153913"/>
     <use style="fill:#4c72b0;" x="509.556497" xlink:href="#m5d199dbf42" y="91.88636"/>
     <use style="fill:#4c72b0;" x="511.085691" xlink:href="#m5d199dbf42" y="86.875758"/>
     <use style="fill:#4c72b0;" x="512.614885" xlink:href="#m5d199dbf42" y="82.122108"/>
     <use style="fill:#4c72b0;" x="514.144078" xlink:href="#m5d199dbf42" y="77.62541"/>
     <use style="fill:#4c72b0;" x="515.673272" xlink:href="#m5d199dbf42" y="73.385665"/>
     <use style="fill:#4c72b0;" x="517.202466" xlink:href="#m5d199dbf42" y="69.402873"/>
     <use style="fill:#4c72b0;" x="518.73166" xlink:href="#m5d199dbf42" y="65.677035"/>
     <use style="fill:#4c72b0;" x="520.260853" xlink:href="#m5d199dbf42" y="62.20815"/>
     <use style="fill:#4c72b0;" x="521.790047" xlink:href="#m5d199dbf42" y="58.996219"/>
     <use style="fill:#4c72b0;" x="523.319241" xlink:href="#m5d199dbf42" y="56.041242"/>
     <use style="fill:#4c72b0;" x="524.848435" xlink:href="#m5d199dbf42" y="53.343219"/>
     <use style="fill:#4c72b0;" x="526.377628" xlink:href="#m5d199dbf42" y="50.902151"/>
     <use style="fill:#4c72b0;" x="527.906822" xlink:href="#m5d199dbf42" y="48.718038"/>
     <use style="fill:#4c72b0;" x="529.436016" xlink:href="#m5d199dbf42" y="46.790879"/>
     <use style="fill:#4c72b0;" x="530.96521" xlink:href="#m5d199dbf42" y="45.120676"/>
     <use style="fill:#4c72b0;" x="532.494403" xlink:href="#m5d199dbf42" y="43.707427"/>
     <use style="fill:#4c72b0;" x="534.023597" xlink:href="#m5d199dbf42" y="42.551134"/>
     <use style="fill:#4c72b0;" x="535.552791" xlink:href="#m5d199dbf42" y="41.651795"/>
     <use style="fill:#4c72b0;" x="537.081984" xlink:href="#m5d199dbf42" y="41.009412"/>
     <use style="fill:#4c72b0;" x="538.611178" xlink:href="#m5d199dbf42" y="40.623984"/>
     <use style="fill:#4c72b0;" x="540.140372" xlink:href="#m5d199dbf42" y="40.495512"/>
    </g>
   </g>
   <g id="patch_3">
    <path d="M 60.05 355.48 
L 60.05 25.49625 
" style="fill:none;"/>
   </g>
   <g id="patch_4">
    <path d="M 563.001818 355.48 
L 563.001818 25.49625 
" style="fill:none;"/>
   </g>
   <g id="patch_5">
    <path d="M 60.05 355.48 
L 563.001818 355.48 
" style="fill:none;"/>
   </g>
   <g id="patch_6">
    <path d="M 60.05 25.49625 
L 563.001818 25.49625 
" style="fill:none;"/>
   </g>
   <g id="text_16">
    <!-- Net Power over a Day -->
    <defs>
     <path d="M 7.71875 0 
L 7.71875 71.578125 
L 32.375 71.578125 
Q 40.71875 71.578125 45.125 70.5625 
Q 51.265625 69.140625 55.609375 65.4375 
Q 61.28125 60.640625 64.078125 53.1875 
Q 66.890625 45.75 66.890625 36.1875 
Q 66.890625 28.03125 64.984375 21.734375 
Q 63.09375 15.4375 60.109375 11.296875 
Q 57.125 7.171875 53.578125 4.796875 
Q 50.046875 2.4375 45.046875 1.21875 
Q 40.046875 0 33.546875 0 
z
M 17.1875 8.453125 
L 32.46875 8.453125 
Q 39.546875 8.453125 43.578125 9.765625 
Q 47.609375 11.078125 50 13.484375 
Q 53.375 16.84375 55.25 22.53125 
Q 57.125 28.21875 57.125 36.328125 
Q 57.125 47.5625 53.4375 53.59375 
Q 49.75 59.625 44.484375 61.671875 
Q 40.671875 63.140625 32.234375 63.140625 
L 17.1875 63.140625 
z
" id="ArialMT-68"/>
     <path d="M 6.203125 -19.96875 
L 5.21875 -11.71875 
Q 8.109375 -12.5 10.25 -12.5 
Q 13.1875 -12.5 14.9375 -11.515625 
Q 16.703125 -10.546875 17.828125 -8.796875 
Q 18.65625 -7.46875 20.515625 -2.25 
Q 20.75 -1.515625 21.296875 -0.09375 
L 1.609375 51.859375 
L 11.078125 51.859375 
L 21.875 21.828125 
Q 23.96875 16.109375 25.640625 9.8125 
Q 27.15625 15.875 29.25 21.625 
L 40.328125 51.859375 
L 49.125 51.859375 
L 29.390625 -0.875 
Q 26.21875 -9.421875 24.46875 -12.640625 
Q 22.125 -17 19.09375 -19.015625 
Q 16.0625 -21.046875 11.859375 -21.046875 
Q 9.328125 -21.046875 6.203125 -19.96875 
z
" id="ArialMT-121"/>
    </defs>
    <g style="fill:#262626;" transform="translate(252.838409 19.49625)scale(0.12 -0.12)">
     <use xlink:href="#ArialMT-78"/>
     <use x="72.216797" xlink:href="#ArialMT-101"/>
     <use x="127.832031" xlink:href="#ArialMT-116"/>
     <use x="155.615234" xlink:href="#ArialMT-32"/>
     <use x="183.398438" xlink:href="#ArialMT-80"/>
     <use x="250.097656" xlink:href="#ArialMT-111"/>
     <use x="305.712891" xlink:href="#ArialMT-119"/>
     <use x="377.929688" xlink:href="#ArialMT-101"/>
     <use x="433.544922" xlink:href="#ArialMT-114"/>
     <use x="466.845703" xlink:href="#ArialMT-32"/>
     <use x="494.628906" xlink:href="#ArialMT-111"/>
     <use x="550.244141" xlink:href="#ArialMT-118"/>
     <use x="600.244141" xlink:href="#ArialMT-101"/>
     <use x="655.859375" xlink:href="#ArialMT-114"/>
     <use x="689.160156" xlink:href="#ArialMT-32"/>
     <use x="716.943359" xlink:href="#ArialMT-97"/>
     <use x="772.558594" xlink:href="#ArialMT-32"/>
     <use x="800.341797" xlink:href="#ArialMT-68"/>
     <use x="872.558594" xlink:href="#ArialMT-97"/>
     <use x="928.173828" xlink:href="#ArialMT-121"/>
    </g>
   </g>
  </g>
 </g>
 <defs>
  <clipPath id="pa10d03f1ba">
   <rect height="329.98375" width="502.951818" x="60.05" y="25.49625"/>
  </clipPath>
 </defs>
</svg>
